if (_typeface_js && _typeface_js.loadFace) _typeface_js.loadFace({"glyphs":{"0":{"ha":1039,"x_min":79,"x_max":926,"o":"m 503 951 q 817 828 708 951 q 926 468 926 706 q 818 108 926 231 q 503 -14 710 -14 q 188 108 296 -14 q 79 468 79 231 q 188 828 79 706 q 503 951 297 951 m 503 788 q 302 709 364 788 q 240 469 240 631 q 302 228 240 307 q 503 150 364 150 q 703 228 642 150 q 764 469 764 307 q 702 709 764 631 q 503 788 640 788 z "},"1":{"ha":468,"x_min":40,"x_max":357,"o":"m 139 938 q 245 926 203 938 q 313 887 288 914 q 347 817 338 860 q 357 714 357 775 l 357 0 l 193 0 l 193 703 q 178 757 193 740 q 125 774 163 774 l 40 774 l 40 938 l 139 938 z "},"2":{"ha":1019,"x_min":93,"x_max":943,"o":"m 661 938 q 870 870 797 938 q 943 672 943 803 q 891 508 943 568 q 725 421 839 447 l 335 333 q 272 297 286 322 q 257 231 257 271 l 257 183 q 275 164 257 164 l 918 164 l 918 0 l 171 0 q 93 76 93 0 l 93 218 q 103 319 93 275 q 136 397 113 364 q 199 451 160 429 q 299 488 239 474 l 693 578 q 762 613 743 589 q 781 669 781 636 q 751 745 781 717 q 665 774 722 774 l 124 774 l 124 938 l 661 938 z "},"3":{"ha":946,"x_min":82,"x_max":868,"o":"m 551 938 q 694 919 635 938 q 791 866 753 900 q 847 786 829 832 q 865 686 865 740 q 831 551 865 603 q 732 471 797 499 q 833 390 799 443 q 868 251 868 336 q 850 153 868 199 q 794 73 832 107 q 698 19 757 39 q 556 0 639 0 l 82 0 l 82 164 l 556 164 q 663 195 628 164 q 697 283 697 226 q 554 396 697 396 l 265 396 l 265 544 l 550 544 q 658 572 622 544 q 693 657 693 599 q 660 742 693 710 q 551 774 626 774 l 83 774 l 83 938 l 551 938 z "},"4":{"ha":978,"x_min":46,"x_max":867,"o":"m 375 832 q 418 878 397 858 q 464 910 439 897 q 520 931 489 924 q 593 938 551 938 l 697 938 q 828 894 789 938 q 867 767 867 850 l 867 0 l 701 0 l 701 194 l 263 194 q 94 236 143 194 q 46 357 46 278 q 62 443 46 410 q 104 508 78 476 l 375 832 m 246 429 q 229 386 229 410 q 244 352 229 364 q 292 340 258 340 l 701 340 l 701 728 q 660 774 701 774 l 586 774 q 538 765 554 774 q 501 733 521 757 l 246 429 z "},"5":{"ha":951,"x_min":106,"x_max":882,"o":"m 831 938 l 831 774 l 288 774 q 269 757 269 774 l 269 586 q 288 569 269 569 l 565 569 q 722 547 660 569 q 819 488 783 525 q 868 400 854 450 q 882 294 882 350 q 865 176 882 231 q 813 83 849 122 q 719 22 776 44 q 582 0 663 0 l 110 0 l 110 164 l 588 164 q 688 200 658 164 q 718 297 718 236 q 687 387 718 353 q 574 421 656 421 l 183 421 q 106 497 106 421 l 106 861 q 183 938 106 938 l 831 938 z "},"6":{"ha":990,"x_min":79,"x_max":917,"o":"m 863 938 l 863 774 l 503 774 q 324 722 385 774 q 247 553 263 669 l 640 553 q 851 491 785 553 q 917 299 917 429 q 901 181 917 236 q 849 86 885 126 q 758 23 814 46 q 625 0 703 0 l 465 0 q 305 29 376 0 q 183 117 233 58 q 106 263 133 175 q 79 468 79 350 q 188 822 79 706 q 503 938 297 938 l 863 938 m 244 421 q 312 224 253 285 q 488 164 371 164 l 618 164 q 722 201 689 164 q 756 300 756 239 q 722 392 756 363 q 624 421 688 421 l 244 421 z "},"7":{"ha":904,"x_min":40,"x_max":854,"o":"m 628 938 q 737 920 693 938 q 806 876 781 903 q 843 815 832 849 q 854 746 854 781 q 835 651 854 699 q 776 547 817 604 l 374 0 l 168 0 l 651 654 q 675 715 675 686 q 661 756 675 738 q 608 774 647 774 l 40 774 l 40 938 l 628 938 z "},"8":{"ha":1008,"x_min":76,"x_max":932,"o":"m 614 938 q 756 919 697 938 q 853 866 815 900 q 910 785 892 832 q 928 681 928 738 q 894 549 928 600 q 794 471 860 497 q 897 392 861 443 q 932 258 932 340 q 914 154 932 201 q 858 73 896 107 q 760 19 819 39 q 618 0 701 0 l 389 0 q 247 19 306 0 q 150 73 188 39 q 94 154 113 107 q 76 258 76 201 q 111 392 76 340 q 213 471 146 443 q 113 549 147 497 q 79 681 79 600 q 97 785 79 738 q 153 866 115 832 q 251 919 192 900 q 393 938 310 938 l 614 938 m 622 163 q 732 194 697 163 q 767 283 767 225 q 622 400 767 400 l 385 400 q 240 283 240 400 q 276 194 240 225 q 385 163 311 163 l 622 163 m 618 542 q 763 656 763 542 q 728 743 763 710 q 619 776 694 776 l 389 776 q 279 743 314 776 q 244 656 244 710 q 390 542 244 542 l 618 542 z "},"9":{"ha":990,"x_min":74,"x_max":911,"o":"m 542 938 q 692 912 624 938 q 808 831 760 886 q 884 690 857 776 q 911 483 911 604 q 801 119 911 238 q 488 0 692 0 l 179 0 l 179 164 l 488 164 q 663 215 600 164 q 742 385 725 267 l 349 385 q 140 447 206 385 q 74 639 74 508 q 90 756 74 701 q 144 851 107 811 q 240 915 181 892 q 385 938 299 938 l 542 938 m 233 638 q 267 546 233 575 q 365 517 301 517 l 746 517 q 680 713 739 651 q 503 774 621 774 l 372 774 q 267 736 301 774 q 233 638 233 699 z "},"\u0017":{"ha":371,"x_min":0,"x_max":0,"o":""}," ":{"ha":371,"x_min":0,"x_max":0,"o":""},"!":{"ha":325,"x_min":78,"x_max":250,"o":"m 250 964 l 228 331 l 101 331 l 78 964 l 250 964 m 243 189 l 243 0 l 85 0 l 85 189 l 243 189 z "},"\"":{"ha":531,"x_min":64,"x_max":465,"o":"m 64 636 m 465 1051 l 447 636 l 343 636 l 324 1051 l 465 1051 m 206 1051 l 188 636 l 83 636 l 64 1051 l 206 1051 z "},"#":{"ha":865,"x_min":58,"x_max":806,"o":"m 317 938 l 317 697 l 547 697 l 547 938 l 649 938 l 649 697 l 806 697 l 806 596 l 649 596 l 649 339 l 806 339 l 806 238 l 649 238 l 649 0 l 547 0 l 547 238 l 317 238 l 317 0 l 215 0 l 215 238 l 58 238 l 58 339 l 215 339 l 215 596 l 58 596 l 58 697 l 215 697 l 215 938 l 317 938 m 317 339 l 547 339 l 547 596 l 317 596 l 317 339 z "},"$":{"ha":861,"x_min":93,"x_max":768,"o":"m 403 824 l 403 1019 l 503 1019 l 503 824 l 739 824 l 739 682 l 333 682 q 260 659 282 682 q 238 600 238 636 q 259 540 238 564 q 342 515 281 515 l 514 515 q 640 499 590 515 q 717 456 689 483 q 757 392 746 429 q 768 314 768 356 q 755 223 768 264 q 713 153 742 182 q 638 107 683 124 q 528 90 592 90 l 503 90 l 503 -82 l 403 -82 l 403 90 l 101 90 l 101 233 l 528 233 q 602 256 581 233 q 624 315 624 279 q 603 375 624 350 q 519 400 582 400 l 346 400 q 221 417 269 400 q 144 463 172 433 q 104 530 115 492 q 93 611 93 568 q 149 766 93 708 q 332 824 204 824 l 403 824 z "},"%":{"ha":1174,"x_min":40,"x_max":1133,"o":"m 40 0 m 1007 938 l 274 0 l 161 0 l 897 938 l 1007 938 m 900 522 q 1073 456 1013 522 q 1133 257 1133 389 q 1073 59 1133 126 q 900 -8 1013 -8 q 727 59 786 -8 q 668 257 668 126 q 728 456 668 389 q 900 522 788 522 m 900 428 q 793 387 825 428 q 761 258 761 346 q 793 129 761 171 q 900 88 825 88 q 1006 129 974 88 q 1039 258 1039 171 q 1006 387 1039 346 q 900 428 974 428 m 272 944 q 445 878 385 944 q 506 679 506 811 q 445 481 506 549 q 272 414 385 414 q 99 481 158 414 q 40 679 40 549 q 100 878 40 811 q 272 944 160 944 m 272 850 q 165 809 197 850 q 133 681 133 768 q 165 551 133 593 q 272 510 197 510 q 378 551 346 510 q 411 681 411 593 q 378 809 411 768 q 272 850 346 850 z "},"&":{"ha":1063,"x_min":60,"x_max":1021,"o":"m 585 1051 q 688 1033 644 1051 q 761 981 732 1014 q 804 906 790 949 q 818 814 818 863 q 778 678 818 735 q 642 575 738 622 l 556 532 l 721 342 l 843 506 l 1017 506 l 814 236 l 1021 0 l 833 0 l 725 124 q 658 59 689 83 q 596 22 626 35 q 533 4 565 8 q 465 0 501 0 l 307 0 q 212 15 257 0 q 133 63 167 31 q 79 144 99 94 q 60 261 60 193 q 71 344 60 307 q 110 413 82 381 q 185 476 138 444 q 306 540 232 507 l 344 558 l 296 615 q 238 703 260 656 q 217 814 217 751 q 232 906 217 863 q 278 981 247 949 q 352 1033 308 1014 q 454 1051 396 1051 l 585 1051 m 467 143 q 551 160 514 143 q 633 229 589 178 l 424 468 l 379 446 q 299 402 331 421 q 248 365 267 383 q 222 326 229 346 q 215 282 215 307 q 248 181 215 219 q 339 143 281 143 l 467 143 m 375 799 q 389 734 375 761 q 431 676 403 707 l 478 622 l 564 664 q 644 719 617 689 q 671 799 671 749 q 647 878 671 844 q 565 913 624 913 l 482 913 q 400 880 425 913 q 375 799 375 847 z "},"'":{"ha":269,"x_min":64,"x_max":206,"o":"m 206 1051 l 188 636 l 83 636 l 64 1051 l 206 1051 z "},"(":{"ha":547,"x_min":113,"x_max":508,"o":"m 508 1243 l 508 1142 l 488 1142 q 359 1123 411 1142 q 274 1060 307 1104 q 228 944 242 1017 q 214 764 214 871 l 214 113 q 228 -67 214 6 q 274 -184 242 -140 q 359 -247 307 -228 q 488 -265 411 -265 l 508 -265 l 508 -367 l 488 -367 q 312 -339 383 -367 q 196 -251 240 -311 q 132 -99 151 -192 q 113 125 113 -6 l 113 751 q 132 975 113 882 q 196 1128 151 1068 q 312 1215 240 1188 q 488 1243 383 1243 l 508 1243 z "},")":{"ha":547,"x_min":39,"x_max":435,"o":"m 39 -367 l 39 -265 l 60 -265 q 188 -247 136 -265 q 273 -184 240 -228 q 319 -67 306 -140 q 333 113 333 6 l 333 764 q 319 944 333 871 q 273 1060 306 1017 q 188 1123 240 1104 q 60 1142 136 1142 l 39 1142 l 39 1243 l 60 1243 q 235 1215 164 1243 q 351 1128 307 1188 q 415 975 396 1068 q 435 751 435 882 l 435 125 q 415 -99 435 -6 q 351 -251 396 -192 q 235 -339 307 -311 q 60 -367 164 -367 l 39 -367 z "},"*":{"ha":775,"x_min":64,"x_max":711,"o":"m 351 768 l 339 1051 l 435 1051 l 422 768 l 663 921 l 710 838 l 458 707 l 711 576 l 663 494 l 424 646 l 436 363 l 342 363 l 354 646 l 114 492 l 65 575 l 317 707 l 64 836 l 113 919 l 351 768 z "},"+":{"ha":860,"x_min":56,"x_max":803,"o":"m 481 843 l 481 518 l 803 518 l 803 417 l 481 417 l 481 96 l 378 96 l 378 417 l 56 417 l 56 518 l 378 518 l 378 843 l 481 843 z "},",":{"ha":357,"x_min":39,"x_max":268,"o":"m 268 189 l 268 -36 q 88 -233 268 -233 l 39 -233 l 39 -112 l 56 -112 q 110 -53 110 -112 l 110 189 l 268 189 z "},"-":{"ha":576,"x_min":40,"x_max":536,"o":"m 536 511 l 536 369 l 40 369 l 40 511 l 536 511 z "},".":{"ha":336,"x_min":89,"x_max":247,"o":"m 247 189 l 247 0 l 89 0 l 89 189 l 247 189 z "},"/":{"ha":632,"x_min":15,"x_max":617,"o":"m 617 1051 l 158 -294 l 15 -294 l 475 1051 l 617 1051 z "},":":{"ha":378,"x_min":110,"x_max":268,"o":"m 110 0 m 268 714 l 268 525 l 110 525 l 110 714 l 268 714 m 268 189 l 268 0 l 110 0 l 110 189 l 268 189 z "},";":{"ha":378,"x_min":39,"x_max":268,"o":"m 39 0 m 268 189 l 268 -36 q 88 -233 268 -233 l 39 -233 l 39 -112 l 56 -112 q 110 -53 110 -112 l 110 189 l 268 189 m 268 714 l 268 525 l 110 525 l 110 714 l 268 714 z "},"<":{"ha":860,"x_min":56,"x_max":803,"o":"m 803 840 l 803 731 l 161 482 q 153 467 153 476 q 161 451 153 454 l 803 203 l 803 94 l 117 364 q 69 401 83 376 q 56 467 56 426 q 69 531 56 507 q 117 569 83 556 l 803 840 z "},"=":{"ha":860,"x_min":56,"x_max":803,"o":"m 803 339 l 803 238 l 56 238 l 56 339 l 803 339 m 803 697 l 803 596 l 56 596 l 56 697 l 803 697 z "},">":{"ha":860,"x_min":57,"x_max":804,"o":"m 57 93 l 57 203 l 699 451 q 707 467 707 457 q 699 482 707 479 l 57 731 l 57 839 l 743 569 q 790 532 776 557 q 804 467 804 507 q 790 402 804 426 q 743 364 776 378 l 57 93 z "},"?":{"ha":790,"x_min":40,"x_max":740,"o":"m 471 964 q 594 947 543 964 q 678 897 646 929 q 725 821 710 865 q 740 722 740 776 q 727 627 740 672 q 686 548 714 582 q 616 494 658 514 q 514 475 574 475 l 433 475 q 382 458 397 475 q 367 410 367 440 l 367 331 l 240 331 l 240 440 q 276 563 240 521 q 396 604 311 604 l 486 604 q 569 635 543 604 q 594 715 594 667 q 565 793 594 764 q 471 822 536 822 l 40 822 l 40 964 l 471 964 m 383 189 l 383 0 l 225 0 l 225 189 l 383 189 z "},"@":{"ha":1064,"x_min":107,"x_max":957,"o":"m 722 843 q 900 782 843 843 q 957 590 957 721 l 957 236 q 899 48 957 104 q 729 -8 842 -8 l 593 -8 q 423 48 481 -8 q 365 236 365 104 l 365 288 q 423 477 365 422 q 593 532 481 532 l 842 532 l 842 583 q 811 692 842 658 q 711 725 781 725 l 365 725 q 258 684 296 725 q 221 554 221 643 l 221 -6 q 258 -135 221 -94 q 365 -176 296 -176 l 951 -176 l 951 -294 l 365 -294 q 175 -223 243 -294 q 107 -4 107 -151 l 107 553 q 175 772 107 700 q 365 843 243 843 l 722 843 m 729 110 q 813 138 785 110 q 842 236 842 167 l 842 414 l 593 414 q 509 386 538 414 q 481 288 481 358 l 481 236 q 509 138 481 167 q 593 110 538 110 l 729 110 z "},"A":{"ha":1089,"x_min":26,"x_max":1064,"o":"m 207 0 l 26 0 l 356 833 q 430 927 382 900 q 553 954 478 954 q 674 927 626 954 q 747 833 722 900 l 1064 0 l 882 0 l 597 754 q 551 786 585 786 q 504 754 518 786 l 207 0 z "},"B":{"ha":999,"x_min":114,"x_max":922,"o":"m 604 938 q 747 919 688 938 q 844 866 806 900 q 900 785 882 832 q 918 681 918 738 q 884 549 918 599 q 783 472 850 499 q 886 392 850 444 q 922 258 922 340 q 904 154 922 201 q 848 73 886 107 q 751 19 810 39 q 608 0 692 0 l 192 0 q 114 76 114 0 l 114 861 q 192 938 114 938 l 604 938 m 275 178 q 293 163 275 163 l 613 163 q 722 194 688 163 q 757 285 757 226 q 613 406 757 406 l 275 406 l 275 178 m 275 542 l 608 542 q 753 654 753 542 q 719 743 753 710 q 610 776 685 776 l 293 776 q 275 760 275 776 l 275 542 z "},"C":{"ha":947,"x_min":79,"x_max":865,"o":"m 865 938 l 865 774 l 503 774 q 305 702 367 774 q 243 468 243 631 q 304 235 243 307 q 503 164 365 164 l 865 164 l 865 0 l 503 0 q 188 116 297 0 q 79 468 79 232 q 188 822 79 706 q 503 938 297 938 l 865 938 z "},"D":{"ha":1024,"x_min":114,"x_max":944,"o":"m 522 938 q 837 822 729 938 q 944 468 944 707 q 837 115 944 231 q 522 0 729 0 l 192 0 q 114 76 114 0 l 114 861 q 192 938 114 938 l 522 938 m 278 181 q 296 164 278 164 l 522 164 q 719 236 658 164 q 781 469 781 308 q 720 702 781 631 q 522 774 660 774 l 296 774 q 278 757 278 774 l 278 181 z "},"E":{"ha":963,"x_min":76,"x_max":864,"o":"m 863 938 l 863 774 l 393 774 q 285 742 318 774 q 251 656 251 710 q 394 544 251 544 l 856 544 l 856 396 l 390 396 q 247 282 247 396 q 282 195 247 226 q 389 164 317 164 l 864 164 l 864 0 l 389 0 q 247 19 306 0 q 149 73 188 39 q 94 154 111 107 q 76 256 76 201 q 111 390 76 336 q 211 471 146 443 q 79 682 79 525 q 97 785 79 738 q 153 866 115 832 q 251 919 192 900 q 393 938 310 938 l 863 938 z "},"F":{"ha":921,"x_min":106,"x_max":840,"o":"m 840 938 l 840 774 l 463 774 q 369 761 407 774 q 310 727 332 749 q 278 677 288 706 q 269 615 269 649 l 269 526 l 835 526 l 835 371 l 269 371 l 269 0 l 106 0 l 106 614 q 124 744 106 685 q 185 846 143 803 q 292 913 226 889 q 451 938 358 938 l 840 938 z "},"G":{"ha":1013,"x_min":79,"x_max":939,"o":"m 889 938 l 889 774 l 503 774 q 305 702 367 774 q 243 468 243 631 q 304 235 243 307 q 503 164 365 164 l 658 164 q 758 201 728 164 q 789 296 789 238 q 760 384 789 353 q 674 415 732 415 l 465 415 l 465 558 l 690 558 q 878 487 817 558 q 939 293 939 415 q 923 178 939 232 q 872 85 907 125 q 781 23 836 46 q 647 0 726 0 l 503 0 q 188 116 297 0 q 79 468 79 232 q 188 822 79 706 q 503 938 297 938 l 889 938 z "},"H":{"ha":1035,"x_min":114,"x_max":922,"o":"m 278 938 l 278 556 l 757 556 l 757 938 l 922 938 l 922 0 l 757 0 l 757 392 l 278 392 l 278 0 l 114 0 l 114 938 l 278 938 z "},"I":{"ha":390,"x_min":114,"x_max":278,"o":"m 278 938 l 278 0 l 114 0 l 114 938 l 278 938 z "},"J":{"ha":810,"x_min":40,"x_max":706,"o":"m 706 938 l 706 324 q 686 194 706 253 q 625 92 667 135 q 517 24 583 49 q 358 0 451 0 l 40 0 l 40 164 l 349 164 q 441 176 404 164 q 500 210 478 189 q 531 262 522 232 q 540 325 540 292 l 540 938 l 706 938 z "},"K":{"ha":983,"x_min":114,"x_max":956,"o":"m 278 938 l 278 540 l 368 540 q 466 544 428 540 q 529 560 504 547 q 572 595 554 572 q 608 657 589 618 l 751 938 l 928 938 l 781 646 q 713 542 749 583 q 618 475 676 500 q 676 452 651 467 q 723 416 701 438 q 764 365 744 394 q 804 294 783 335 l 956 0 l 772 0 l 629 278 q 592 338 610 315 q 546 372 574 360 q 476 388 518 385 q 368 392 435 392 l 278 392 l 278 0 l 114 0 l 114 938 l 278 938 z "},"L":{"ha":864,"x_min":104,"x_max":824,"o":"m 268 938 l 268 325 q 277 262 268 292 q 308 210 286 232 q 367 176 331 189 q 460 164 404 164 l 824 164 l 824 0 l 450 0 q 291 24 357 0 q 183 92 225 49 q 123 194 142 135 q 104 324 104 253 l 104 938 l 268 938 z "},"M":{"ha":1531,"x_min":113,"x_max":1418,"o":"m 275 0 l 113 0 l 113 744 q 168 897 113 839 q 338 954 224 954 q 496 906 438 954 q 574 769 554 858 l 706 196 q 768 143 718 143 q 831 196 817 143 l 963 769 q 1037 906 982 858 q 1193 954 1092 954 q 1363 897 1307 954 q 1418 744 1418 839 l 1418 0 l 1256 0 l 1256 736 q 1238 780 1256 764 q 1189 796 1221 796 q 1144 783 1160 796 q 1124 746 1129 769 l 989 172 q 915 31 967 79 q 767 -17 864 -17 q 615 32 668 -17 q 540 172 561 81 l 407 746 q 385 783 401 769 q 342 796 369 796 q 292 780 310 796 q 275 736 275 764 l 275 0 z "},"N":{"ha":1221,"x_min":113,"x_max":1110,"o":"m 276 0 l 113 0 l 113 750 q 165 898 113 842 q 328 954 218 954 q 476 908 425 954 q 556 781 526 861 l 829 182 q 851 154 838 165 q 889 143 865 143 q 930 158 915 143 q 944 196 944 172 l 944 938 l 1110 938 l 1110 189 q 1056 40 1110 96 q 894 -17 1003 -17 q 809 -5 846 -17 q 745 30 772 7 q 699 85 718 53 q 665 157 679 117 l 392 756 q 333 796 374 796 q 291 781 306 796 q 276 742 276 767 l 276 0 z "},"O":{"ha":1133,"x_min":79,"x_max":1054,"o":"m 631 938 q 945 821 836 938 q 1054 467 1054 704 q 945 115 1054 231 q 631 0 836 0 l 503 0 q 188 115 297 0 q 79 467 79 231 q 188 821 79 704 q 503 938 297 938 l 631 938 m 503 774 q 305 701 367 774 q 243 467 243 629 q 304 235 243 306 q 503 164 365 164 l 631 164 q 827 235 765 164 q 889 468 889 307 q 828 701 889 629 q 631 774 767 774 l 503 774 z "},"P":{"ha":943,"x_min":111,"x_max":893,"o":"m 592 938 q 728 915 671 938 q 822 853 785 892 q 876 764 858 815 q 893 657 893 713 q 877 551 893 604 q 825 457 861 499 q 731 389 789 415 q 592 363 674 363 l 300 363 q 276 339 276 363 l 276 0 l 113 0 l 113 371 q 147 485 113 450 q 260 519 182 519 l 597 519 q 657 531 632 519 q 697 560 682 542 q 720 601 713 578 q 728 649 728 624 q 697 737 728 700 q 599 774 665 774 l 111 774 l 111 938 l 592 938 z "},"Q":{"ha":1133,"x_min":79,"x_max":1054,"o":"m 631 938 q 945 822 836 938 q 1054 468 1054 706 q 999 194 1054 300 q 839 39 944 88 l 928 -147 l 763 -147 l 690 3 q 660 0 675 0 q 631 0 646 0 l 503 0 q 188 116 297 0 q 79 468 79 232 q 188 822 79 706 q 503 938 297 938 l 631 938 m 685 363 l 767 189 q 860 288 831 219 q 889 468 889 356 q 828 701 889 629 q 631 774 767 774 l 503 774 q 305 701 367 774 q 243 468 243 629 q 304 235 243 307 q 503 164 365 164 l 614 164 l 519 363 l 685 363 z "},"R":{"ha":992,"x_min":111,"x_max":940,"o":"m 619 938 q 756 915 699 938 q 849 853 813 892 q 903 764 886 815 q 921 657 921 713 q 910 569 921 613 q 875 487 899 525 q 814 419 851 449 q 722 375 776 390 l 940 0 l 758 0 l 544 363 l 300 363 q 276 339 276 363 l 276 0 l 113 0 l 113 371 q 147 485 113 450 q 260 519 182 519 l 625 519 q 685 531 660 519 q 725 560 710 542 q 748 601 740 578 q 756 650 756 625 q 724 737 756 700 q 625 774 693 774 l 111 774 l 111 938 l 619 938 z "},"S":{"ha":976,"x_min":71,"x_max":908,"o":"m 838 938 l 838 774 l 357 774 q 264 742 293 774 q 235 663 235 711 q 241 622 235 642 q 263 585 247 601 q 306 560 279 569 q 374 551 332 551 l 593 551 q 750 527 689 551 q 847 464 811 503 q 895 375 882 425 q 908 275 908 325 q 892 165 908 215 q 839 78 875 115 q 747 21 803 42 q 610 0 690 0 l 88 0 l 88 164 l 615 164 q 713 197 682 164 q 744 281 744 229 q 738 324 744 303 q 714 362 731 346 q 669 388 697 378 q 597 397 640 397 l 379 397 q 225 421 285 397 q 131 483 165 444 q 84 571 97 522 q 71 668 71 619 q 87 776 71 726 q 138 861 103 825 q 229 917 174 897 q 363 938 285 938 l 838 938 z "},"T":{"ha":793,"x_min":40,"x_max":753,"o":"m 753 938 l 753 774 l 479 774 l 479 0 l 314 0 l 314 774 l 40 774 l 40 938 l 753 938 z "},"U":{"ha":1017,"x_min":107,"x_max":911,"o":"m 274 938 l 274 311 q 310 202 274 240 q 429 164 347 164 l 596 164 q 713 202 675 164 q 750 311 750 240 l 750 938 l 911 938 l 911 299 q 835 75 911 150 q 607 0 758 0 l 410 0 q 107 299 107 0 l 107 938 l 274 938 z "},"V":{"ha":1089,"x_min":26,"x_max":1064,"o":"m 207 938 l 492 183 q 538 151 504 151 q 583 183 569 151 l 882 938 l 1064 938 l 733 104 q 659 10 707 38 q 538 -17 611 -17 q 417 9 468 -17 q 340 104 367 35 l 26 938 l 207 938 z "},"W":{"ha":1453,"x_min":44,"x_max":1408,"o":"m 217 938 l 286 206 q 302 159 289 175 q 343 143 315 143 q 401 194 392 143 l 513 769 q 583 908 531 861 q 728 954 636 954 q 870 908 819 954 q 938 769 921 861 l 1042 194 q 1101 143 1050 143 q 1142 159 1129 143 q 1158 206 1156 175 l 1238 938 l 1408 938 l 1321 196 q 1301 110 1315 150 q 1261 43 1288 71 q 1196 -1 1235 15 q 1101 -17 1157 -17 q 958 28 1013 -17 q 886 174 904 74 l 783 746 q 726 796 775 796 q 669 746 679 796 l 560 174 q 487 31 540 78 q 339 -17 433 -17 q 247 -1 285 -17 q 183 42 208 14 q 144 110 158 71 q 125 196 131 149 l 44 938 l 217 938 z "},"X":{"ha":1085,"x_min":26,"x_max":1060,"o":"m 265 938 l 553 592 l 854 938 l 1057 938 l 656 476 l 1060 0 l 860 0 l 549 372 l 229 0 l 26 0 l 446 489 l 65 938 l 265 938 z "},"Y":{"ha":957,"x_min":18,"x_max":939,"o":"m 217 938 l 479 536 l 744 938 l 939 938 l 561 404 l 561 0 l 396 0 l 396 404 l 18 938 l 217 938 z "},"Z":{"ha":1032,"x_min":79,"x_max":956,"o":"m 728 938 q 898 884 840 938 q 956 732 956 831 q 918 598 956 651 q 806 513 881 544 l 294 294 q 260 267 272 285 q 247 225 247 249 q 265 181 247 197 q 317 164 282 164 l 935 164 l 935 0 l 306 0 q 136 53 193 0 q 79 206 79 107 q 117 340 79 286 q 231 425 154 393 l 739 643 q 788 713 788 663 q 770 757 788 740 q 717 774 753 774 l 113 774 l 113 938 l 728 938 z "},"[":{"ha":547,"x_min":114,"x_max":508,"o":"m 508 1243 l 508 1142 l 215 1142 l 215 -265 l 508 -265 l 508 -367 l 114 -367 l 114 1243 l 508 1243 z "},"\\":{"ha":632,"x_min":15,"x_max":617,"o":"m 157 1051 l 617 -294 l 474 -294 l 15 1051 l 157 1051 z "},"]":{"ha":547,"x_min":39,"x_max":433,"o":"m 39 -367 l 39 -265 l 332 -265 l 332 1142 l 39 1142 l 39 1243 l 433 1243 l 433 -367 l 39 -367 z "},"^":{"ha":743,"x_min":71,"x_max":669,"o":"m 181 507 l 71 507 l 268 990 q 306 1038 282 1024 q 371 1051 331 1051 q 435 1038 411 1051 q 474 990 460 1024 l 669 510 l 560 510 l 386 944 q 371 954 381 954 q 356 944 360 954 l 181 507 z "},"_":{"ha":714,"x_min":0,"x_max":719,"o":"m 719 -189 l 719 -294 l 0 -294 l 0 -189 l 719 -189 z "},"`":{"ha":478,"x_min":117,"x_max":436,"o":"m 281 1079 l 436 781 l 289 781 l 117 1079 l 281 1079 z "},"a":{"ha":933,"x_min":90,"x_max":831,"o":"m 575 733 q 692 715 643 733 q 772 665 740 697 q 817 588 803 632 q 831 492 831 543 l 831 147 q 824 79 831 107 q 801 34 818 51 q 755 8 785 17 q 679 0 725 0 l 336 0 q 148 60 206 0 q 90 224 90 119 q 103 313 90 274 q 146 378 117 351 q 222 420 175 406 q 338 435 269 435 l 686 435 l 686 490 q 660 563 686 533 q 574 592 635 592 l 135 592 l 135 733 l 575 733 m 646 143 q 686 181 686 143 l 686 318 l 340 318 q 258 295 282 318 q 235 232 235 272 q 258 167 235 192 q 338 143 282 143 l 646 143 z "},"b":{"ha":965,"x_min":106,"x_max":894,"o":"m 253 1051 l 253 733 l 578 733 q 809 642 724 733 q 894 367 894 551 q 809 90 894 181 q 578 0 724 0 l 375 0 q 174 77 242 0 q 106 314 106 154 l 106 1051 l 253 1051 m 253 592 l 253 321 q 290 185 253 226 q 418 143 328 143 l 563 143 q 702 195 658 143 q 746 367 746 247 q 702 539 746 486 q 563 592 658 592 l 253 592 z "},"c":{"ha":836,"x_min":71,"x_max":767,"o":"m 767 733 l 767 592 l 403 592 q 263 539 307 592 q 219 367 219 486 q 263 195 219 247 q 403 143 307 143 l 767 143 l 767 0 l 389 0 q 156 90 242 0 q 71 367 71 181 q 156 643 71 553 q 389 733 242 733 l 767 733 z "},"d":{"ha":965,"x_min":71,"x_max":861,"o":"m 861 1051 l 861 314 q 792 77 861 154 q 592 0 724 0 l 389 0 q 156 90 242 0 q 71 367 71 181 q 156 643 71 553 q 389 733 242 733 l 713 733 l 713 1051 l 861 1051 m 549 143 q 675 185 638 143 q 713 321 713 226 l 713 592 l 403 592 q 263 539 307 592 q 219 367 219 486 q 263 195 219 247 q 403 143 307 143 l 549 143 z "},"e":{"ha":906,"x_min":90,"x_max":831,"o":"m 583 733 q 772 674 714 733 q 831 508 831 615 q 774 352 831 407 q 582 297 717 297 l 233 297 l 233 244 q 259 172 233 200 q 346 143 285 143 l 794 143 l 794 0 l 346 0 q 228 18 276 0 q 149 69 181 36 q 104 145 118 101 q 90 242 90 189 l 90 492 q 104 588 90 543 q 149 665 118 632 q 228 715 181 697 q 346 733 276 733 l 583 733 m 233 413 l 578 413 q 662 436 638 413 q 686 500 686 460 q 661 567 686 542 q 582 592 636 592 l 346 592 q 259 563 285 592 q 233 490 233 533 l 233 413 z "},"f":{"ha":521,"x_min":32,"x_max":483,"o":"m 132 733 l 132 799 q 144 919 132 871 q 183 997 157 968 q 251 1039 210 1026 q 349 1051 292 1051 l 481 1051 l 481 917 l 379 917 q 303 893 326 917 q 281 807 281 869 l 281 733 l 483 733 l 483 592 l 281 592 l 281 0 l 132 0 l 132 592 l 32 592 l 32 733 l 132 733 z "},"g":{"ha":961,"x_min":71,"x_max":861,"o":"m 592 733 q 792 656 724 733 q 861 419 861 579 l 861 -3 q 847 -136 861 -81 q 799 -226 832 -192 q 713 -277 767 -261 q 583 -293 660 -293 l 147 -293 l 147 -151 l 567 -151 q 681 -117 649 -151 q 713 -3 713 -82 l 713 31 l 389 31 q 156 117 242 31 q 71 383 71 204 q 156 647 71 561 q 389 733 242 733 l 592 733 m 219 378 q 263 215 219 265 q 403 164 307 164 l 713 164 l 713 421 q 675 551 713 511 q 549 592 638 592 l 403 592 q 263 541 307 592 q 219 378 219 490 z "},"h":{"ha":982,"x_min":106,"x_max":881,"o":"m 253 1051 l 253 733 l 511 733 q 789 649 697 733 q 881 413 881 564 l 881 0 l 732 0 l 732 413 q 679 544 732 497 q 511 592 626 592 l 253 592 l 253 0 l 106 0 l 106 1051 l 253 1051 z "},"i":{"ha":358,"x_min":106,"x_max":254,"o":"m 106 0 m 253 733 l 253 0 l 106 0 l 106 733 l 253 733 m 254 1010 l 254 839 l 106 839 l 106 1010 l 254 1010 z "},"j":{"ha":375,"x_min":-75,"x_max":269,"o":"m 0 0 m 269 733 l 269 -42 q 257 -162 269 -114 q 218 -240 244 -211 q 151 -282 192 -269 q 54 -294 110 -294 l -75 -294 l -75 -153 l 21 -153 q 98 -129 75 -153 q 121 -43 121 -106 l 121 733 l 269 733 m 269 1010 l 269 839 l 121 839 l 121 1010 l 269 1010 z "},"k":{"ha":836,"x_min":106,"x_max":810,"o":"m 253 1051 l 253 429 l 321 429 q 392 431 364 429 q 440 442 421 433 q 474 467 460 450 q 504 513 488 483 l 626 733 l 786 733 l 658 503 q 601 423 631 454 q 528 372 572 392 q 613 323 581 357 q 678 231 644 289 l 810 0 l 644 0 l 522 217 q 490 263 506 246 q 453 290 475 281 q 401 302 432 299 q 321 306 369 306 l 253 306 l 253 0 l 106 0 l 106 1051 l 253 1051 z "},"l":{"ha":358,"x_min":106,"x_max":253,"o":"m 253 1051 l 253 0 l 106 0 l 106 1051 l 253 1051 z "},"m":{"ha":1433,"x_min":106,"x_max":1333,"o":"m 963 733 q 1242 649 1150 733 q 1333 413 1333 565 l 1333 0 l 1185 0 l 1185 413 q 1133 546 1185 500 q 964 592 1081 592 l 792 592 l 792 0 l 643 0 l 643 592 l 271 592 q 253 571 253 592 l 253 0 l 106 0 l 106 619 q 129 709 106 685 q 208 733 153 733 l 963 733 z "},"n":{"ha":982,"x_min":106,"x_max":881,"o":"m 511 733 q 790 649 699 733 q 881 413 881 565 l 881 0 l 732 0 l 732 413 q 680 546 732 500 q 511 592 628 592 l 271 592 q 253 571 253 592 l 253 0 l 106 0 l 106 619 q 129 709 106 685 q 208 733 153 733 l 511 733 z "},"o":{"ha":932,"x_min":71,"x_max":861,"o":"m 543 733 q 775 642 689 733 q 861 367 861 551 q 775 90 861 181 q 543 0 689 0 l 389 0 q 156 90 242 0 q 71 367 71 181 q 156 643 71 553 q 389 733 242 733 l 543 733 m 403 592 q 263 539 307 592 q 219 367 219 486 q 263 195 219 247 q 403 143 307 143 l 529 143 q 669 195 625 143 q 713 367 713 247 q 669 539 713 486 q 529 592 625 592 l 403 592 z "},"p":{"ha":963,"x_min":103,"x_max":892,"o":"m 575 733 q 806 642 721 733 q 892 367 892 551 q 806 90 892 181 q 575 0 721 0 l 250 0 l 250 -294 l 103 -294 l 103 419 q 171 656 103 579 q 372 733 239 733 l 575 733 m 250 143 l 560 143 q 699 195 656 143 q 743 367 743 247 q 699 539 743 486 q 560 592 656 592 l 415 592 q 288 550 325 592 q 250 413 250 508 l 250 143 z "},"q":{"ha":963,"x_min":71,"x_max":861,"o":"m 592 733 q 792 656 724 733 q 861 419 861 579 l 861 -294 l 713 -294 l 713 0 l 389 0 q 156 90 242 0 q 71 367 71 181 q 156 643 71 553 q 389 733 242 733 l 592 733 m 219 367 q 263 195 219 247 q 403 143 307 143 l 713 143 l 713 413 q 675 550 713 508 q 549 592 638 592 l 403 592 q 263 539 307 592 q 219 367 219 486 z "},"r":{"ha":643,"x_min":104,"x_max":604,"o":"m 604 733 l 604 592 l 346 592 q 251 497 251 592 l 251 0 l 104 0 l 104 519 q 149 682 104 631 q 303 733 194 733 l 604 733 z "},"s":{"ha":814,"x_min":71,"x_max":746,"o":"m 717 733 l 717 592 l 311 592 q 238 571 260 592 q 215 508 215 550 q 237 449 215 469 q 319 429 258 429 l 492 429 q 617 413 568 429 q 695 368 667 396 q 735 303 724 340 q 746 222 746 265 q 733 133 746 174 q 690 63 719 92 q 615 17 661 33 q 506 0 569 0 l 79 0 l 79 143 l 506 143 q 579 162 557 143 q 601 224 601 181 q 577 287 601 268 q 497 306 553 306 l 324 306 q 199 323 247 306 q 122 370 150 340 q 82 439 93 400 q 71 519 71 478 q 126 676 71 618 q 310 733 182 733 l 717 733 z "},"t":{"ha":521,"x_min":32,"x_max":483,"o":"m 132 733 l 132 907 l 281 907 l 281 733 l 483 733 l 483 592 l 281 592 l 281 244 q 303 158 281 182 q 379 135 326 135 l 481 135 l 481 0 l 349 0 q 251 13 292 0 q 183 54 210 25 q 144 132 157 83 q 132 253 132 181 l 132 592 l 32 592 l 32 733 l 132 733 z "},"u":{"ha":975,"x_min":101,"x_max":874,"o":"m 250 733 l 250 294 q 297 186 250 229 q 431 143 343 143 l 550 143 q 683 186 638 143 q 729 294 729 229 l 729 733 l 874 733 l 874 289 q 853 172 874 225 q 793 81 833 119 q 694 22 753 43 q 556 0 635 0 l 419 0 q 281 22 340 0 q 182 81 222 43 q 122 172 142 119 q 101 289 101 225 l 101 733 l 250 733 z "},"v":{"ha":940,"x_min":26,"x_max":914,"o":"m 182 733 l 426 144 q 463 122 435 122 q 501 144 492 122 l 756 733 l 914 733 l 631 79 q 566 5 607 26 q 463 -17 525 -17 q 358 6 399 -17 q 296 79 317 28 l 26 733 l 182 733 z "},"w":{"ha":1357,"x_min":42,"x_max":1315,"o":"m 201 733 l 267 161 q 281 126 269 138 q 319 114 293 114 q 356 124 344 114 q 374 154 368 135 l 478 599 q 543 710 494 672 q 679 747 592 747 q 813 710 767 747 q 875 599 858 672 l 974 154 q 1029 114 982 114 q 1065 126 1054 114 q 1079 161 1076 138 l 1156 733 l 1315 733 l 1233 153 q 1175 30 1222 76 q 1028 -17 1128 -17 q 894 21 942 -17 q 831 135 847 58 l 732 581 q 713 608 728 600 q 678 617 699 617 q 624 581 632 617 l 519 135 q 453 21 501 58 q 317 -17 404 -17 q 230 -4 265 -17 q 172 31 194 8 q 136 84 149 53 q 118 153 124 115 l 42 733 l 201 733 z "},"x":{"ha":946,"x_min":26,"x_max":919,"o":"m 236 733 l 479 468 l 732 733 l 915 733 l 571 368 l 919 0 l 732 0 l 474 282 l 210 0 l 26 0 l 383 382 l 50 733 l 236 733 z "},"y":{"ha":899,"x_min":26,"x_max":872,"o":"m 872 733 l 431 -294 l 272 -294 l 410 26 q 319 47 347 26 q 272 117 290 68 l 26 733 l 182 733 l 403 188 q 418 163 410 168 q 447 157 426 157 l 467 157 l 715 733 l 872 733 z "},"z":{"ha":867,"x_min":71,"x_max":797,"o":"m 608 733 q 751 688 704 733 q 797 565 797 642 q 764 453 797 497 q 672 389 731 410 l 251 236 q 213 186 213 221 q 268 142 213 142 l 782 142 l 782 0 l 260 0 q 117 46 164 0 q 71 168 71 92 q 101 276 71 231 q 196 346 132 322 l 618 497 q 649 519 642 506 q 657 549 657 533 q 600 592 657 592 l 97 592 l 97 733 l 608 733 z "},"{":{"ha":547,"x_min":74,"x_max":508,"o":"m 508 1243 l 508 1142 l 461 1142 q 365 1112 394 1142 q 336 1015 336 1082 l 336 617 q 315 503 336 546 q 263 438 294 460 q 315 374 294 417 q 336 260 336 332 l 336 -139 q 365 -235 336 -206 q 461 -265 394 -265 l 508 -265 l 508 -367 l 461 -367 q 289 -316 340 -367 q 238 -142 238 -265 l 238 260 q 210 360 238 332 q 144 388 182 388 l 74 388 l 74 489 l 144 489 q 180 495 163 489 q 210 516 197 501 q 230 556 222 531 q 238 617 238 581 l 238 1018 q 289 1193 238 1143 q 461 1243 340 1243 l 508 1243 z "},"|":{"ha":401,"x_min":150,"x_max":251,"o":"m 251 1107 l 251 -231 l 150 -231 l 150 1107 l 251 1107 z "},"}":{"ha":547,"x_min":39,"x_max":474,"o":"m 39 -367 l 39 -265 l 86 -265 q 182 -235 153 -265 q 211 -139 211 -206 l 211 260 q 232 374 211 331 q 285 439 253 417 q 232 502 253 460 q 211 617 211 544 l 211 1015 q 182 1112 211 1082 q 86 1142 153 1142 l 39 1142 l 39 1243 l 86 1243 q 258 1192 207 1243 q 310 1018 310 1142 l 310 617 q 317 556 310 581 q 338 516 325 531 q 367 495 350 501 q 403 489 383 489 l 474 489 l 474 388 l 403 388 q 338 360 365 388 q 310 260 310 332 l 310 -142 q 258 -317 310 -267 q 86 -367 207 -367 l 39 -367 z "},"~":{"ha":860,"x_min":56,"x_max":803,"o":"m 56 496 q 124 554 83 532 q 231 576 165 576 q 334 559 286 576 q 444 511 382 542 q 535 474 492 490 q 632 458 579 458 q 720 478 682 458 q 803 553 758 499 l 803 438 q 735 380 776 403 q 628 357 693 357 q 574 362 600 357 q 524 375 549 367 q 472 395 499 383 q 414 422 444 407 q 323 460 367 444 q 228 476 279 476 q 138 456 176 476 q 56 381 100 436 l 56 496 z "}," ":{"ha":371,"x_min":0,"x_max":0,"o":""},"¡":{"ha":325,"x_min":79,"x_max":251,"o":"m 79 -231 l 101 403 l 228 403 l 251 -231 l 79 -231 m 86 544 l 86 733 l 244 733 l 244 544 l 86 544 z "},"¢":{"ha":861,"x_min":82,"x_max":778,"o":"m 443 824 l 443 1019 l 546 1019 l 546 824 l 778 824 l 778 682 l 414 682 q 274 629 318 682 q 231 456 231 576 q 274 285 231 338 q 414 233 318 233 l 778 233 l 778 90 l 546 90 l 546 -82 l 443 -82 l 443 90 l 400 90 q 167 181 253 90 q 82 456 82 271 q 167 733 82 643 q 400 824 253 824 l 443 824 z "},"£":{"ha":903,"x_min":53,"x_max":803,"o":"m 221 542 l 221 614 q 240 744 221 685 q 301 846 260 803 q 409 913 343 889 q 568 938 475 938 l 800 938 l 800 774 l 579 774 q 486 761 524 774 q 426 727 449 749 q 395 676 404 706 q 386 613 386 646 l 386 542 l 794 542 l 794 418 l 386 418 l 386 164 l 803 164 l 803 0 l 53 0 l 53 164 l 221 164 l 221 418 l 53 418 l 53 542 l 221 542 z "},"¤":{"ha":913,"x_min":60,"x_max":847,"o":"m 496 781 q 649 744 585 781 l 775 871 l 847 800 l 721 674 q 769 476 769 600 q 722 279 769 354 l 846 156 l 775 83 l 649 210 q 496 175 588 175 l 413 175 q 258 210 319 175 l 132 85 l 61 156 l 185 279 q 138 476 138 354 q 185 674 138 601 l 60 799 l 132 871 l 258 744 q 413 781 322 781 l 496 781 m 408 678 q 280 631 319 678 q 240 478 240 583 q 280 325 240 372 q 408 278 319 278 l 500 278 q 628 325 589 278 q 667 478 667 372 q 627 631 667 583 q 500 678 588 678 l 408 678 z "},"¥":{"ha":957,"x_min":18,"x_max":939,"o":"m 217 938 l 479 536 l 744 938 l 939 938 l 594 451 l 879 451 l 879 367 l 561 367 l 561 233 l 879 233 l 879 149 l 561 149 l 561 0 l 396 0 l 396 149 l 78 149 l 78 233 l 396 233 l 396 367 l 78 367 l 78 451 l 363 451 l 18 938 l 217 938 z "},"¦":{"ha":401,"x_min":150,"x_max":251,"o":"m 251 1107 l 251 532 l 150 532 l 150 1107 l 251 1107 m 251 344 l 251 -231 l 150 -231 l 150 344 l 251 344 z "},"§":{"ha":921,"x_min":58,"x_max":849,"o":"m 814 938 l 814 796 l 326 796 q 233 768 261 796 q 206 692 206 740 q 231 613 206 644 q 311 582 256 582 l 550 582 q 679 540 642 582 q 717 411 717 499 l 717 208 q 817 121 786 182 q 849 -18 849 60 q 833 -116 849 -72 q 786 -192 818 -160 q 703 -241 754 -224 q 581 -258 651 -258 l 93 -258 l 93 -117 l 581 -117 q 673 -89 644 -117 q 701 -12 701 -61 q 676 66 701 35 q 596 97 650 97 l 357 97 q 228 139 265 97 q 190 268 190 181 l 190 469 q 90 557 121 496 q 58 697 58 618 q 74 795 58 751 q 121 871 89 839 q 203 920 153 903 q 325 938 254 938 l 814 938 m 317 454 l 317 300 q 335 244 317 263 q 393 225 353 225 l 590 225 l 590 379 q 572 435 590 417 q 513 454 554 454 l 317 454 z "},"¨":{"ha":636,"x_min":75,"x_max":557,"o":"m 224 1010 l 224 839 l 75 839 l 75 1010 l 224 1010 m 557 1010 l 557 839 l 408 839 l 408 1010 l 557 1010 z "},"©":{"ha":1133,"x_min":79,"x_max":1054,"o":"m 631 936 q 945 820 836 936 q 1054 467 1054 704 q 945 115 1054 231 q 631 -1 836 -1 l 503 -1 q 188 115 297 -1 q 79 467 79 231 q 188 820 79 704 q 503 936 297 936 l 631 936 m 503 844 q 256 752 342 844 q 169 467 169 660 q 256 183 169 275 q 503 90 342 90 l 631 90 q 877 183 792 90 q 963 467 963 275 q 877 752 963 660 q 631 844 792 844 l 503 844 m 738 722 l 738 636 l 546 636 q 441 598 474 636 q 408 474 408 560 q 440 351 408 389 q 546 313 472 313 l 738 313 l 738 226 l 546 226 q 378 288 436 226 q 321 474 321 349 q 379 661 321 600 q 546 722 438 722 l 738 722 z "},"ª":{"ha":658,"x_min":81,"x_max":572,"o":"m 401 938 q 533 891 494 938 q 572 772 572 844 l 572 543 q 551 461 572 486 q 465 436 531 436 l 242 436 q 118 476 156 436 q 81 586 81 515 q 117 691 81 654 q 243 728 153 728 l 474 728 l 474 771 q 457 820 474 800 q 401 840 440 840 l 111 840 l 111 938 l 401 938 m 443 533 q 474 565 474 533 l 474 649 l 244 649 q 179 592 179 649 q 194 549 179 565 q 243 533 210 533 l 443 533 z "},"«":{"ha":583,"x_min":42,"x_max":542,"o":"m 42 0 m 542 758 l 371 404 q 364 379 364 393 q 371 354 364 368 l 542 0 l 443 0 l 286 317 q 274 379 274 343 q 286 442 274 414 l 443 758 l 542 758 m 310 758 l 139 404 q 132 379 132 393 q 139 354 132 368 l 310 0 l 211 0 l 54 317 q 42 379 42 343 q 54 442 42 414 l 211 758 l 310 758 z "},"¬":{"ha":860,"x_min":56,"x_max":803,"o":"m 803 543 l 803 0 l 701 0 l 701 442 l 56 442 l 56 543 l 803 543 z "},"­":{"ha":576,"x_min":40,"x_max":536,"o":"m 40 369 m 536 511 l 536 369 l 40 369 l 40 511 l 536 511 z "},"®":{"ha":1133,"x_min":79,"x_max":1054,"o":"m 631 936 q 945 820 836 936 q 1054 467 1054 704 q 945 115 1054 231 q 631 -1 836 -1 l 503 -1 q 188 115 297 -1 q 79 467 79 231 q 188 820 79 704 q 503 936 297 936 l 631 936 m 503 844 q 256 752 342 844 q 169 467 169 660 q 256 183 169 275 q 503 90 342 90 l 631 90 q 877 183 792 90 q 963 467 963 275 q 877 752 963 660 q 631 844 792 844 l 503 844 m 624 726 q 696 715 665 726 q 746 683 726 703 q 774 635 765 663 q 783 578 783 608 q 759 488 783 532 q 678 429 735 444 l 793 231 l 697 231 l 583 422 l 454 422 q 442 410 442 422 l 442 231 l 356 231 l 356 426 q 374 488 356 469 q 433 506 393 506 l 626 506 q 680 526 664 506 q 696 575 696 547 q 679 621 696 601 q 626 640 663 640 l 354 640 l 354 726 l 624 726 z "},"¯":{"ha":796,"x_min":75,"x_max":713,"o":"m 713 996 l 713 872 l 75 872 l 75 996 l 713 996 z "},"°":{"ha":540,"x_min":47,"x_max":506,"o":"m 321 954 q 456 900 407 954 q 506 733 506 846 q 456 567 506 621 q 321 513 407 513 l 231 513 q 96 567 144 513 q 47 733 47 621 q 96 900 47 846 q 231 954 144 954 l 321 954 m 239 867 q 161 835 185 867 q 138 733 138 804 q 161 632 138 663 q 239 601 185 601 l 313 601 q 390 632 365 601 q 414 733 414 663 q 390 835 414 804 q 313 867 365 867 l 239 867 z "},"±":{"ha":860,"x_min":56,"x_max":803,"o":"m 56 25 m 481 939 l 481 614 l 803 614 l 803 513 l 481 513 l 481 192 l 378 192 l 378 513 l 56 513 l 56 614 l 378 614 l 378 939 l 481 939 m 803 126 l 803 25 l 56 25 l 56 126 l 803 126 z "},"²":{"ha":547,"x_min":40,"x_max":508,"o":"m 40 422 m 353 938 q 468 901 428 938 q 508 794 508 865 q 480 701 508 736 q 388 651 451 667 l 174 603 q 145 588 154 599 q 136 549 136 578 l 136 531 q 147 518 136 518 l 494 518 l 494 422 l 90 422 q 40 471 40 422 l 40 542 q 66 646 40 613 q 154 693 92 679 l 369 743 q 406 762 397 750 q 414 792 414 774 q 401 829 414 817 q 354 842 389 842 l 57 842 l 57 938 l 353 938 z "},"³":{"ha":547,"x_min":57,"x_max":490,"o":"m 57 422 m 324 938 q 451 899 414 938 q 488 800 488 860 q 424 681 488 711 q 490 560 490 647 q 453 462 490 501 q 325 422 415 422 l 57 422 l 57 518 l 325 518 q 376 533 361 518 q 390 579 390 547 q 376 622 390 608 q 324 636 363 636 l 158 636 l 158 724 l 322 724 q 375 738 363 724 q 388 782 388 753 q 374 828 388 814 q 324 842 361 842 l 57 842 l 57 938 l 324 938 z "},"´":{"ha":478,"x_min":35,"x_max":354,"o":"m 354 1079 l 181 781 l 35 781 l 190 1079 l 354 1079 z "},"¶":{"ha":1018,"x_min":63,"x_max":908,"o":"m 750 1051 q 873 1010 838 1051 q 908 885 908 968 l 908 -297 l 782 -297 l 782 840 q 765 891 782 872 q 713 910 749 910 l 346 910 q 242 877 274 910 q 210 789 210 844 q 238 701 210 736 q 329 665 267 665 l 411 665 q 528 626 494 665 q 563 513 563 588 l 563 -294 l 436 -294 l 436 482 q 422 522 436 507 q 375 538 407 538 l 301 538 q 194 558 239 538 q 119 613 149 578 q 76 696 90 649 q 63 796 63 743 q 78 900 63 853 q 128 981 94 947 q 217 1033 163 1014 q 346 1051 271 1051 l 750 1051 z "},"·":{"ha":336,"x_min":89,"x_max":247,"o":"m 89 350 m 247 539 l 247 350 l 89 350 l 89 539 l 247 539 z "},"¸":{"ha":374,"x_min":75,"x_max":290,"o":"m 290 -33 l 290 -182 q 121 -367 290 -367 l 75 -367 l 75 -256 l 92 -256 q 143 -197 143 -256 l 143 -33 l 290 -33 z "},"¹":{"ha":547,"x_min":142,"x_max":388,"o":"m 142 422 m 256 938 q 322 931 296 938 q 362 908 347 924 q 382 867 376 893 q 388 803 388 840 l 388 422 l 293 422 l 293 796 q 284 833 293 824 q 247 842 275 842 l 142 842 l 142 938 l 256 938 z "},"º":{"ha":665,"x_min":69,"x_max":593,"o":"m 383 938 q 537 876 481 938 q 593 686 593 814 q 537 497 593 558 q 383 436 481 436 l 279 436 q 126 497 183 436 q 69 686 69 558 q 126 876 69 814 q 279 938 183 938 l 383 938 m 289 840 q 199 804 228 840 q 171 686 171 768 q 199 569 171 606 q 289 533 228 533 l 374 533 q 463 569 436 533 q 490 686 490 606 q 463 804 490 768 q 374 840 436 840 l 289 840 z "},"»":{"ha":583,"x_min":42,"x_max":542,"o":"m 42 0 m 371 758 l 529 442 q 542 379 542 414 q 538 347 542 363 q 529 317 535 331 l 371 0 l 274 0 l 444 354 q 449 367 447 361 q 450 379 450 372 q 444 404 450 390 l 274 758 l 371 758 m 139 758 l 297 442 q 310 379 310 414 q 306 347 310 363 q 297 317 303 331 l 139 0 l 42 0 l 213 354 q 217 367 215 361 q 218 379 218 372 q 213 404 218 390 l 42 758 l 139 758 z "},"¼":{"ha":1201,"x_min":107,"x_max":1088,"o":"m 107 0 m 989 938 l 256 0 l 143 0 l 879 938 l 989 938 m 221 938 q 287 931 261 938 q 327 908 313 924 q 347 867 342 893 q 353 803 353 840 l 353 422 l 258 422 l 258 796 q 249 833 258 824 q 213 842 240 842 l 107 842 l 107 938 l 221 938 m 818 457 q 867 501 842 488 q 938 515 893 515 l 996 515 q 1066 492 1044 515 q 1088 422 1088 468 l 1088 0 l 992 0 l 992 111 l 758 111 q 667 133 693 111 q 640 199 640 156 q 649 246 640 228 q 672 282 657 264 l 818 457 m 754 236 q 746 215 746 228 q 775 196 746 196 l 992 196 l 992 400 q 975 419 992 419 l 935 419 q 910 416 919 419 q 892 401 901 413 l 754 236 z "},"½":{"ha":1201,"x_min":69,"x_max":1131,"o":"m 69 0 m 951 938 l 218 0 l 106 0 l 842 938 l 951 938 m 183 938 q 249 931 224 938 q 290 908 275 924 q 310 867 304 893 q 315 803 315 840 l 315 422 l 221 422 l 221 796 q 212 833 221 824 q 175 842 203 842 l 69 842 l 69 938 l 183 938 m 975 515 q 1090 479 1050 515 q 1131 372 1131 443 q 1102 279 1131 314 q 1010 229 1074 244 l 796 181 q 767 166 776 176 q 758 126 758 156 l 758 108 q 769 96 758 96 l 1117 96 l 1117 0 l 713 0 q 663 49 663 0 l 663 119 q 688 224 663 190 q 776 271 714 257 l 992 321 q 1028 340 1019 328 q 1036 369 1036 351 q 1024 407 1036 394 q 976 419 1011 419 l 679 419 l 679 515 l 975 515 z "},"¾":{"ha":1201,"x_min":58,"x_max":1138,"o":"m 58 0 m 1039 938 l 306 0 l 193 0 l 929 938 l 1039 938 m 868 457 q 917 501 892 488 q 988 515 943 515 l 1046 515 q 1116 492 1094 515 q 1138 422 1138 468 l 1138 0 l 1042 0 l 1042 111 l 808 111 q 717 133 743 111 q 690 199 690 156 q 699 246 690 228 q 722 282 707 264 l 868 457 m 804 236 q 796 215 796 228 q 825 196 796 196 l 1042 196 l 1042 400 q 1025 419 1042 419 l 985 419 q 960 416 969 419 q 942 401 951 413 l 804 236 m 325 938 q 452 899 415 938 q 489 800 489 860 q 425 681 489 711 q 492 560 492 647 q 454 462 492 501 q 326 422 417 422 l 58 422 l 58 518 l 326 518 q 377 533 363 518 q 392 579 392 547 q 378 622 392 608 q 325 636 364 636 l 160 636 l 160 724 l 324 724 q 376 738 364 724 q 389 782 389 753 q 376 828 389 814 q 325 842 363 842 l 58 842 l 58 938 l 325 938 z "},"¿":{"ha":790,"x_min":40,"x_max":740,"o":"m 310 -231 q 186 -213 238 -231 q 103 -164 135 -196 q 56 -87 71 -132 q 40 11 40 -43 q 53 106 40 61 q 94 185 67 151 q 165 239 122 219 q 267 258 207 258 l 347 258 q 399 276 383 258 q 414 324 414 293 l 414 403 l 540 403 l 540 293 q 505 171 540 213 q 385 129 469 129 l 294 129 q 212 98 238 129 q 186 18 186 67 q 215 -60 186 -31 q 310 -89 244 -89 l 740 -89 l 740 -231 l 310 -231 m 397 544 l 397 733 l 556 733 l 556 544 l 397 544 z "},"À":{"ha":1089,"x_min":26,"x_max":1064,"o":"m 26 0 m 207 0 l 26 0 l 356 833 q 430 927 382 900 q 553 954 478 954 q 674 927 626 954 q 747 833 722 900 l 1064 0 l 882 0 l 597 754 q 551 786 585 786 q 504 754 518 786 l 207 0 m 535 1283 l 690 985 l 543 985 l 371 1283 l 535 1283 z "},"Á":{"ha":1089,"x_min":26,"x_max":1064,"o":"m 26 0 m 207 0 l 26 0 l 356 833 q 430 927 382 900 q 553 954 478 954 q 674 927 626 954 q 747 833 722 900 l 1064 0 l 882 0 l 597 754 q 551 786 585 786 q 504 754 518 786 l 207 0 m 722 1283 l 549 985 l 403 985 l 558 1283 l 722 1283 z "},"Â":{"ha":1089,"x_min":26,"x_max":1064,"o":"m 26 0 m 207 0 l 26 0 l 356 833 q 430 927 382 900 q 553 954 478 954 q 674 927 626 954 q 747 833 722 900 l 1064 0 l 882 0 l 597 754 q 551 786 585 786 q 504 754 518 786 l 207 0 m 396 1213 q 454 1267 415 1251 q 549 1283 493 1283 q 641 1267 603 1283 q 699 1213 679 1250 l 825 985 l 668 985 l 575 1158 q 547 1171 568 1171 q 519 1158 526 1171 l 428 985 l 271 985 l 396 1213 z "},"Ã":{"ha":1089,"x_min":26,"x_max":1064,"o":"m 26 0 m 207 0 l 26 0 l 356 833 q 430 927 382 900 q 553 954 478 954 q 674 927 626 954 q 747 833 722 900 l 1064 0 l 882 0 l 597 754 q 551 786 585 786 q 504 754 518 786 l 207 0 m 864 1200 l 864 1076 l 226 1076 l 226 1200 l 864 1200 z "},"Ä":{"ha":1089,"x_min":26,"x_max":1064,"o":"m 26 0 m 207 0 l 26 0 l 356 833 q 430 927 382 900 q 553 954 478 954 q 674 927 626 954 q 747 833 722 900 l 1064 0 l 882 0 l 597 754 q 551 786 585 786 q 504 754 518 786 l 207 0 m 456 1214 l 456 1043 l 307 1043 l 307 1214 l 456 1214 m 789 1214 l 789 1043 l 640 1043 l 640 1214 l 789 1214 z "},"Å":{"ha":1089,"x_min":26,"x_max":1064,"o":"m 26 0 m 207 0 l 26 0 l 356 833 q 430 927 382 900 q 553 954 478 954 q 674 927 626 954 q 747 833 722 900 l 1064 0 l 882 0 l 597 754 q 551 786 585 786 q 504 754 518 786 l 207 0 m 593 1283 q 694 1244 657 1283 q 732 1124 732 1206 q 694 1003 732 1043 q 593 964 657 964 l 497 964 q 395 1003 432 964 q 358 1124 358 1043 q 395 1244 358 1206 q 497 1283 432 1283 l 593 1283 m 506 1213 q 451 1192 468 1213 q 435 1124 435 1171 q 451 1057 435 1078 q 506 1036 468 1036 l 583 1036 q 637 1057 619 1036 q 654 1124 654 1078 q 637 1192 654 1171 q 583 1213 619 1213 l 506 1213 z "},"Æ":{"ha":1403,"x_min":26,"x_max":1303,"o":"m 203 0 l 26 0 l 325 781 q 358 853 339 821 q 405 908 378 886 q 469 942 432 931 q 554 954 506 954 q 654 938 613 954 l 1301 938 l 1301 774 l 768 774 q 769 762 768 767 q 769 750 769 757 l 769 544 l 1294 544 l 1294 396 l 769 396 l 769 319 q 778 258 769 286 q 810 208 788 229 q 869 176 832 188 q 961 164 906 164 l 1303 164 l 1303 0 l 951 0 q 792 24 858 0 q 685 89 726 47 q 624 189 643 131 q 606 318 606 247 l 606 742 q 591 781 606 767 q 550 796 576 796 q 512 785 526 796 q 490 756 497 774 l 203 0 z "},"Ç":{"ha":947,"x_min":79,"x_max":865,"o":"m 79 0 m 865 938 l 865 774 l 503 774 q 305 702 367 774 q 243 468 243 631 q 304 235 243 307 q 503 164 365 164 l 865 164 l 865 0 l 503 0 q 188 116 297 0 q 79 468 79 232 q 188 822 79 706 q 503 938 297 938 l 865 938 m 628 -33 l 628 -182 q 458 -367 628 -367 l 413 -367 l 413 -256 l 429 -256 q 481 -197 481 -256 l 481 -33 l 628 -33 z "},"È":{"ha":963,"x_min":76,"x_max":864,"o":"m 76 0 m 863 938 l 863 774 l 393 774 q 285 742 318 774 q 251 656 251 710 q 394 544 251 544 l 856 544 l 856 396 l 390 396 q 247 282 247 396 q 282 195 247 226 q 389 164 317 164 l 864 164 l 864 0 l 389 0 q 247 19 306 0 q 149 73 188 39 q 94 154 111 107 q 76 256 76 201 q 111 390 76 336 q 211 471 146 443 q 79 682 79 525 q 97 785 79 738 q 153 866 115 832 q 251 919 192 900 q 393 938 310 938 l 863 938 m 531 1283 l 686 985 l 539 985 l 367 1283 l 531 1283 z "},"É":{"ha":963,"x_min":76,"x_max":864,"o":"m 76 0 m 863 938 l 863 774 l 393 774 q 285 742 318 774 q 251 656 251 710 q 394 544 251 544 l 856 544 l 856 396 l 390 396 q 247 282 247 396 q 282 195 247 226 q 389 164 317 164 l 864 164 l 864 0 l 389 0 q 247 19 306 0 q 149 73 188 39 q 94 154 111 107 q 76 256 76 201 q 111 390 76 336 q 211 471 146 443 q 79 682 79 525 q 97 785 79 738 q 153 866 115 832 q 251 919 192 900 q 393 938 310 938 l 863 938 m 717 1283 l 543 985 l 397 985 l 553 1283 l 717 1283 z "},"Ê":{"ha":963,"x_min":76,"x_max":864,"o":"m 76 0 m 863 938 l 863 774 l 393 774 q 285 742 318 774 q 251 656 251 710 q 394 544 251 544 l 856 544 l 856 396 l 390 396 q 247 282 247 396 q 282 195 247 226 q 389 164 317 164 l 864 164 l 864 0 l 389 0 q 247 19 306 0 q 149 73 188 39 q 94 154 111 107 q 76 256 76 201 q 111 390 76 336 q 211 471 146 443 q 79 682 79 525 q 97 785 79 738 q 153 866 115 832 q 251 919 192 900 q 393 938 310 938 l 863 938 m 385 1213 q 443 1267 404 1251 q 538 1283 482 1283 q 630 1267 592 1283 q 688 1213 668 1250 l 814 985 l 657 985 l 564 1158 q 536 1171 557 1171 q 508 1158 515 1171 l 417 985 l 260 985 l 385 1213 z "},"Ë":{"ha":963,"x_min":76,"x_max":864,"o":"m 76 0 m 863 938 l 863 774 l 393 774 q 285 742 318 774 q 251 656 251 710 q 394 544 251 544 l 856 544 l 856 396 l 390 396 q 247 282 247 396 q 282 195 247 226 q 389 164 317 164 l 864 164 l 864 0 l 389 0 q 247 19 306 0 q 149 73 188 39 q 94 154 111 107 q 76 256 76 201 q 111 390 76 336 q 211 471 146 443 q 79 682 79 525 q 97 785 79 738 q 153 866 115 832 q 251 919 192 900 q 393 938 310 938 l 863 938 m 447 1214 l 447 1043 l 299 1043 l 299 1214 l 447 1214 m 781 1214 l 781 1043 l 632 1043 l 632 1214 l 781 1214 z "},"Ì":{"ha":407,"x_min":38,"x_max":357,"o":"m 38 0 m 294 938 l 294 0 l 131 0 l 131 938 l 294 938 m 201 1283 l 357 985 l 210 985 l 38 1283 l 201 1283 z "},"Í":{"ha":410,"x_min":53,"x_max":372,"o":"m 53 0 m 278 938 l 278 0 l 114 0 l 114 938 l 278 938 m 372 1283 l 199 985 l 53 985 l 208 1283 l 372 1283 z "},"Î":{"ha":497,"x_min":-28,"x_max":526,"o":"m 0 0 m 331 938 l 331 0 l 167 0 l 167 938 l 331 938 m 97 1213 q 156 1267 117 1251 q 250 1283 194 1283 q 342 1267 304 1283 q 400 1213 381 1250 l 526 985 l 369 985 l 276 1158 q 249 1171 269 1171 q 221 1158 228 1171 l 129 985 l -28 985 l 97 1213 z "},"Ï":{"ha":442,"x_min":-21,"x_max":461,"o":"m 0 0 m 308 938 l 308 0 l 144 0 l 144 938 l 308 938 m 128 1214 l 128 1043 l -21 1043 l -21 1214 l 128 1214 m 461 1214 l 461 1043 l 313 1043 l 313 1214 l 461 1214 z "},"Ð":{"ha":1024,"x_min":15,"x_max":944,"o":"m 522 938 q 837 822 729 938 q 944 468 944 707 q 837 115 944 231 q 522 0 729 0 l 192 0 q 114 76 114 0 l 114 396 l 15 396 l 15 544 l 114 544 l 114 861 q 192 938 114 938 l 522 938 m 278 544 l 528 544 l 528 396 l 278 396 l 278 181 q 296 164 278 164 l 522 164 q 719 236 658 164 q 781 469 781 308 q 720 702 781 631 q 522 774 660 774 l 296 774 q 278 757 278 774 l 278 544 z "},"Ñ":{"ha":1221,"x_min":113,"x_max":1110,"o":"m 113 0 m 276 0 l 113 0 l 113 750 q 165 898 113 842 q 328 954 218 954 q 476 908 425 954 q 556 781 526 861 l 829 182 q 851 154 838 165 q 889 143 865 143 q 930 158 915 143 q 944 196 944 172 l 944 938 l 1110 938 l 1110 189 q 1056 40 1110 96 q 894 -17 1003 -17 q 809 -5 846 -17 q 745 30 772 7 q 699 85 718 53 q 665 157 679 117 l 392 756 q 333 796 374 796 q 291 781 306 796 q 276 742 276 767 l 276 0 m 929 1200 l 929 1076 l 292 1076 l 292 1200 l 929 1200 z "},"Ò":{"ha":1133,"x_min":79,"x_max":1054,"o":"m 79 0 m 631 938 q 945 821 836 938 q 1054 467 1054 704 q 945 115 1054 231 q 631 0 836 0 l 503 0 q 188 115 297 0 q 79 467 79 231 q 188 821 79 704 q 503 938 297 938 l 631 938 m 503 774 q 305 701 367 774 q 243 467 243 629 q 304 235 243 306 q 503 164 365 164 l 631 164 q 827 235 765 164 q 889 468 889 307 q 828 701 889 629 q 631 774 767 774 l 503 774 m 553 1283 l 708 985 l 561 985 l 389 1283 l 553 1283 z "},"Ó":{"ha":1133,"x_min":79,"x_max":1054,"o":"m 79 0 m 631 938 q 945 821 836 938 q 1054 467 1054 704 q 945 115 1054 231 q 631 0 836 0 l 503 0 q 188 115 297 0 q 79 467 79 231 q 188 821 79 704 q 503 938 297 938 l 631 938 m 503 774 q 305 701 367 774 q 243 467 243 629 q 304 235 243 306 q 503 164 365 164 l 631 164 q 827 235 765 164 q 889 468 889 307 q 828 701 889 629 q 631 774 767 774 l 503 774 m 743 1283 l 569 985 l 424 985 l 579 1283 l 743 1283 z "},"Ô":{"ha":1133,"x_min":79,"x_max":1054,"o":"m 79 0 m 631 938 q 945 821 836 938 q 1054 467 1054 704 q 945 115 1054 231 q 631 0 836 0 l 503 0 q 188 115 297 0 q 79 467 79 231 q 188 821 79 704 q 503 938 297 938 l 631 938 m 503 774 q 305 701 367 774 q 243 467 243 629 q 304 235 243 306 q 503 164 365 164 l 631 164 q 827 235 765 164 q 889 468 889 307 q 828 701 889 629 q 631 774 767 774 l 503 774 m 414 1213 q 472 1267 433 1251 q 567 1283 511 1283 q 659 1267 621 1283 q 717 1213 697 1250 l 843 985 l 686 985 l 593 1158 q 565 1171 586 1171 q 538 1158 544 1171 l 446 985 l 289 985 l 414 1213 z "},"Õ":{"ha":1133,"x_min":79,"x_max":1054,"o":"m 79 0 m 631 938 q 945 821 836 938 q 1054 467 1054 704 q 945 115 1054 231 q 631 0 836 0 l 503 0 q 188 115 297 0 q 79 467 79 231 q 188 821 79 704 q 503 938 297 938 l 631 938 m 503 774 q 305 701 367 774 q 243 467 243 629 q 304 235 243 306 q 503 164 365 164 l 631 164 q 827 235 765 164 q 889 468 889 307 q 828 701 889 629 q 631 774 767 774 l 503 774 m 885 1200 l 885 1076 l 247 1076 l 247 1200 l 885 1200 z "},"Ö":{"ha":1133,"x_min":79,"x_max":1054,"o":"m 79 0 m 631 938 q 945 821 836 938 q 1054 467 1054 704 q 945 115 1054 231 q 631 0 836 0 l 503 0 q 188 115 297 0 q 79 467 79 231 q 188 821 79 704 q 503 938 297 938 l 631 938 m 503 774 q 305 701 367 774 q 243 467 243 629 q 304 235 243 306 q 503 164 365 164 l 631 164 q 827 235 765 164 q 889 468 889 307 q 828 701 889 629 q 631 774 767 774 l 503 774 m 474 1214 l 474 1043 l 325 1043 l 325 1214 l 474 1214 m 807 1214 l 807 1043 l 658 1043 l 658 1214 l 807 1214 z "},"×":{"ha":860,"x_min":106,"x_max":753,"o":"m 429 540 l 682 790 l 753 719 l 500 467 l 751 217 l 681 144 l 429 396 l 178 146 l 106 217 l 357 467 l 106 719 l 178 790 l 429 540 z "},"Ø":{"ha":1133,"x_min":79,"x_max":1054,"o":"m 631 938 q 707 933 671 938 q 775 919 743 928 l 843 1033 l 961 1033 l 869 881 q 1008 725 961 828 q 1054 467 1054 622 q 945 115 1054 231 q 631 0 836 0 l 503 0 q 358 17 422 0 l 292 -96 l 172 -96 l 263 56 q 79 467 79 163 q 188 821 79 704 q 503 938 297 938 l 631 938 m 503 774 q 305 701 367 774 q 243 467 243 629 q 268 297 243 363 q 347 199 293 231 l 686 769 q 631 774 661 774 l 503 774 m 889 468 q 785 738 889 672 l 447 167 q 474 165 460 165 q 503 164 488 164 l 631 164 q 827 235 765 164 q 889 468 889 307 z "},"Ù":{"ha":1017,"x_min":107,"x_max":911,"o":"m 107 0 m 274 938 l 274 311 q 310 202 274 240 q 429 164 347 164 l 596 164 q 713 202 675 164 q 750 311 750 240 l 750 938 l 911 938 l 911 299 q 835 75 911 150 q 607 0 758 0 l 410 0 q 107 299 107 0 l 107 938 l 274 938 m 496 1283 l 651 985 l 504 985 l 332 1283 l 496 1283 z "},"Ú":{"ha":1017,"x_min":107,"x_max":911,"o":"m 107 0 m 274 938 l 274 311 q 310 202 274 240 q 429 164 347 164 l 596 164 q 713 202 675 164 q 750 311 750 240 l 750 938 l 911 938 l 911 299 q 835 75 911 150 q 607 0 758 0 l 410 0 q 107 299 107 0 l 107 938 l 274 938 m 685 1283 l 511 985 l 365 985 l 521 1283 l 685 1283 z "},"Û":{"ha":1017,"x_min":107,"x_max":911,"o":"m 107 0 m 274 938 l 274 311 q 310 202 274 240 q 429 164 347 164 l 596 164 q 713 202 675 164 q 750 311 750 240 l 750 938 l 911 938 l 911 299 q 835 75 911 150 q 607 0 758 0 l 410 0 q 107 299 107 0 l 107 938 l 274 938 m 356 1213 q 414 1267 375 1251 q 508 1283 453 1283 q 601 1267 563 1283 q 658 1213 639 1250 l 785 985 l 628 985 l 535 1158 q 507 1171 528 1171 q 479 1158 486 1171 l 388 985 l 231 985 l 356 1213 z "},"Ü":{"ha":1017,"x_min":107,"x_max":911,"o":"m 107 0 m 274 938 l 274 311 q 310 202 274 240 q 429 164 347 164 l 596 164 q 713 202 675 164 q 750 311 750 240 l 750 938 l 911 938 l 911 299 q 835 75 911 150 q 607 0 758 0 l 410 0 q 107 299 107 0 l 107 938 l 274 938 m 417 1214 l 417 1043 l 268 1043 l 268 1214 l 417 1214 m 750 1214 l 750 1043 l 601 1043 l 601 1214 l 750 1214 z "},"Ý":{"ha":957,"x_min":18,"x_max":939,"o":"m 18 0 m 217 938 l 479 536 l 744 938 l 939 938 l 561 404 l 561 0 l 396 0 l 396 404 l 18 938 l 217 938 m 654 1283 l 481 985 l 335 985 l 490 1283 l 654 1283 z "},"Þ":{"ha":976,"x_min":113,"x_max":893,"o":"m 276 938 l 276 835 q 333 781 276 781 l 581 781 q 725 753 665 781 q 822 683 785 726 q 876 584 860 639 q 893 474 893 529 q 876 363 893 418 q 822 265 860 308 q 725 195 785 222 q 581 168 665 168 l 333 168 q 276 101 276 168 l 276 0 l 113 0 l 113 132 q 154 281 113 236 q 293 325 196 325 l 586 325 q 651 338 624 325 q 695 370 678 350 q 720 417 713 390 q 728 474 728 444 q 720 530 728 503 q 695 577 713 557 q 651 610 678 597 q 586 622 624 622 l 293 622 q 154 665 196 622 q 113 803 113 707 l 113 938 l 276 938 z "},"ß":{"ha":1186,"x_min":106,"x_max":1115,"o":"m 488 1051 q 653 996 604 1051 q 701 822 701 940 l 701 699 q 763 631 701 631 l 818 631 q 1042 553 969 631 q 1115 315 1115 475 q 1042 76 1115 153 q 818 0 968 0 l 494 0 l 494 143 l 800 143 q 928 183 890 143 q 967 315 967 224 q 929 448 967 407 q 800 489 892 489 l 719 489 q 591 534 629 489 q 553 675 553 579 l 553 807 q 527 891 553 865 q 444 917 501 917 l 374 917 q 281 888 310 917 q 253 783 253 858 l 253 0 l 106 0 l 106 775 q 119 907 106 854 q 163 992 133 960 q 236 1038 192 1024 q 342 1051 281 1051 l 488 1051 z "},"à":{"ha":933,"x_min":90,"x_max":831,"o":"m 90 0 m 575 733 q 692 715 643 733 q 772 665 740 697 q 817 588 803 632 q 831 492 831 543 l 831 147 q 824 79 831 107 q 801 34 818 51 q 755 8 785 17 q 679 0 725 0 l 336 0 q 148 60 206 0 q 90 224 90 119 q 103 313 90 274 q 146 378 117 351 q 222 420 175 406 q 338 435 269 435 l 686 435 l 686 490 q 660 563 686 533 q 574 592 635 592 l 135 592 l 135 733 l 575 733 m 646 143 q 686 181 686 143 l 686 318 l 340 318 q 258 295 282 318 q 235 232 235 272 q 258 167 235 192 q 338 143 282 143 l 646 143 m 461 1079 l 617 781 l 469 781 l 297 1079 l 461 1079 z "},"á":{"ha":933,"x_min":90,"x_max":831,"o":"m 90 0 m 575 733 q 692 715 643 733 q 772 665 740 697 q 817 588 803 632 q 831 492 831 543 l 831 147 q 824 79 831 107 q 801 34 818 51 q 755 8 785 17 q 679 0 725 0 l 336 0 q 148 60 206 0 q 90 224 90 119 q 103 313 90 274 q 146 378 117 351 q 222 420 175 406 q 338 435 269 435 l 686 435 l 686 490 q 660 563 686 533 q 574 592 635 592 l 135 592 l 135 733 l 575 733 m 646 143 q 686 181 686 143 l 686 318 l 340 318 q 258 295 282 318 q 235 232 235 272 q 258 167 235 192 q 338 143 282 143 l 646 143 m 642 1079 l 468 781 l 322 781 l 478 1079 l 642 1079 z "},"â":{"ha":933,"x_min":90,"x_max":831,"o":"m 90 0 m 575 733 q 692 715 643 733 q 772 665 740 697 q 817 588 803 632 q 831 492 831 543 l 831 147 q 824 79 831 107 q 801 34 818 51 q 755 8 785 17 q 679 0 725 0 l 336 0 q 148 60 206 0 q 90 224 90 119 q 103 313 90 274 q 146 378 117 351 q 222 420 175 406 q 338 435 269 435 l 686 435 l 686 490 q 660 563 686 533 q 574 592 635 592 l 135 592 l 135 733 l 575 733 m 646 143 q 686 181 686 143 l 686 318 l 340 318 q 258 295 282 318 q 235 232 235 272 q 258 167 235 192 q 338 143 282 143 l 646 143 m 319 1008 q 378 1063 339 1047 q 472 1079 417 1079 q 565 1063 526 1079 q 622 1008 603 1046 l 749 781 l 592 781 l 499 954 q 471 967 492 967 q 443 954 450 967 l 351 781 l 194 781 l 319 1008 z "},"ã":{"ha":933,"x_min":90,"x_max":831,"o":"m 90 0 m 575 733 q 692 715 643 733 q 772 665 740 697 q 817 588 803 632 q 831 492 831 543 l 831 147 q 824 79 831 107 q 801 34 818 51 q 755 8 785 17 q 679 0 725 0 l 336 0 q 148 60 206 0 q 90 224 90 119 q 103 313 90 274 q 146 378 117 351 q 222 420 175 406 q 338 435 269 435 l 686 435 l 686 490 q 660 563 686 533 q 574 592 635 592 l 135 592 l 135 733 l 575 733 m 646 143 q 686 181 686 143 l 686 318 l 340 318 q 258 295 282 318 q 235 232 235 272 q 258 167 235 192 q 338 143 282 143 l 646 143 m 785 996 l 785 872 l 147 872 l 147 996 l 785 996 z "},"ä":{"ha":933,"x_min":90,"x_max":831,"o":"m 90 0 m 575 733 q 692 715 643 733 q 772 665 740 697 q 817 588 803 632 q 831 492 831 543 l 831 147 q 824 79 831 107 q 801 34 818 51 q 755 8 785 17 q 679 0 725 0 l 336 0 q 148 60 206 0 q 90 224 90 119 q 103 313 90 274 q 146 378 117 351 q 222 420 175 406 q 338 435 269 435 l 686 435 l 686 490 q 660 563 686 533 q 574 592 635 592 l 135 592 l 135 733 l 575 733 m 646 143 q 686 181 686 143 l 686 318 l 340 318 q 258 295 282 318 q 235 232 235 272 q 258 167 235 192 q 338 143 282 143 l 646 143 m 374 1010 l 374 839 l 225 839 l 225 1010 l 374 1010 m 707 1010 l 707 839 l 558 839 l 558 1010 l 707 1010 z "},"å":{"ha":933,"x_min":90,"x_max":831,"o":"m 90 0 m 575 733 q 692 715 643 733 q 772 665 740 697 q 817 588 803 632 q 831 492 831 543 l 831 147 q 824 79 831 107 q 801 34 818 51 q 755 8 785 17 q 679 0 725 0 l 336 0 q 148 60 206 0 q 90 224 90 119 q 103 313 90 274 q 146 378 117 351 q 222 420 175 406 q 338 435 269 435 l 686 435 l 686 490 q 660 563 686 533 q 574 592 635 592 l 135 592 l 135 733 l 575 733 m 646 143 q 686 181 686 143 l 686 318 l 340 318 q 258 295 282 318 q 235 232 235 272 q 258 167 235 192 q 338 143 282 143 l 646 143 m 514 1119 q 615 1081 578 1119 q 653 960 653 1042 q 615 840 653 879 q 514 800 578 800 l 418 800 q 316 840 353 800 q 279 960 279 879 q 316 1081 279 1042 q 418 1119 353 1119 l 514 1119 m 426 1049 q 372 1028 389 1049 q 356 960 356 1007 q 372 893 356 914 q 426 872 389 872 l 504 872 q 558 893 540 872 q 575 960 575 914 q 558 1028 575 1007 q 504 1049 540 1049 l 426 1049 z "},"æ":{"ha":1504,"x_min":90,"x_max":1431,"o":"m 1183 733 q 1372 674 1314 733 q 1431 508 1431 615 q 1374 352 1431 407 q 1182 297 1317 297 l 833 297 l 833 244 q 859 172 833 200 q 946 143 885 143 l 1394 143 l 1394 0 l 946 0 q 799 31 857 0 q 679 0 764 0 l 336 0 q 148 60 206 0 q 90 224 90 119 q 103 313 90 274 q 146 378 117 351 q 222 420 175 406 q 338 435 269 435 l 686 435 l 686 490 q 660 563 686 533 q 574 592 635 592 l 135 592 l 135 733 l 575 733 q 683 718 638 733 q 760 675 729 703 q 837 718 792 703 q 946 733 882 733 l 1183 733 m 833 413 l 1178 413 q 1262 436 1238 413 q 1286 500 1286 460 q 1261 567 1286 542 q 1182 592 1236 592 l 946 592 q 859 563 885 592 q 833 490 833 533 l 833 413 m 646 143 q 686 181 686 143 l 686 318 l 340 318 q 258 295 282 318 q 235 232 235 272 q 258 167 235 192 q 338 143 282 143 l 646 143 z "},"ç":{"ha":836,"x_min":71,"x_max":767,"o":"m 71 0 m 767 733 l 767 592 l 403 592 q 263 539 307 592 q 219 367 219 486 q 263 195 219 247 q 403 143 307 143 l 767 143 l 767 0 l 389 0 q 156 90 242 0 q 71 367 71 181 q 156 643 71 553 q 389 733 242 733 l 767 733 m 564 -33 l 564 -182 q 394 -367 564 -367 l 349 -367 l 349 -256 l 365 -256 q 417 -197 417 -256 l 417 -33 l 564 -33 z "},"è":{"ha":906,"x_min":90,"x_max":831,"o":"m 90 0 m 583 733 q 772 674 714 733 q 831 508 831 615 q 774 352 831 407 q 582 297 717 297 l 233 297 l 233 244 q 259 172 233 200 q 346 143 285 143 l 794 143 l 794 0 l 346 0 q 228 18 276 0 q 149 69 181 36 q 104 145 118 101 q 90 242 90 189 l 90 492 q 104 588 90 543 q 149 665 118 632 q 228 715 181 697 q 346 733 276 733 l 583 733 m 233 413 l 578 413 q 662 436 638 413 q 686 500 686 460 q 661 567 686 542 q 582 592 636 592 l 346 592 q 259 563 285 592 q 233 490 233 533 l 233 413 m 451 1079 l 607 781 l 460 781 l 288 1079 l 451 1079 z "},"é":{"ha":906,"x_min":90,"x_max":831,"o":"m 90 0 m 583 733 q 772 674 714 733 q 831 508 831 615 q 774 352 831 407 q 582 297 717 297 l 233 297 l 233 244 q 259 172 233 200 q 346 143 285 143 l 794 143 l 794 0 l 346 0 q 228 18 276 0 q 149 69 181 36 q 104 145 118 101 q 90 242 90 189 l 90 492 q 104 588 90 543 q 149 665 118 632 q 228 715 181 697 q 346 733 276 733 l 583 733 m 233 413 l 578 413 q 662 436 638 413 q 686 500 686 460 q 661 567 686 542 q 582 592 636 592 l 346 592 q 259 563 285 592 q 233 490 233 533 l 233 413 m 638 1079 l 464 781 l 318 781 l 474 1079 l 638 1079 z "},"ê":{"ha":906,"x_min":90,"x_max":831,"o":"m 90 0 m 583 733 q 772 674 714 733 q 831 508 831 615 q 774 352 831 407 q 582 297 717 297 l 233 297 l 233 244 q 259 172 233 200 q 346 143 285 143 l 794 143 l 794 0 l 346 0 q 228 18 276 0 q 149 69 181 36 q 104 145 118 101 q 90 242 90 189 l 90 492 q 104 588 90 543 q 149 665 118 632 q 228 715 181 697 q 346 733 276 733 l 583 733 m 233 413 l 578 413 q 662 436 638 413 q 686 500 686 460 q 661 567 686 542 q 582 592 636 592 l 346 592 q 259 563 285 592 q 233 490 233 533 l 233 413 m 301 1008 q 360 1063 321 1047 q 454 1079 399 1079 q 547 1063 508 1079 q 604 1008 585 1046 l 731 781 l 574 781 l 481 954 q 453 967 474 967 q 425 954 432 967 l 333 781 l 176 781 l 301 1008 z "},"ë":{"ha":906,"x_min":90,"x_max":831,"o":"m 90 0 m 583 733 q 772 674 714 733 q 831 508 831 615 q 774 352 831 407 q 582 297 717 297 l 233 297 l 233 244 q 259 172 233 200 q 346 143 285 143 l 794 143 l 794 0 l 346 0 q 228 18 276 0 q 149 69 181 36 q 104 145 118 101 q 90 242 90 189 l 90 492 q 104 588 90 543 q 149 665 118 632 q 228 715 181 697 q 346 733 276 733 l 583 733 m 233 413 l 578 413 q 662 436 638 413 q 686 500 686 460 q 661 567 686 542 q 582 592 636 592 l 346 592 q 259 563 285 592 q 233 490 233 533 l 233 413 m 365 1010 l 365 839 l 217 839 l 217 1010 l 365 1010 m 699 1010 l 699 839 l 550 839 l 550 1010 l 699 1010 z "},"ì":{"ha":386,"x_min":31,"x_max":350,"o":"m 31 0 m 194 1079 l 350 781 l 203 781 l 31 1079 l 194 1079 m 281 733 l 281 0 l 133 0 l 133 733 l 281 733 z "},"í":{"ha":385,"x_min":38,"x_max":357,"o":"m 38 0 m 357 1079 l 183 781 l 38 781 l 193 1079 l 357 1079 m 253 733 l 253 0 l 106 0 l 106 733 l 253 733 z "},"î":{"ha":506,"x_min":-24,"x_max":531,"o":"m 0 0 m 326 733 l 326 0 l 179 0 l 179 733 l 326 733 m 101 1008 q 160 1063 121 1047 q 254 1079 199 1079 q 347 1063 308 1079 q 404 1008 385 1046 l 531 781 l 374 781 l 281 954 q 253 967 274 967 q 225 954 232 967 l 133 781 l -24 781 l 101 1008 z "},"ï":{"ha":481,"x_min":-1,"x_max":481,"o":"m 0 0 m 147 1010 l 147 839 l -1 839 l -1 1010 l 147 1010 m 481 1010 l 481 839 l 332 839 l 332 1010 l 481 1010 m 313 733 l 313 0 l 165 0 l 165 733 l 313 733 z "},"ð":{"ha":965,"x_min":71,"x_max":861,"o":"m 426 1051 l 467 1135 l 549 1135 l 508 1051 l 583 1051 q 713 1030 660 1051 q 799 967 767 1008 q 847 865 832 925 q 861 726 861 804 l 861 315 q 792 78 861 156 q 592 1 724 1 l 389 1 q 156 86 242 1 q 71 339 71 171 q 156 594 71 507 q 389 681 242 681 l 713 681 l 713 726 q 681 858 713 807 q 567 910 649 910 l 439 910 l 385 796 l 303 796 l 357 910 l 256 910 l 256 1051 l 426 1051 m 549 143 q 675 183 638 143 q 713 314 713 222 l 713 549 l 403 549 q 263 499 307 549 q 219 344 219 449 q 263 191 219 239 q 403 143 307 143 l 549 143 z "},"ñ":{"ha":982,"x_min":106,"x_max":881,"o":"m 106 0 m 511 733 q 790 649 699 733 q 881 413 881 565 l 881 0 l 732 0 l 732 413 q 680 546 732 500 q 511 592 628 592 l 271 592 q 253 571 253 592 l 253 0 l 106 0 l 106 619 q 129 709 106 685 q 208 733 153 733 l 511 733 m 810 996 l 810 872 l 172 872 l 172 996 l 810 996 z "},"ò":{"ha":932,"x_min":71,"x_max":861,"o":"m 71 0 m 543 733 q 775 642 689 733 q 861 367 861 551 q 775 90 861 181 q 543 0 689 0 l 389 0 q 156 90 242 0 q 71 367 71 181 q 156 643 71 553 q 389 733 242 733 l 543 733 m 403 592 q 263 539 307 592 q 219 367 219 486 q 263 195 219 247 q 403 143 307 143 l 529 143 q 669 195 625 143 q 713 367 713 247 q 669 539 713 486 q 529 592 625 592 l 403 592 m 453 1079 l 608 781 l 461 781 l 289 1079 l 453 1079 z "},"ó":{"ha":932,"x_min":71,"x_max":861,"o":"m 71 0 m 543 733 q 775 642 689 733 q 861 367 861 551 q 775 90 861 181 q 543 0 689 0 l 389 0 q 156 90 242 0 q 71 367 71 181 q 156 643 71 553 q 389 733 242 733 l 543 733 m 403 592 q 263 539 307 592 q 219 367 219 486 q 263 195 219 247 q 403 143 307 143 l 529 143 q 669 195 625 143 q 713 367 713 247 q 669 539 713 486 q 529 592 625 592 l 403 592 m 642 1079 l 468 781 l 322 781 l 478 1079 l 642 1079 z "},"ô":{"ha":932,"x_min":71,"x_max":861,"o":"m 71 0 m 543 733 q 775 642 689 733 q 861 367 861 551 q 775 90 861 181 q 543 0 689 0 l 389 0 q 156 90 242 0 q 71 367 71 181 q 156 643 71 553 q 389 733 242 733 l 543 733 m 403 592 q 263 539 307 592 q 219 367 219 486 q 263 195 219 247 q 403 143 307 143 l 529 143 q 669 195 625 143 q 713 367 713 247 q 669 539 713 486 q 529 592 625 592 l 403 592 m 314 1008 q 372 1063 333 1047 q 467 1079 411 1079 q 559 1063 521 1079 q 617 1008 597 1046 l 743 781 l 586 781 l 493 954 q 465 967 486 967 q 438 954 444 967 l 346 781 l 189 781 l 314 1008 z "},"õ":{"ha":932,"x_min":71,"x_max":861,"o":"m 71 0 m 543 733 q 775 642 689 733 q 861 367 861 551 q 775 90 861 181 q 543 0 689 0 l 389 0 q 156 90 242 0 q 71 367 71 181 q 156 643 71 553 q 389 733 242 733 l 543 733 m 403 592 q 263 539 307 592 q 219 367 219 486 q 263 195 219 247 q 403 143 307 143 l 529 143 q 669 195 625 143 q 713 367 713 247 q 669 539 713 486 q 529 592 625 592 l 403 592 m 785 996 l 785 872 l 147 872 l 147 996 l 785 996 z "},"ö":{"ha":932,"x_min":71,"x_max":861,"o":"m 71 0 m 543 733 q 775 642 689 733 q 861 367 861 551 q 775 90 861 181 q 543 0 689 0 l 389 0 q 156 90 242 0 q 71 367 71 181 q 156 643 71 553 q 389 733 242 733 l 543 733 m 403 592 q 263 539 307 592 q 219 367 219 486 q 263 195 219 247 q 403 143 307 143 l 529 143 q 669 195 625 143 q 713 367 713 247 q 669 539 713 486 q 529 592 625 592 l 403 592 m 374 1010 l 374 839 l 225 839 l 225 1010 l 374 1010 m 707 1010 l 707 839 l 558 839 l 558 1010 l 707 1010 z "},"÷":{"ha":860,"x_min":56,"x_max":803,"o":"m 56 33 m 803 518 l 803 417 l 56 417 l 56 518 l 803 518 m 508 222 l 508 33 l 350 33 l 350 222 l 508 222 m 508 906 l 508 717 l 350 717 l 350 906 l 508 906 z "},"ø":{"ha":932,"x_min":71,"x_max":861,"o":"m 543 733 q 588 731 567 733 q 631 724 610 728 l 715 853 l 835 853 l 725 685 q 826 563 790 642 q 861 367 861 485 q 775 90 861 181 q 543 0 689 0 l 389 0 q 288 13 333 0 l 217 -96 l 97 -96 l 196 56 q 103 176 135 99 q 71 367 71 253 q 156 643 71 553 q 389 733 242 733 l 543 733 m 713 367 q 644 561 713 510 l 374 144 q 388 143 381 143 q 403 143 394 143 l 529 143 q 669 195 625 143 q 713 367 713 247 m 403 592 q 263 539 307 592 q 219 367 219 486 q 278 181 219 231 l 544 590 q 538 591 542 590 q 529 592 533 592 l 403 592 z "},"ù":{"ha":975,"x_min":101,"x_max":874,"o":"m 101 0 m 250 733 l 250 294 q 297 186 250 229 q 431 143 343 143 l 550 143 q 683 186 638 143 q 729 294 729 229 l 729 733 l 874 733 l 874 289 q 853 172 874 225 q 793 81 833 119 q 694 22 753 43 q 556 0 635 0 l 419 0 q 281 22 340 0 q 182 81 222 43 q 122 172 142 119 q 101 289 101 225 l 101 733 l 250 733 m 475 1079 l 631 781 l 483 781 l 311 1079 l 475 1079 z "},"ú":{"ha":975,"x_min":101,"x_max":874,"o":"m 101 0 m 250 733 l 250 294 q 297 186 250 229 q 431 143 343 143 l 550 143 q 683 186 638 143 q 729 294 729 229 l 729 733 l 874 733 l 874 289 q 853 172 874 225 q 793 81 833 119 q 694 22 753 43 q 556 0 635 0 l 419 0 q 281 22 340 0 q 182 81 222 43 q 122 172 142 119 q 101 289 101 225 l 101 733 l 250 733 m 664 1079 l 490 781 l 344 781 l 500 1079 l 664 1079 z "},"û":{"ha":975,"x_min":101,"x_max":874,"o":"m 101 0 m 250 733 l 250 294 q 297 186 250 229 q 431 143 343 143 l 550 143 q 683 186 638 143 q 729 294 729 229 l 729 733 l 874 733 l 874 289 q 853 172 874 225 q 793 81 833 119 q 694 22 753 43 q 556 0 635 0 l 419 0 q 281 22 340 0 q 182 81 222 43 q 122 172 142 119 q 101 289 101 225 l 101 733 l 250 733 m 336 1008 q 394 1063 356 1047 q 489 1079 433 1079 q 581 1063 543 1079 q 639 1008 619 1046 l 765 781 l 608 781 l 515 954 q 488 967 508 967 q 460 954 467 967 l 368 781 l 211 781 l 336 1008 z "},"ü":{"ha":975,"x_min":101,"x_max":874,"o":"m 101 0 m 250 733 l 250 294 q 297 186 250 229 q 431 143 343 143 l 550 143 q 683 186 638 143 q 729 294 729 229 l 729 733 l 874 733 l 874 289 q 853 172 874 225 q 793 81 833 119 q 694 22 753 43 q 556 0 635 0 l 419 0 q 281 22 340 0 q 182 81 222 43 q 122 172 142 119 q 101 289 101 225 l 101 733 l 250 733 m 394 1010 l 394 839 l 246 839 l 246 1010 l 394 1010 m 728 1010 l 728 839 l 579 839 l 579 1010 l 728 1010 z "},"ý":{"ha":899,"x_min":26,"x_max":872,"o":"m 26 0 m 872 733 l 431 -294 l 272 -294 l 410 26 q 319 47 347 26 q 272 117 290 68 l 26 733 l 182 733 l 403 188 q 418 163 410 168 q 447 157 426 157 l 467 157 l 715 733 l 872 733 m 622 1079 l 449 781 l 303 781 l 458 1079 l 622 1079 z "},"þ":{"ha":965,"x_min":107,"x_max":894,"o":"m 254 1051 l 254 775 q 265 742 254 751 q 299 733 275 733 l 578 733 q 809 642 724 733 q 894 365 894 551 q 809 90 894 181 q 578 0 724 0 l 299 0 q 254 -40 254 0 l 254 -294 l 107 -294 l 107 25 q 140 116 107 89 q 238 143 172 143 l 563 143 q 702 195 658 143 q 746 365 746 247 q 702 539 746 486 q 563 592 658 592 l 238 592 q 140 619 172 592 q 107 710 107 646 l 107 1051 l 254 1051 z "},"ÿ":{"ha":899,"x_min":26,"x_max":872,"o":"m 26 0 m 872 733 l 431 -294 l 272 -294 l 410 26 q 319 47 347 26 q 272 117 290 68 l 26 733 l 182 733 l 403 188 q 418 163 410 168 q 447 157 426 157 l 467 157 l 715 733 l 872 733 m 351 1010 l 351 839 l 203 839 l 203 1010 l 351 1010 m 685 1010 l 685 839 l 536 839 l 536 1010 l 685 1010 z "},"Ā":{"ha":1089,"x_min":26,"x_max":1064,"o":"m 26 0 m 207 0 l 26 0 l 356 833 q 430 927 382 900 q 553 954 478 954 q 674 927 626 954 q 747 833 722 900 l 1064 0 l 882 0 l 597 754 q 551 786 585 786 q 504 754 518 786 l 207 0 m 864 1200 l 864 1076 l 226 1076 l 226 1200 l 864 1200 z "},"ā":{"ha":933,"x_min":90,"x_max":831,"o":"m 90 0 m 575 733 q 692 715 643 733 q 772 665 740 697 q 817 588 803 632 q 831 492 831 543 l 831 147 q 824 79 831 107 q 801 34 818 51 q 755 8 785 17 q 679 0 725 0 l 336 0 q 148 60 206 0 q 90 224 90 119 q 103 313 90 274 q 146 378 117 351 q 222 420 175 406 q 338 435 269 435 l 686 435 l 686 490 q 660 563 686 533 q 574 592 635 592 l 135 592 l 135 733 l 575 733 m 646 143 q 686 181 686 143 l 686 318 l 340 318 q 258 295 282 318 q 235 232 235 272 q 258 167 235 192 q 338 143 282 143 l 646 143 m 785 996 l 785 872 l 147 872 l 147 996 l 785 996 z "},"Ă":{"ha":1089,"x_min":26,"x_max":1064,"o":"m 26 0 m 207 0 l 26 0 l 356 833 q 430 927 382 900 q 553 954 478 954 q 674 927 626 954 q 747 833 722 900 l 1064 0 l 882 0 l 597 754 q 551 786 585 786 q 504 754 518 786 l 207 0 m 388 1283 l 388 1206 q 394 1150 388 1172 q 419 1113 401 1128 q 468 1092 438 1099 q 547 1086 499 1086 q 625 1092 594 1086 q 673 1113 656 1099 q 697 1150 690 1128 q 704 1206 704 1172 l 704 1283 l 829 1283 l 829 1204 q 816 1101 829 1143 q 770 1034 803 1060 q 683 997 738 1008 q 547 985 629 985 q 409 997 464 985 q 322 1034 354 1008 q 277 1101 290 1060 q 264 1204 264 1143 l 264 1283 l 388 1283 z "},"ă":{"ha":933,"x_min":90,"x_max":831,"o":"m 90 0 m 575 733 q 692 715 643 733 q 772 665 740 697 q 817 588 803 632 q 831 492 831 543 l 831 147 q 824 79 831 107 q 801 34 818 51 q 755 8 785 17 q 679 0 725 0 l 336 0 q 148 60 206 0 q 90 224 90 119 q 103 313 90 274 q 146 378 117 351 q 222 420 175 406 q 338 435 269 435 l 686 435 l 686 490 q 660 563 686 533 q 574 592 635 592 l 135 592 l 135 733 l 575 733 m 646 143 q 686 181 686 143 l 686 318 l 340 318 q 258 295 282 318 q 235 232 235 272 q 258 167 235 192 q 338 143 282 143 l 646 143 m 317 1079 l 317 1001 q 324 946 317 968 q 349 909 331 924 q 397 888 367 894 q 476 882 428 882 q 554 888 524 882 q 602 909 585 894 q 626 946 619 924 q 633 1001 633 968 l 633 1079 l 758 1079 l 758 1000 q 745 897 758 939 q 699 830 732 856 q 613 792 667 804 q 476 781 558 781 q 338 792 393 781 q 251 830 283 804 q 206 897 219 856 q 193 1000 193 939 l 193 1079 l 317 1079 z "},"Ą":{"ha":1089,"x_min":26,"x_max":1090,"o":"m 894 -31 l 597 754 q 551 786 585 786 q 504 754 518 786 l 207 0 l 26 0 l 356 833 q 430 927 382 900 q 553 954 478 954 q 674 927 626 954 q 747 833 722 900 l 1064 0 l 931 -57 q 882 -91 900 -71 q 864 -144 864 -111 q 889 -205 864 -182 q 960 -228 914 -228 l 1090 -228 l 1090 -367 l 914 -367 q 776 -321 822 -367 q 731 -204 731 -275 q 763 -106 731 -142 q 853 -47 794 -71 l 894 -31 z "},"ą":{"ha":933,"x_min":90,"x_max":831,"o":"m 581 0 l 336 0 q 148 60 206 0 q 90 224 90 119 q 103 313 90 274 q 146 378 117 351 q 222 420 175 406 q 338 435 269 435 l 686 435 l 686 490 q 660 563 686 533 q 574 592 635 592 l 135 592 l 135 733 l 575 733 q 692 715 643 733 q 772 665 740 697 q 817 588 803 632 q 831 492 831 543 l 831 147 q 824 79 831 107 q 801 34 818 51 q 755 8 785 17 q 679 0 725 0 l 667 0 l 533 -57 q 485 -91 503 -71 q 467 -144 467 -111 q 492 -205 467 -182 q 563 -228 517 -228 l 693 -228 l 693 -367 l 517 -367 q 379 -321 425 -367 q 333 -204 333 -275 q 365 -106 333 -142 q 456 -47 397 -71 l 581 0 m 646 143 q 686 181 686 143 l 686 318 l 340 318 q 258 295 282 318 q 235 232 235 272 q 258 167 235 192 q 338 143 282 143 l 646 143 z "},"Ć":{"ha":947,"x_min":79,"x_max":865,"o":"m 79 0 m 865 938 l 865 774 l 503 774 q 305 702 367 774 q 243 468 243 631 q 304 235 243 307 q 503 164 365 164 l 865 164 l 865 0 l 503 0 q 188 116 297 0 q 79 468 79 232 q 188 822 79 706 q 503 938 297 938 l 865 938 m 733 1283 l 560 985 l 414 985 l 569 1283 l 733 1283 z "},"ć":{"ha":836,"x_min":71,"x_max":767,"o":"m 71 0 m 767 733 l 767 592 l 403 592 q 263 539 307 592 q 219 367 219 486 q 263 195 219 247 q 403 143 307 143 l 767 143 l 767 0 l 389 0 q 156 90 242 0 q 71 367 71 181 q 156 643 71 553 q 389 733 242 733 l 767 733 m 653 1079 l 479 781 l 333 781 l 489 1079 l 653 1079 z "},"Ċ":{"ha":947,"x_min":79,"x_max":865,"o":"m 79 0 m 865 938 l 865 774 l 503 774 q 305 702 367 774 q 243 468 243 631 q 304 235 243 307 q 503 164 365 164 l 865 164 l 865 0 l 503 0 q 188 116 297 0 q 79 468 79 232 q 188 822 79 706 q 503 938 297 938 l 865 938 m 629 1214 l 629 1043 l 481 1043 l 481 1214 l 629 1214 z "},"ċ":{"ha":836,"x_min":71,"x_max":767,"o":"m 71 0 m 767 733 l 767 592 l 403 592 q 263 539 307 592 q 219 367 219 486 q 263 195 219 247 q 403 143 307 143 l 767 143 l 767 0 l 389 0 q 156 90 242 0 q 71 367 71 181 q 156 643 71 553 q 389 733 242 733 l 767 733 m 551 1010 l 551 839 l 403 839 l 403 1010 l 551 1010 z "},"Č":{"ha":947,"x_min":79,"x_max":865,"o":"m 79 0 m 865 938 l 865 774 l 503 774 q 305 702 367 774 q 243 468 243 631 q 304 235 243 307 q 503 164 365 164 l 865 164 l 865 0 l 503 0 q 188 116 297 0 q 79 468 79 232 q 188 822 79 706 q 503 938 297 938 l 865 938 m 431 1283 l 522 1111 q 551 1099 531 1099 q 567 1101 560 1099 q 578 1111 575 1104 l 671 1283 l 828 1283 l 701 1057 q 643 1001 682 1018 q 550 985 604 985 q 457 1002 496 985 q 399 1057 418 1019 l 274 1283 l 431 1283 z "},"č":{"ha":836,"x_min":71,"x_max":767,"o":"m 71 0 m 767 733 l 767 592 l 403 592 q 263 539 307 592 q 219 367 219 486 q 263 195 219 247 q 403 143 307 143 l 767 143 l 767 0 l 389 0 q 156 90 242 0 q 71 367 71 181 q 156 643 71 553 q 389 733 242 733 l 767 733 m 351 1079 l 443 907 q 472 894 451 894 q 488 897 481 894 q 499 907 496 900 l 592 1079 l 749 1079 l 622 853 q 564 797 603 814 q 471 781 525 781 q 378 798 417 781 q 319 853 339 815 l 194 1079 l 351 1079 z "},"Ď":{"ha":1024,"x_min":114,"x_max":944,"o":"m 114 0 m 522 938 q 837 822 729 938 q 944 468 944 707 q 837 115 944 231 q 522 0 729 0 l 192 0 q 114 76 114 0 l 114 861 q 192 938 114 938 l 522 938 m 278 181 q 296 164 278 164 l 522 164 q 719 236 658 164 q 781 469 781 308 q 720 702 781 631 q 522 774 660 774 l 296 774 q 278 757 278 774 l 278 181 m 340 1283 l 432 1111 q 461 1099 440 1099 q 477 1101 469 1099 q 488 1111 485 1104 l 581 1283 l 738 1283 l 611 1057 q 553 1001 592 1018 q 460 985 514 985 q 367 1002 406 985 q 308 1057 328 1019 l 183 1283 l 340 1283 z "},"ď":{"ha":1103,"x_min":71,"x_max":1139,"o":"m 71 0 m 861 1051 l 861 314 q 792 77 861 154 q 592 0 724 0 l 389 0 q 156 90 242 0 q 71 367 71 181 q 156 643 71 553 q 389 733 242 733 l 713 733 l 713 1051 l 861 1051 m 549 143 q 675 185 638 143 q 713 321 713 226 l 713 592 l 403 592 q 263 539 307 592 q 219 367 219 486 q 263 195 219 247 q 403 143 307 143 l 549 143 m 1139 1050 l 1139 901 q 969 717 1139 717 l 924 717 l 924 828 l 940 828 q 992 886 992 828 l 992 1050 l 1139 1050 z "},"Đ":{"ha":1024,"x_min":15,"x_max":944,"o":"m 15 0 m 522 938 q 837 822 729 938 q 944 468 944 707 q 837 115 944 231 q 522 0 729 0 l 192 0 q 114 76 114 0 l 114 396 l 15 396 l 15 544 l 114 544 l 114 861 q 192 938 114 938 l 522 938 m 278 544 l 528 544 l 528 396 l 278 396 l 278 181 q 296 164 278 164 l 522 164 q 719 236 658 164 q 781 469 781 308 q 720 702 781 631 q 522 774 660 774 l 296 774 q 278 757 278 774 l 278 544 z "},"đ":{"ha":965,"x_min":71,"x_max":861,"o":"m 713 996 l 713 1051 l 861 1051 l 861 314 q 792 77 861 154 q 592 0 724 0 l 389 0 q 156 90 242 0 q 71 367 71 181 q 156 643 71 553 q 389 733 242 733 l 713 733 l 713 872 l 224 872 l 224 996 l 713 996 m 549 143 q 675 185 638 143 q 713 321 713 226 l 713 592 l 403 592 q 263 539 307 592 q 219 367 219 486 q 263 195 219 247 q 403 143 307 143 l 549 143 z "},"Ē":{"ha":963,"x_min":76,"x_max":864,"o":"m 76 0 m 863 938 l 863 774 l 393 774 q 285 742 318 774 q 251 656 251 710 q 394 544 251 544 l 856 544 l 856 396 l 390 396 q 247 282 247 396 q 282 195 247 226 q 389 164 317 164 l 864 164 l 864 0 l 389 0 q 247 19 306 0 q 149 73 188 39 q 94 154 111 107 q 76 256 76 201 q 111 390 76 336 q 211 471 146 443 q 79 682 79 525 q 97 785 79 738 q 153 866 115 832 q 251 919 192 900 q 393 938 310 938 l 863 938 m 854 1200 l 854 1076 l 217 1076 l 217 1200 l 854 1200 z "},"ē":{"ha":906,"x_min":90,"x_max":831,"o":"m 90 0 m 583 733 q 772 674 714 733 q 831 508 831 615 q 774 352 831 407 q 582 297 717 297 l 233 297 l 233 244 q 259 172 233 200 q 346 143 285 143 l 794 143 l 794 0 l 346 0 q 228 18 276 0 q 149 69 181 36 q 104 145 118 101 q 90 242 90 189 l 90 492 q 104 588 90 543 q 149 665 118 632 q 228 715 181 697 q 346 733 276 733 l 583 733 m 233 413 l 578 413 q 662 436 638 413 q 686 500 686 460 q 661 567 686 542 q 582 592 636 592 l 346 592 q 259 563 285 592 q 233 490 233 533 l 233 413 m 771 996 l 771 872 l 133 872 l 133 996 l 771 996 z "},"Ĕ":{"ha":963,"x_min":76,"x_max":864,"o":"m 76 0 m 863 938 l 863 774 l 393 774 q 285 742 318 774 q 251 656 251 710 q 394 544 251 544 l 856 544 l 856 396 l 390 396 q 247 282 247 396 q 282 195 247 226 q 389 164 317 164 l 864 164 l 864 0 l 389 0 q 247 19 306 0 q 149 73 188 39 q 94 154 111 107 q 76 256 76 201 q 111 390 76 336 q 211 471 146 443 q 79 682 79 525 q 97 785 79 738 q 153 866 115 832 q 251 919 192 900 q 393 938 310 938 l 863 938 m 371 1283 l 371 1206 q 378 1150 371 1172 q 403 1113 385 1128 q 451 1092 421 1099 q 531 1086 482 1086 q 608 1092 578 1086 q 656 1113 639 1099 q 681 1150 674 1128 q 688 1206 688 1172 l 688 1283 l 813 1283 l 813 1204 q 799 1101 813 1143 q 753 1034 786 1060 q 667 997 721 1008 q 531 985 613 985 q 392 997 447 985 q 306 1034 338 1008 q 260 1101 274 1060 q 247 1204 247 1143 l 247 1283 l 371 1283 z "},"ĕ":{"ha":906,"x_min":90,"x_max":831,"o":"m 90 0 m 583 733 q 772 674 714 733 q 831 508 831 615 q 774 352 831 407 q 582 297 717 297 l 233 297 l 233 244 q 259 172 233 200 q 346 143 285 143 l 794 143 l 794 0 l 346 0 q 228 18 276 0 q 149 69 181 36 q 104 145 118 101 q 90 242 90 189 l 90 492 q 104 588 90 543 q 149 665 118 632 q 228 715 181 697 q 346 733 276 733 l 583 733 m 233 413 l 578 413 q 662 436 638 413 q 686 500 686 460 q 661 567 686 542 q 582 592 636 592 l 346 592 q 259 563 285 592 q 233 490 233 533 l 233 413 m 299 1079 l 299 1001 q 306 946 299 968 q 331 909 313 924 q 379 888 349 894 q 458 882 410 882 q 536 888 506 882 q 584 909 567 894 q 608 946 601 924 q 615 1001 615 968 l 615 1079 l 740 1079 l 740 1000 q 727 897 740 939 q 681 830 714 856 q 594 792 649 804 q 458 781 540 781 q 320 792 375 781 q 233 830 265 804 q 188 897 201 856 q 175 1000 175 939 l 175 1079 l 299 1079 z "},"Ė":{"ha":963,"x_min":76,"x_max":864,"o":"m 76 0 m 863 938 l 863 774 l 393 774 q 285 742 318 774 q 251 656 251 710 q 394 544 251 544 l 856 544 l 856 396 l 390 396 q 247 282 247 396 q 282 195 247 226 q 389 164 317 164 l 864 164 l 864 0 l 389 0 q 247 19 306 0 q 149 73 188 39 q 94 154 111 107 q 76 256 76 201 q 111 390 76 336 q 211 471 146 443 q 79 682 79 525 q 97 785 79 738 q 153 866 115 832 q 251 919 192 900 q 393 938 310 938 l 863 938 m 603 1214 l 603 1043 l 454 1043 l 454 1214 l 603 1214 z "},"ė":{"ha":906,"x_min":90,"x_max":831,"o":"m 90 0 m 583 733 q 772 674 714 733 q 831 508 831 615 q 774 352 831 407 q 582 297 717 297 l 233 297 l 233 244 q 259 172 233 200 q 346 143 285 143 l 794 143 l 794 0 l 346 0 q 228 18 276 0 q 149 69 181 36 q 104 145 118 101 q 90 242 90 189 l 90 492 q 104 588 90 543 q 149 665 118 632 q 228 715 181 697 q 346 733 276 733 l 583 733 m 233 413 l 578 413 q 662 436 638 413 q 686 500 686 460 q 661 567 686 542 q 582 592 636 592 l 346 592 q 259 563 285 592 q 233 490 233 533 l 233 413 m 536 1010 l 536 839 l 388 839 l 388 1010 l 536 1010 z "},"Ę":{"ha":963,"x_min":76,"x_max":890,"o":"m 778 0 l 389 0 q 247 19 306 0 q 149 73 188 39 q 94 154 111 107 q 76 256 76 201 q 111 390 76 336 q 211 471 146 443 q 79 682 79 525 q 97 785 79 738 q 153 866 115 832 q 251 919 192 900 q 393 938 310 938 l 863 938 l 863 774 l 393 774 q 285 742 318 774 q 251 656 251 710 q 394 544 251 544 l 856 544 l 856 396 l 390 396 q 247 282 247 396 q 282 195 247 226 q 389 164 317 164 l 864 164 l 864 0 l 731 -57 q 682 -91 700 -71 q 664 -144 664 -111 q 689 -205 664 -182 q 760 -228 714 -228 l 890 -228 l 890 -367 l 714 -367 q 576 -321 622 -367 q 531 -204 531 -275 q 563 -106 531 -142 q 653 -47 594 -71 l 778 0 z "},"ę":{"ha":906,"x_min":90,"x_max":831,"o":"m 708 0 l 346 0 q 228 18 276 0 q 149 69 181 36 q 104 145 118 101 q 90 242 90 189 l 90 492 q 104 588 90 543 q 149 665 118 632 q 228 715 181 697 q 346 733 276 733 l 583 733 q 772 674 714 733 q 831 508 831 615 q 774 352 831 407 q 582 297 717 297 l 233 297 l 233 244 q 259 172 233 200 q 346 143 285 143 l 794 143 l 794 0 l 661 -57 q 613 -91 631 -71 q 594 -144 594 -111 q 619 -205 594 -182 q 690 -228 644 -228 l 821 -228 l 821 -367 l 644 -367 q 507 -321 553 -367 q 461 -204 461 -275 q 493 -106 461 -142 q 583 -47 525 -71 l 708 0 m 233 413 l 578 413 q 662 436 638 413 q 686 500 686 460 q 661 567 686 542 q 582 592 636 592 l 346 592 q 259 563 285 592 q 233 490 233 533 l 233 413 z "},"Ě":{"ha":963,"x_min":76,"x_max":864,"o":"m 76 0 m 863 938 l 863 774 l 393 774 q 285 742 318 774 q 251 656 251 710 q 394 544 251 544 l 856 544 l 856 396 l 390 396 q 247 282 247 396 q 282 195 247 226 q 389 164 317 164 l 864 164 l 864 0 l 389 0 q 247 19 306 0 q 149 73 188 39 q 94 154 111 107 q 76 256 76 201 q 111 390 76 336 q 211 471 146 443 q 79 682 79 525 q 97 785 79 738 q 153 866 115 832 q 251 919 192 900 q 393 938 310 938 l 863 938 m 415 1283 l 507 1111 q 536 1099 515 1099 q 552 1101 544 1099 q 563 1111 560 1104 l 656 1283 l 813 1283 l 686 1057 q 628 1001 667 1018 q 535 985 589 985 q 442 1002 481 985 q 383 1057 403 1019 l 258 1283 l 415 1283 z "},"ě":{"ha":906,"x_min":90,"x_max":831,"o":"m 90 0 m 583 733 q 772 674 714 733 q 831 508 831 615 q 774 352 831 407 q 582 297 717 297 l 233 297 l 233 244 q 259 172 233 200 q 346 143 285 143 l 794 143 l 794 0 l 346 0 q 228 18 276 0 q 149 69 181 36 q 104 145 118 101 q 90 242 90 189 l 90 492 q 104 588 90 543 q 149 665 118 632 q 228 715 181 697 q 346 733 276 733 l 583 733 m 233 413 l 578 413 q 662 436 638 413 q 686 500 686 460 q 661 567 686 542 q 582 592 636 592 l 346 592 q 259 563 285 592 q 233 490 233 533 l 233 413 m 332 1079 l 424 907 q 453 894 432 894 q 469 897 461 894 q 479 907 476 900 l 572 1079 l 729 1079 l 603 853 q 544 797 583 814 q 451 781 506 781 q 358 798 397 781 q 300 853 319 815 l 175 1079 l 332 1079 z "},"Ğ":{"ha":1013,"x_min":79,"x_max":939,"o":"m 79 0 m 889 938 l 889 774 l 503 774 q 305 702 367 774 q 243 468 243 631 q 304 235 243 307 q 503 164 365 164 l 658 164 q 758 201 728 164 q 789 296 789 238 q 760 384 789 353 q 674 415 732 415 l 465 415 l 465 558 l 690 558 q 878 487 817 558 q 939 293 939 415 q 923 178 939 232 q 872 85 907 125 q 781 23 836 46 q 647 0 726 0 l 503 0 q 188 116 297 0 q 79 468 79 232 q 188 822 79 706 q 503 938 297 938 l 889 938 m 389 1283 l 389 1206 q 396 1150 389 1172 q 421 1113 403 1128 q 469 1092 439 1099 q 549 1086 500 1086 q 626 1092 596 1086 q 674 1113 657 1099 q 699 1150 692 1128 q 706 1206 706 1172 l 706 1283 l 831 1283 l 831 1204 q 817 1101 831 1143 q 772 1034 804 1060 q 685 997 739 1008 q 549 985 631 985 q 410 997 465 985 q 324 1034 356 1008 q 278 1101 292 1060 q 265 1204 265 1143 l 265 1283 l 389 1283 z "},"ğ":{"ha":961,"x_min":71,"x_max":861,"o":"m 71 0 m 592 733 q 792 656 724 733 q 861 419 861 579 l 861 -3 q 847 -136 861 -81 q 799 -226 832 -192 q 713 -277 767 -261 q 583 -293 660 -293 l 147 -293 l 147 -151 l 567 -151 q 681 -117 649 -151 q 713 -3 713 -82 l 713 31 l 389 31 q 156 117 242 31 q 71 383 71 204 q 156 647 71 561 q 389 733 242 733 l 592 733 m 219 378 q 263 215 219 265 q 403 164 307 164 l 713 164 l 713 421 q 675 551 713 511 q 549 592 638 592 l 403 592 q 263 541 307 592 q 219 378 219 490 m 326 1079 l 326 1001 q 333 946 326 968 q 358 909 340 924 q 407 888 376 894 q 486 882 438 882 q 564 888 533 882 q 612 909 594 894 q 636 946 629 924 q 643 1001 643 968 l 643 1079 l 768 1079 l 768 1000 q 755 897 768 939 q 709 830 742 856 q 622 792 676 804 q 486 781 568 781 q 348 792 403 781 q 261 830 293 804 q 216 897 229 856 q 203 1000 203 939 l 203 1079 l 326 1079 z "},"Ġ":{"ha":1013,"x_min":79,"x_max":939,"o":"m 79 0 m 889 938 l 889 774 l 503 774 q 305 702 367 774 q 243 468 243 631 q 304 235 243 307 q 503 164 365 164 l 658 164 q 758 201 728 164 q 789 296 789 238 q 760 384 789 353 q 674 415 732 415 l 465 415 l 465 558 l 690 558 q 878 487 817 558 q 939 293 939 415 q 923 178 939 232 q 872 85 907 125 q 781 23 836 46 q 647 0 726 0 l 503 0 q 188 116 297 0 q 79 468 79 232 q 188 822 79 706 q 503 938 297 938 l 889 938 m 626 1214 l 626 1043 l 478 1043 l 478 1214 l 626 1214 z "},"ġ":{"ha":961,"x_min":71,"x_max":861,"o":"m 71 0 m 592 733 q 792 656 724 733 q 861 419 861 579 l 861 -3 q 847 -136 861 -81 q 799 -226 832 -192 q 713 -277 767 -261 q 583 -293 660 -293 l 147 -293 l 147 -151 l 567 -151 q 681 -117 649 -151 q 713 -3 713 -82 l 713 31 l 389 31 q 156 117 242 31 q 71 383 71 204 q 156 647 71 561 q 389 733 242 733 l 592 733 m 219 378 q 263 215 219 265 q 403 164 307 164 l 713 164 l 713 421 q 675 551 713 511 q 549 592 638 592 l 403 592 q 263 541 307 592 q 219 378 219 490 m 557 1010 l 557 839 l 408 839 l 408 1010 l 557 1010 z "},"Ģ":{"ha":1013,"x_min":79,"x_max":939,"o":"m 79 0 m 889 938 l 889 774 l 503 774 q 305 702 367 774 q 243 468 243 631 q 304 235 243 307 q 503 164 365 164 l 658 164 q 758 201 728 164 q 789 296 789 238 q 760 384 789 353 q 674 415 732 415 l 465 415 l 465 558 l 690 558 q 878 487 817 558 q 939 293 939 415 q 923 178 939 232 q 872 85 907 125 q 781 23 836 46 q 647 0 726 0 l 503 0 q 188 116 297 0 q 79 468 79 232 q 188 822 79 706 q 503 938 297 938 l 889 938 m 621 -33 l 621 -182 q 451 -367 621 -367 l 406 -367 l 406 -256 l 422 -256 q 474 -197 474 -256 l 474 -33 l 621 -33 z "},"ģ":{"ha":961,"x_min":71,"x_max":861,"o":"m 71 0 m 592 733 q 792 656 724 733 q 861 419 861 579 l 861 -3 q 847 -136 861 -81 q 799 -226 832 -192 q 713 -277 767 -261 q 583 -293 660 -293 l 147 -293 l 147 -151 l 567 -151 q 681 -117 649 -151 q 713 -3 713 -82 l 713 31 l 389 31 q 156 117 242 31 q 71 383 71 204 q 156 647 71 561 q 389 733 242 733 l 592 733 m 219 378 q 263 215 219 265 q 403 164 307 164 l 713 164 l 713 421 q 675 551 713 511 q 549 592 638 592 l 403 592 q 263 541 307 592 q 219 378 219 490 m 633 1167 l 633 1047 l 606 1047 q 551 988 551 1047 l 551 781 l 393 781 l 393 971 q 437 1119 393 1071 q 574 1167 481 1167 l 633 1167 z "},"Ħ":{"ha":1035,"x_min":15,"x_max":1021,"o":"m 278 938 l 278 835 l 757 835 l 757 938 l 922 938 l 922 835 l 1021 835 l 1021 713 l 922 713 l 922 0 l 757 0 l 757 392 l 278 392 l 278 0 l 114 0 l 114 713 l 15 713 l 15 835 l 114 835 l 114 938 l 278 938 m 757 556 l 757 713 l 278 713 l 278 556 l 757 556 z "},"ħ":{"ha":982,"x_min":106,"x_max":881,"o":"m 253 1051 l 253 996 l 743 996 l 743 872 l 253 872 l 253 733 l 511 733 q 789 649 697 733 q 881 413 881 564 l 881 0 l 732 0 l 732 413 q 679 544 732 497 q 511 592 626 592 l 253 592 l 253 0 l 106 0 l 106 1051 l 253 1051 z "},"Ĩ":{"ha":499,"x_min":-69,"x_max":568,"o":"m 0 0 m 332 938 l 332 0 l 168 0 l 168 938 l 332 938 m 568 1200 l 568 1076 l -69 1076 l -69 1200 l 568 1200 z "},"ĩ":{"ha":551,"x_min":-42,"x_max":596,"o":"m 0 0 m 596 996 l 596 872 l -42 872 l -42 996 l 596 996 m 350 733 l 350 0 l 203 0 l 203 733 l 350 733 z "},"Ī":{"ha":499,"x_min":-69,"x_max":568,"o":"m 0 0 m 332 938 l 332 0 l 168 0 l 168 938 l 332 938 m 568 1200 l 568 1076 l -69 1076 l -69 1200 l 568 1200 z "},"ī":{"ha":551,"x_min":-42,"x_max":596,"o":"m 0 0 m 596 996 l 596 872 l -42 872 l -42 996 l 596 996 m 350 733 l 350 0 l 203 0 l 203 733 l 350 733 z "},"Ĭ":{"ha":522,"x_min":-22,"x_max":543,"o":"m 0 0 m 343 938 l 343 0 l 179 0 l 179 938 l 343 938 m 101 1283 l 101 1206 q 108 1150 101 1172 q 133 1113 115 1128 q 182 1092 151 1099 q 261 1086 213 1086 q 339 1092 308 1086 q 387 1113 369 1099 q 411 1150 404 1128 q 418 1206 418 1172 l 418 1283 l 543 1283 l 543 1204 q 530 1101 543 1143 q 484 1034 517 1060 q 397 997 451 1008 q 261 985 343 985 q 123 997 178 985 q 36 1034 68 1008 q -9 1101 4 1060 q -22 1204 -22 1143 l -22 1283 l 101 1283 z "},"ĭ":{"ha":521,"x_min":-22,"x_max":543,"o":"m 0 0 m 101 1079 l 101 1001 q 108 946 101 968 q 133 909 115 924 q 182 888 151 894 q 261 882 213 882 q 339 888 308 882 q 387 909 369 894 q 411 946 404 924 q 418 1001 418 968 l 418 1079 l 543 1079 l 543 1000 q 530 897 543 939 q 484 830 517 856 q 397 792 451 804 q 261 781 343 781 q 123 792 178 781 q 36 830 68 804 q -9 897 4 856 q -22 1000 -22 939 l -22 1079 l 101 1079 m 333 733 l 333 0 l 186 0 l 186 733 l 333 733 z "},"Į":{"ha":399,"x_min":-47,"x_max":313,"o":"m 122 -29 l 122 938 l 286 938 l 286 0 l 153 -57 q 104 -91 122 -71 q 86 -144 86 -111 q 111 -205 86 -182 q 182 -228 136 -228 l 313 -228 l 313 -367 l 136 -367 q -1 -321 44 -367 q -47 -204 -47 -275 q -15 -106 -47 -142 q 75 -47 17 -71 l 122 -29 z "},"į":{"ha":386,"x_min":-53,"x_max":307,"o":"m 281 733 l 281 0 l 147 -57 q 99 -91 117 -71 q 81 -144 81 -111 q 106 -205 81 -182 q 176 -228 131 -228 l 307 -228 l 307 -367 l 131 -367 q -7 -321 39 -367 q -53 -204 -53 -275 q -21 -106 -53 -142 q 69 -47 11 -71 l 133 -22 l 133 733 l 281 733 m 282 1010 l 282 839 l 133 839 l 133 1010 l 282 1010 z "},"İ":{"ha":390,"x_min":114,"x_max":278,"o":"m 114 0 m 278 938 l 278 0 l 114 0 l 114 938 l 278 938 m 269 1214 l 269 1043 l 121 1043 l 121 1214 l 269 1214 z "},"ı":{"ha":358,"x_min":106,"x_max":253,"o":"m 253 733 l 253 0 l 106 0 l 106 733 l 253 733 z "},"Ĳ":{"ha":1146,"x_min":114,"x_max":1042,"o":"m 114 0 m 278 938 l 278 0 l 114 0 l 114 938 l 278 938 m 1042 938 l 1042 324 q 1022 194 1042 253 q 961 92 1003 135 q 853 24 919 49 q 694 0 788 0 l 376 0 l 376 164 l 685 164 q 777 176 740 164 q 836 210 814 189 q 867 262 858 232 q 876 325 876 292 l 876 938 l 1042 938 z "},"ĳ":{"ha":726,"x_min":106,"x_max":622,"o":"m 106 0 m 253 733 l 253 0 l 106 0 l 106 733 l 253 733 m 622 733 l 622 -42 q 610 -162 622 -114 q 571 -240 597 -211 q 503 -282 544 -269 q 407 -294 463 -294 l 278 -294 l 278 -153 l 374 -153 q 451 -129 428 -153 q 474 -43 474 -106 l 474 733 l 622 733 m 622 1010 l 622 839 l 474 839 l 474 1010 l 622 1010 m 254 1010 l 254 839 l 106 839 l 106 1010 l 254 1010 z "},"Ķ":{"ha":983,"x_min":114,"x_max":956,"o":"m 114 0 m 278 938 l 278 540 l 368 540 q 466 544 428 540 q 529 560 504 547 q 572 595 554 572 q 608 657 589 618 l 751 938 l 928 938 l 781 646 q 713 542 749 583 q 618 475 676 500 q 676 452 651 467 q 723 416 701 438 q 764 365 744 394 q 804 294 783 335 l 956 0 l 772 0 l 629 278 q 592 338 610 315 q 546 372 574 360 q 476 388 518 385 q 368 392 435 392 l 278 392 l 278 0 l 114 0 l 114 938 l 278 938 m 576 -33 l 576 -182 q 407 -367 576 -367 l 361 -367 l 361 -256 l 378 -256 q 429 -197 429 -256 l 429 -33 l 576 -33 z "},"ķ":{"ha":836,"x_min":106,"x_max":810,"o":"m 106 0 m 253 1051 l 253 429 l 321 429 q 392 431 364 429 q 440 442 421 433 q 474 467 460 450 q 504 513 488 483 l 626 733 l 786 733 l 658 503 q 601 423 631 454 q 528 372 572 392 q 613 323 581 357 q 678 231 644 289 l 810 0 l 644 0 l 522 217 q 490 263 506 246 q 453 290 475 281 q 401 302 432 299 q 321 306 369 306 l 253 306 l 253 0 l 106 0 l 106 1051 l 253 1051 m 518 -33 l 518 -182 q 349 -367 518 -367 l 303 -367 l 303 -256 l 319 -256 q 371 -197 371 -256 l 371 -33 l 518 -33 z "},"Ĺ":{"ha":864,"x_min":85,"x_max":824,"o":"m 85 0 m 268 938 l 268 325 q 277 262 268 292 q 308 210 286 232 q 367 176 331 189 q 460 164 404 164 l 824 164 l 824 0 l 450 0 q 291 24 357 0 q 183 92 225 49 q 123 194 142 135 q 104 324 104 253 l 104 938 l 268 938 m 404 1283 l 231 985 l 85 985 l 240 1283 l 404 1283 z "},"ĺ":{"ha":372,"x_min":65,"x_max":385,"o":"m 253 929 l 253 0 l 106 0 l 106 929 l 253 929 m 385 1258 l 211 960 l 65 960 l 221 1258 l 385 1258 z "},"Ļ":{"ha":864,"x_min":104,"x_max":824,"o":"m 104 0 m 268 938 l 268 325 q 277 262 268 292 q 308 210 286 232 q 367 176 331 189 q 460 164 404 164 l 824 164 l 824 0 l 450 0 q 291 24 357 0 q 183 92 225 49 q 123 194 142 135 q 104 324 104 253 l 104 938 l 268 938 m 550 -33 l 550 -182 q 381 -367 550 -367 l 335 -367 l 335 -256 l 351 -256 q 403 -197 403 -256 l 403 -33 l 550 -33 z "},"ļ":{"ha":358,"x_min":38,"x_max":253,"o":"m 38 0 m 253 1051 l 253 0 l 106 0 l 106 1051 l 253 1051 m 253 -33 l 253 -182 q 83 -367 253 -367 l 38 -367 l 38 -256 l 54 -256 q 106 -197 106 -256 l 106 -33 l 253 -33 z "},"Ľ":{"ha":864,"x_min":104,"x_max":824,"o":"m 104 0 m 268 938 l 268 325 q 277 262 268 292 q 308 210 286 232 q 367 176 331 189 q 460 164 404 164 l 824 164 l 824 0 l 450 0 q 291 24 357 0 q 183 92 225 49 q 123 194 142 135 q 104 324 104 253 l 104 938 l 268 938 m 681 1050 l 681 901 q 511 717 681 717 l 465 717 l 465 828 l 482 828 q 533 886 533 828 l 533 1050 l 681 1050 z "},"ľ":{"ha":496,"x_min":106,"x_max":532,"o":"m 106 0 m 253 1051 l 253 0 l 106 0 l 106 1051 l 253 1051 m 532 1050 l 532 901 q 363 717 532 717 l 317 717 l 317 828 l 333 828 q 385 886 385 828 l 385 1050 l 532 1050 z "},"Ł":{"ha":864,"x_min":11,"x_max":824,"o":"m 268 938 l 268 707 l 529 819 l 529 683 l 268 571 l 268 325 q 277 262 268 292 q 308 210 286 232 q 367 176 331 189 q 460 164 404 164 l 824 164 l 824 0 l 450 0 q 291 24 357 0 q 183 92 225 49 q 123 194 142 135 q 104 324 104 253 l 104 500 l 11 460 l 11 596 l 104 636 l 104 938 l 268 938 z "},"ł":{"ha":518,"x_min":0,"x_max":518,"o":"m 333 1051 l 333 832 l 518 913 l 518 776 l 333 696 l 333 0 l 186 0 l 186 633 l 0 553 l 0 689 l 186 769 l 186 1051 l 333 1051 z "},"Ń":{"ha":1221,"x_min":113,"x_max":1110,"o":"m 113 0 m 276 0 l 113 0 l 113 750 q 165 898 113 842 q 328 954 218 954 q 476 908 425 954 q 556 781 526 861 l 829 182 q 851 154 838 165 q 889 143 865 143 q 930 158 915 143 q 944 196 944 172 l 944 938 l 1110 938 l 1110 189 q 1056 40 1110 96 q 894 -17 1003 -17 q 809 -5 846 -17 q 745 30 772 7 q 699 85 718 53 q 665 157 679 117 l 392 756 q 333 796 374 796 q 291 781 306 796 q 276 742 276 767 l 276 0 m 794 1283 l 621 985 l 475 985 l 631 1283 l 794 1283 z "},"ń":{"ha":982,"x_min":106,"x_max":881,"o":"m 106 0 m 511 733 q 790 649 699 733 q 881 413 881 565 l 881 0 l 732 0 l 732 413 q 680 546 732 500 q 511 592 628 592 l 271 592 q 253 571 253 592 l 253 0 l 106 0 l 106 619 q 129 709 106 685 q 208 733 153 733 l 511 733 m 660 1079 l 486 781 l 340 781 l 496 1079 l 660 1079 z "},"Ņ":{"ha":1221,"x_min":113,"x_max":1110,"o":"m 113 0 m 276 0 l 113 0 l 113 750 q 165 898 113 842 q 328 954 218 954 q 476 908 425 954 q 556 781 526 861 l 829 182 q 851 154 838 165 q 889 143 865 143 q 930 158 915 143 q 944 196 944 172 l 944 938 l 1110 938 l 1110 189 q 1056 40 1110 96 q 894 -17 1003 -17 q 809 -5 846 -17 q 745 30 772 7 q 699 85 718 53 q 665 157 679 117 l 392 756 q 333 796 374 796 q 291 781 306 796 q 276 742 276 767 l 276 0 m 649 -33 l 649 -182 q 479 -367 649 -367 l 433 -367 l 433 -256 l 450 -256 q 501 -197 501 -256 l 501 -33 l 649 -33 z "},"ņ":{"ha":982,"x_min":106,"x_max":881,"o":"m 106 0 m 511 733 q 790 649 699 733 q 881 413 881 565 l 881 0 l 732 0 l 732 413 q 680 546 732 500 q 511 592 628 592 l 271 592 q 253 571 253 592 l 253 0 l 106 0 l 106 619 q 129 709 106 685 q 208 733 153 733 l 511 733 m 572 -33 l 572 -182 q 403 -367 572 -367 l 357 -367 l 357 -256 l 374 -256 q 425 -197 425 -256 l 425 -33 l 572 -33 z "},"Ň":{"ha":1221,"x_min":113,"x_max":1110,"o":"m 113 0 m 276 0 l 113 0 l 113 750 q 165 898 113 842 q 328 954 218 954 q 476 908 425 954 q 556 781 526 861 l 829 182 q 851 154 838 165 q 889 143 865 143 q 930 158 915 143 q 944 196 944 172 l 944 938 l 1110 938 l 1110 189 q 1056 40 1110 96 q 894 -17 1003 -17 q 809 -5 846 -17 q 745 30 772 7 q 699 85 718 53 q 665 157 679 117 l 392 756 q 333 796 374 796 q 291 781 306 796 q 276 742 276 767 l 276 0 m 500 1283 l 592 1111 q 621 1099 600 1099 q 637 1101 629 1099 q 647 1111 644 1104 l 740 1283 l 897 1283 l 771 1057 q 713 1001 751 1018 q 619 985 674 985 q 526 1002 565 985 q 468 1057 488 1019 l 343 1283 l 500 1283 z "},"ň":{"ha":982,"x_min":106,"x_max":881,"o":"m 106 0 m 511 733 q 790 649 699 733 q 881 413 881 565 l 881 0 l 732 0 l 732 413 q 680 546 732 500 q 511 592 628 592 l 271 592 q 253 571 253 592 l 253 0 l 106 0 l 106 619 q 129 709 106 685 q 208 733 153 733 l 511 733 m 364 1079 l 456 907 q 485 894 464 894 q 501 897 493 894 q 511 907 508 900 l 604 1079 l 761 1079 l 635 853 q 576 797 615 814 q 483 781 538 781 q 390 798 429 781 q 332 853 351 815 l 207 1079 l 364 1079 z "},"Ŋ":{"ha":1094,"x_min":114,"x_max":981,"o":"m 567 938 q 748 911 671 938 q 877 835 825 885 q 955 716 929 786 q 981 558 981 646 l 981 24 q 965 -128 981 -67 q 917 -226 950 -189 q 835 -278 885 -262 q 718 -294 786 -294 l 515 -294 l 515 -137 l 681 -137 q 784 -103 753 -137 q 815 22 815 -68 l 815 558 q 756 717 815 660 q 567 774 697 774 l 294 774 q 278 756 278 774 l 278 0 l 114 0 l 114 861 q 135 919 114 901 q 188 938 156 938 l 567 938 z "},"ŋ":{"ha":982,"x_min":106,"x_max":881,"o":"m 732 413 q 680 546 732 500 q 511 592 628 592 l 271 592 q 253 571 253 592 l 253 0 l 106 0 l 106 619 q 129 709 106 685 q 208 733 153 733 l 511 733 q 790 649 699 733 q 881 413 881 565 l 881 -42 q 868 -162 881 -114 q 829 -240 856 -211 q 762 -282 803 -269 q 665 -294 721 -294 l 536 -294 l 536 -153 l 632 -153 q 709 -129 686 -153 q 732 -43 732 -106 l 732 413 z "},"Ō":{"ha":1133,"x_min":79,"x_max":1054,"o":"m 79 0 m 631 938 q 945 821 836 938 q 1054 467 1054 704 q 945 115 1054 231 q 631 0 836 0 l 503 0 q 188 115 297 0 q 79 467 79 231 q 188 821 79 704 q 503 938 297 938 l 631 938 m 503 774 q 305 701 367 774 q 243 467 243 629 q 304 235 243 306 q 503 164 365 164 l 631 164 q 827 235 765 164 q 889 468 889 307 q 828 701 889 629 q 631 774 767 774 l 503 774 m 885 1175 l 885 1051 l 247 1051 l 247 1175 l 885 1175 z "},"ō":{"ha":932,"x_min":71,"x_max":861,"o":"m 71 0 m 543 733 q 775 642 689 733 q 861 367 861 551 q 775 90 861 181 q 543 0 689 0 l 389 0 q 156 90 242 0 q 71 367 71 181 q 156 643 71 553 q 389 733 242 733 l 543 733 m 403 592 q 263 539 307 592 q 219 367 219 486 q 263 195 219 247 q 403 143 307 143 l 529 143 q 669 195 625 143 q 713 367 713 247 q 669 539 713 486 q 529 592 625 592 l 403 592 m 785 996 l 785 872 l 147 872 l 147 996 l 785 996 z "},"Ŏ":{"ha":1133,"x_min":79,"x_max":1054,"o":"m 79 0 m 631 938 q 945 821 836 938 q 1054 467 1054 704 q 945 115 1054 231 q 631 0 836 0 l 503 0 q 188 115 297 0 q 79 467 79 231 q 188 821 79 704 q 503 938 297 938 l 631 938 m 503 774 q 305 701 367 774 q 243 467 243 629 q 304 235 243 306 q 503 164 365 164 l 631 164 q 827 235 765 164 q 889 468 889 307 q 828 701 889 629 q 631 774 767 774 l 503 774 m 408 1283 l 408 1206 q 415 1150 408 1172 q 440 1113 422 1128 q 489 1092 458 1099 q 568 1086 519 1086 q 646 1092 615 1086 q 694 1113 676 1099 q 718 1150 711 1128 q 725 1206 725 1172 l 725 1283 l 850 1283 l 850 1204 q 837 1101 850 1143 q 791 1034 824 1060 q 704 997 758 1008 q 568 985 650 985 q 430 997 485 985 q 343 1034 375 1008 q 298 1101 311 1060 q 285 1204 285 1143 l 285 1283 l 408 1283 z "},"ŏ":{"ha":932,"x_min":71,"x_max":861,"o":"m 71 0 m 543 733 q 775 642 689 733 q 861 367 861 551 q 775 90 861 181 q 543 0 689 0 l 389 0 q 156 90 242 0 q 71 367 71 181 q 156 643 71 553 q 389 733 242 733 l 543 733 m 403 592 q 263 539 307 592 q 219 367 219 486 q 263 195 219 247 q 403 143 307 143 l 529 143 q 669 195 625 143 q 713 367 713 247 q 669 539 713 486 q 529 592 625 592 l 403 592 m 307 1079 l 307 1001 q 314 946 307 968 q 339 909 321 924 q 388 888 357 894 q 467 882 418 882 q 544 888 514 882 q 592 909 575 894 q 617 946 610 924 q 624 1001 624 968 l 624 1079 l 749 1079 l 749 1000 q 735 897 749 939 q 690 830 722 856 q 603 792 657 804 q 467 781 549 781 q 328 792 383 781 q 242 830 274 804 q 197 897 210 856 q 183 1000 183 939 l 183 1079 l 307 1079 z "},"Ő":{"ha":1133,"x_min":79,"x_max":1054,"o":"m 79 0 m 631 938 q 945 821 836 938 q 1054 467 1054 704 q 945 115 1054 231 q 631 0 836 0 l 503 0 q 188 115 297 0 q 79 467 79 231 q 188 821 79 704 q 503 938 297 938 l 631 938 m 503 774 q 305 701 367 774 q 243 467 243 629 q 304 235 243 306 q 503 164 365 164 l 631 164 q 827 235 765 164 q 889 468 889 307 q 828 701 889 629 q 631 774 767 774 l 503 774 m 896 1283 l 722 985 l 576 985 l 732 1283 l 896 1283 m 592 1283 l 418 985 l 272 985 l 428 1283 l 592 1283 z "},"ő":{"ha":932,"x_min":71,"x_max":861,"o":"m 71 0 m 543 733 q 775 642 689 733 q 861 367 861 551 q 775 90 861 181 q 543 0 689 0 l 389 0 q 156 90 242 0 q 71 367 71 181 q 156 643 71 553 q 389 733 242 733 l 543 733 m 403 592 q 263 539 307 592 q 219 367 219 486 q 263 195 219 247 q 403 143 307 143 l 529 143 q 669 195 625 143 q 713 367 713 247 q 669 539 713 486 q 529 592 625 592 l 403 592 m 793 1079 l 619 781 l 474 781 l 629 1079 l 793 1079 m 489 1079 l 315 781 l 169 781 l 325 1079 l 489 1079 z "},"Œ":{"ha":1644,"x_min":79,"x_max":1546,"o":"m 1544 938 l 1544 774 l 979 774 q 1050 544 1038 683 l 1538 544 l 1538 396 l 1051 396 q 982 164 1039 254 l 1546 164 l 1546 0 l 503 0 q 188 115 297 0 q 79 467 79 231 q 188 821 79 704 q 503 938 297 938 l 1544 938 m 503 774 q 305 701 367 774 q 243 468 243 629 q 305 235 243 307 q 503 164 367 164 l 631 164 q 827 235 765 164 q 889 468 889 307 q 828 701 889 629 q 631 774 767 774 l 503 774 z "},"œ":{"ha":1532,"x_min":71,"x_max":1457,"o":"m 543 733 q 765 653 683 733 q 847 712 796 690 q 972 733 897 733 l 1210 733 q 1399 674 1340 733 q 1457 508 1457 615 q 1400 352 1457 407 q 1208 297 1343 297 l 860 297 l 860 244 q 885 172 860 200 q 972 143 911 143 l 1421 143 l 1421 0 l 972 0 q 847 22 897 0 q 765 81 796 43 q 543 0 683 0 l 389 0 q 156 90 242 0 q 71 367 71 181 q 156 643 71 553 q 389 733 242 733 l 543 733 m 403 592 q 263 539 307 592 q 219 367 219 486 q 263 195 219 247 q 403 143 307 143 l 529 143 q 669 195 625 143 q 713 367 713 247 q 669 539 713 486 q 529 592 625 592 l 403 592 m 860 413 l 1204 413 q 1288 436 1264 413 q 1313 500 1313 460 q 1288 567 1313 542 q 1208 592 1263 592 l 972 592 q 885 563 911 592 q 860 490 860 533 l 860 413 z "},"Ŕ":{"ha":992,"x_min":111,"x_max":940,"o":"m 111 0 m 619 938 q 756 915 699 938 q 849 853 813 892 q 903 764 886 815 q 921 657 921 713 q 910 569 921 613 q 875 487 899 525 q 814 419 851 449 q 722 375 776 390 l 940 0 l 758 0 l 544 363 l 300 363 q 276 339 276 363 l 276 0 l 113 0 l 113 371 q 147 485 113 450 q 260 519 182 519 l 625 519 q 685 531 660 519 q 725 560 710 542 q 748 601 740 578 q 756 650 756 625 q 724 737 756 700 q 625 774 693 774 l 111 774 l 111 938 l 619 938 m 668 1283 l 494 985 l 349 985 l 504 1283 l 668 1283 z "},"ŕ":{"ha":643,"x_min":104,"x_max":604,"o":"m 104 0 m 604 733 l 604 592 l 346 592 q 251 497 251 592 l 251 0 l 104 0 l 104 519 q 149 682 104 631 q 303 733 194 733 l 604 733 m 544 1079 l 371 781 l 225 781 l 381 1079 l 544 1079 z "},"Ŗ":{"ha":992,"x_min":111,"x_max":940,"o":"m 111 0 m 619 938 q 756 915 699 938 q 849 853 813 892 q 903 764 886 815 q 921 657 921 713 q 910 569 921 613 q 875 487 899 525 q 814 419 851 449 q 722 375 776 390 l 940 0 l 758 0 l 544 363 l 300 363 q 276 339 276 363 l 276 0 l 113 0 l 113 371 q 147 485 113 450 q 260 519 182 519 l 625 519 q 685 531 660 519 q 725 560 710 542 q 748 601 740 578 q 756 650 756 625 q 724 737 756 700 q 625 774 693 774 l 111 774 l 111 938 l 619 938 m 574 -33 l 574 -182 q 404 -367 574 -367 l 358 -367 l 358 -256 l 375 -256 q 426 -197 426 -256 l 426 -33 l 574 -33 z "},"ŗ":{"ha":643,"x_min":35,"x_max":604,"o":"m 35 0 m 604 733 l 604 592 l 346 592 q 251 497 251 592 l 251 0 l 104 0 l 104 519 q 149 682 104 631 q 303 733 194 733 l 604 733 m 250 -33 l 250 -182 q 81 -367 250 -367 l 35 -367 l 35 -256 l 51 -256 q 103 -197 103 -256 l 103 -33 l 250 -33 z "},"Ř":{"ha":992,"x_min":111,"x_max":940,"o":"m 111 0 m 619 938 q 756 915 699 938 q 849 853 813 892 q 903 764 886 815 q 921 657 921 713 q 910 569 921 613 q 875 487 899 525 q 814 419 851 449 q 722 375 776 390 l 940 0 l 758 0 l 544 363 l 300 363 q 276 339 276 363 l 276 0 l 113 0 l 113 371 q 147 485 113 450 q 260 519 182 519 l 625 519 q 685 531 660 519 q 725 560 710 542 q 748 601 740 578 q 756 650 756 625 q 724 737 756 700 q 625 774 693 774 l 111 774 l 111 938 l 619 938 m 369 1283 l 461 1111 q 490 1099 469 1099 q 506 1101 499 1099 q 517 1111 514 1104 l 610 1283 l 767 1283 l 640 1057 q 582 1001 621 1018 q 489 985 543 985 q 396 1002 435 985 q 338 1057 357 1019 l 213 1283 l 369 1283 z "},"ř":{"ha":678,"x_min":99,"x_max":653,"o":"m 99 0 m 604 733 l 604 592 l 346 592 q 251 497 251 592 l 251 0 l 104 0 l 104 519 q 149 682 104 631 q 303 733 194 733 l 604 733 m 256 1079 l 347 907 q 376 894 356 894 q 392 897 385 894 q 403 907 400 900 l 496 1079 l 653 1079 l 526 853 q 468 797 507 814 q 375 781 429 781 q 282 798 321 781 q 224 853 243 815 l 99 1079 l 256 1079 z "},"Ś":{"ha":976,"x_min":71,"x_max":908,"o":"m 71 0 m 838 938 l 838 774 l 357 774 q 264 742 293 774 q 235 663 235 711 q 241 622 235 642 q 263 585 247 601 q 306 560 279 569 q 374 551 332 551 l 593 551 q 750 527 689 551 q 847 464 811 503 q 895 375 882 425 q 908 275 908 325 q 892 165 908 215 q 839 78 875 115 q 747 21 803 42 q 610 0 690 0 l 88 0 l 88 164 l 615 164 q 713 197 682 164 q 744 281 744 229 q 738 324 744 303 q 714 362 731 346 q 669 388 697 378 q 597 397 640 397 l 379 397 q 225 421 285 397 q 131 483 165 444 q 84 571 97 522 q 71 668 71 619 q 87 776 71 726 q 138 861 103 825 q 229 917 174 897 q 363 938 285 938 l 838 938 m 669 1283 l 496 985 l 350 985 l 506 1283 l 669 1283 z "},"ś":{"ha":814,"x_min":71,"x_max":746,"o":"m 71 0 m 717 733 l 717 592 l 311 592 q 238 571 260 592 q 215 508 215 550 q 237 449 215 469 q 319 429 258 429 l 492 429 q 617 413 568 429 q 695 368 667 396 q 735 303 724 340 q 746 222 746 265 q 733 133 746 174 q 690 63 719 92 q 615 17 661 33 q 506 0 569 0 l 79 0 l 79 143 l 506 143 q 579 162 557 143 q 601 224 601 181 q 577 287 601 268 q 497 306 553 306 l 324 306 q 199 323 247 306 q 122 370 150 340 q 82 439 93 400 q 71 519 71 478 q 126 676 71 618 q 310 733 182 733 l 717 733 m 592 1079 l 418 781 l 272 781 l 428 1079 l 592 1079 z "},"Ş":{"ha":976,"x_min":71,"x_max":908,"o":"m 71 0 m 838 938 l 838 774 l 357 774 q 264 742 293 774 q 235 663 235 711 q 241 622 235 642 q 263 585 247 601 q 306 560 279 569 q 374 551 332 551 l 593 551 q 750 527 689 551 q 847 464 811 503 q 895 375 882 425 q 908 275 908 325 q 892 165 908 215 q 839 78 875 115 q 747 21 803 42 q 610 0 690 0 l 88 0 l 88 164 l 615 164 q 713 197 682 164 q 744 281 744 229 q 738 324 744 303 q 714 362 731 346 q 669 388 697 378 q 597 397 640 397 l 379 397 q 225 421 285 397 q 131 483 165 444 q 84 571 97 522 q 71 668 71 619 q 87 776 71 726 q 138 861 103 825 q 229 917 174 897 q 363 938 285 938 l 838 938 m 564 -33 l 564 -182 q 394 -367 564 -367 l 349 -367 l 349 -256 l 365 -256 q 417 -197 417 -256 l 417 -33 l 564 -33 z "},"ş":{"ha":814,"x_min":71,"x_max":746,"o":"m 71 0 m 717 733 l 717 592 l 311 592 q 238 571 260 592 q 215 508 215 550 q 237 449 215 469 q 319 429 258 429 l 492 429 q 617 413 568 429 q 695 368 667 396 q 735 303 724 340 q 746 222 746 265 q 733 133 746 174 q 690 63 719 92 q 615 17 661 33 q 506 0 569 0 l 79 0 l 79 143 l 506 143 q 579 162 557 143 q 601 224 601 181 q 577 287 601 268 q 497 306 553 306 l 324 306 q 199 323 247 306 q 122 370 150 340 q 82 439 93 400 q 71 519 71 478 q 126 676 71 618 q 310 733 182 733 l 717 733 m 482 -33 l 482 -182 q 313 -367 482 -367 l 267 -367 l 267 -256 l 283 -256 q 335 -197 335 -256 l 335 -33 l 482 -33 z "},"Š":{"ha":976,"x_min":71,"x_max":908,"o":"m 71 0 m 838 938 l 838 774 l 357 774 q 264 742 293 774 q 235 663 235 711 q 241 622 235 642 q 263 585 247 601 q 306 560 279 569 q 374 551 332 551 l 593 551 q 750 527 689 551 q 847 464 811 503 q 895 375 882 425 q 908 275 908 325 q 892 165 908 215 q 839 78 875 115 q 747 21 803 42 q 610 0 690 0 l 88 0 l 88 164 l 615 164 q 713 197 682 164 q 744 281 744 229 q 738 324 744 303 q 714 362 731 346 q 669 388 697 378 q 597 397 640 397 l 379 397 q 225 421 285 397 q 131 483 165 444 q 84 571 97 522 q 71 668 71 619 q 87 776 71 726 q 138 861 103 825 q 229 917 174 897 q 363 938 285 938 l 838 938 m 375 1283 l 467 1111 q 496 1099 475 1099 q 512 1101 504 1099 q 522 1111 519 1104 l 615 1283 l 772 1283 l 646 1057 q 588 1001 626 1018 q 494 985 549 985 q 401 1002 440 985 q 343 1057 363 1019 l 218 1283 l 375 1283 z "},"š":{"ha":814,"x_min":71,"x_max":746,"o":"m 71 0 m 717 733 l 717 592 l 311 592 q 238 571 260 592 q 215 508 215 550 q 237 449 215 469 q 319 429 258 429 l 492 429 q 617 413 568 429 q 695 368 667 396 q 735 303 724 340 q 746 222 746 265 q 733 133 746 174 q 690 63 719 92 q 615 17 661 33 q 506 0 569 0 l 79 0 l 79 143 l 506 143 q 579 162 557 143 q 601 224 601 181 q 577 287 601 268 q 497 306 553 306 l 324 306 q 199 323 247 306 q 122 370 150 340 q 82 439 93 400 q 71 519 71 478 q 126 676 71 618 q 310 733 182 733 l 717 733 m 300 1079 l 392 907 q 421 894 400 894 q 437 897 429 894 q 447 907 444 900 l 540 1079 l 697 1079 l 571 853 q 513 797 551 814 q 419 781 474 781 q 326 798 365 781 q 268 853 288 815 l 143 1079 l 300 1079 z "},"Ţ":{"ha":793,"x_min":40,"x_max":753,"o":"m 40 0 m 753 938 l 753 774 l 479 774 l 479 0 l 314 0 l 314 774 l 40 774 l 40 938 l 753 938 m 471 -33 l 471 -182 q 301 -367 471 -367 l 256 -367 l 256 -256 l 272 -256 q 324 -197 324 -256 l 324 -33 l 471 -33 z "},"ţ":{"ha":521,"x_min":32,"x_max":483,"o":"m 32 0 m 132 733 l 132 907 l 281 907 l 281 733 l 483 733 l 483 592 l 281 592 l 281 244 q 303 158 281 182 q 379 135 326 135 l 481 135 l 481 0 l 349 0 q 251 13 292 0 q 183 54 210 25 q 144 132 157 83 q 132 253 132 181 l 132 592 l 32 592 l 32 733 l 132 733 m 361 -33 l 361 -182 q 192 -367 361 -367 l 146 -367 l 146 -256 l 163 -256 q 214 -197 214 -256 l 214 -33 l 361 -33 z "},"Ť":{"ha":793,"x_min":40,"x_max":753,"o":"m 40 0 m 753 938 l 753 774 l 479 774 l 479 0 l 314 0 l 314 774 l 40 774 l 40 938 l 753 938 m 276 1283 l 368 1111 q 397 1099 376 1099 q 413 1101 406 1099 q 424 1111 421 1104 l 517 1283 l 674 1283 l 547 1057 q 489 1001 528 1018 q 396 985 450 985 q 303 1002 342 985 q 244 1057 264 1019 l 119 1283 l 276 1283 z "},"ť":{"ha":682,"x_min":32,"x_max":718,"o":"m 32 0 m 132 733 l 132 907 l 281 907 l 281 733 l 483 733 l 483 592 l 281 592 l 281 244 q 303 158 281 182 q 379 135 326 135 l 481 135 l 481 0 l 349 0 q 251 13 292 0 q 183 54 210 25 q 144 132 157 83 q 132 253 132 181 l 132 592 l 32 592 l 32 733 l 132 733 m 718 1050 l 718 901 q 549 717 718 717 l 503 717 l 503 828 l 519 828 q 571 886 571 828 l 571 1050 l 718 1050 z "},"Ŧ":{"ha":793,"x_min":40,"x_max":753,"o":"m 314 494 l 314 774 l 40 774 l 40 938 l 753 938 l 753 774 l 479 774 l 479 494 l 715 494 l 715 371 l 479 371 l 479 0 l 314 0 l 314 371 l 78 371 l 78 494 l 314 494 z "},"ŧ":{"ha":536,"x_min":32,"x_max":499,"o":"m 281 907 l 281 733 l 483 733 l 483 592 l 281 592 l 281 436 l 499 436 l 499 314 l 281 314 l 281 244 q 303 158 281 182 q 379 135 326 135 l 481 135 l 481 0 l 349 0 q 251 13 292 0 q 183 54 210 25 q 144 132 157 83 q 132 253 132 181 l 132 314 l 32 314 l 32 436 l 132 436 l 132 592 l 32 592 l 32 733 l 132 733 l 132 907 l 281 907 z "},"Ũ":{"ha":1017,"x_min":107,"x_max":911,"o":"m 107 0 m 274 938 l 274 311 q 310 202 274 240 q 429 164 347 164 l 596 164 q 713 202 675 164 q 750 311 750 240 l 750 938 l 911 938 l 911 299 q 835 75 911 150 q 607 0 758 0 l 410 0 q 107 299 107 0 l 107 938 l 274 938 m 826 1200 l 826 1076 l 189 1076 l 189 1200 l 826 1200 z "},"ũ":{"ha":975,"x_min":101,"x_max":874,"o":"m 101 0 m 250 733 l 250 294 q 297 186 250 229 q 431 143 343 143 l 550 143 q 683 186 638 143 q 729 294 729 229 l 729 733 l 874 733 l 874 289 q 853 172 874 225 q 793 81 833 119 q 694 22 753 43 q 556 0 635 0 l 419 0 q 281 22 340 0 q 182 81 222 43 q 122 172 142 119 q 101 289 101 225 l 101 733 l 250 733 m 807 996 l 807 872 l 169 872 l 169 996 l 807 996 z "},"Ū":{"ha":1017,"x_min":107,"x_max":911,"o":"m 107 0 m 274 938 l 274 311 q 310 202 274 240 q 429 164 347 164 l 596 164 q 713 202 675 164 q 750 311 750 240 l 750 938 l 911 938 l 911 299 q 835 75 911 150 q 607 0 758 0 l 410 0 q 107 299 107 0 l 107 938 l 274 938 m 826 1200 l 826 1076 l 189 1076 l 189 1200 l 826 1200 z "},"ū":{"ha":975,"x_min":101,"x_max":874,"o":"m 101 0 m 250 733 l 250 294 q 297 186 250 229 q 431 143 343 143 l 550 143 q 683 186 638 143 q 729 294 729 229 l 729 733 l 874 733 l 874 289 q 853 172 874 225 q 793 81 833 119 q 694 22 753 43 q 556 0 635 0 l 419 0 q 281 22 340 0 q 182 81 222 43 q 122 172 142 119 q 101 289 101 225 l 101 733 l 250 733 m 807 996 l 807 872 l 169 872 l 169 996 l 807 996 z "},"Ů":{"ha":1017,"x_min":107,"x_max":911,"o":"m 107 0 m 274 938 l 274 311 q 310 202 274 240 q 429 164 347 164 l 596 164 q 713 202 675 164 q 750 311 750 240 l 750 938 l 911 938 l 911 299 q 835 75 911 150 q 607 0 758 0 l 410 0 q 107 299 107 0 l 107 938 l 274 938 m 556 1283 q 657 1244 619 1283 q 694 1124 694 1206 q 657 1003 694 1043 q 556 964 619 964 l 460 964 q 358 1003 394 964 q 321 1124 321 1043 q 358 1244 321 1206 q 460 1283 394 1283 l 556 1283 m 468 1213 q 414 1192 431 1213 q 397 1124 397 1171 q 414 1057 397 1078 q 468 1036 431 1036 l 546 1036 q 599 1057 582 1036 q 617 1124 617 1078 q 599 1192 617 1171 q 546 1213 582 1213 l 468 1213 z "},"ů":{"ha":975,"x_min":101,"x_max":874,"o":"m 101 0 m 250 733 l 250 294 q 297 186 250 229 q 431 143 343 143 l 550 143 q 683 186 638 143 q 729 294 729 229 l 729 733 l 874 733 l 874 289 q 853 172 874 225 q 793 81 833 119 q 694 22 753 43 q 556 0 635 0 l 419 0 q 281 22 340 0 q 182 81 222 43 q 122 172 142 119 q 101 289 101 225 l 101 733 l 250 733 m 536 1119 q 638 1081 600 1119 q 675 960 675 1042 q 638 840 675 879 q 536 800 600 800 l 440 800 q 338 840 375 800 q 301 960 301 879 q 338 1081 301 1042 q 440 1119 375 1119 l 536 1119 m 449 1049 q 394 1028 411 1049 q 378 960 378 1007 q 394 893 378 914 q 449 872 411 872 l 526 872 q 580 893 563 872 q 597 960 597 914 q 580 1028 597 1007 q 526 1049 563 1049 l 449 1049 z "},"Ű":{"ha":1017,"x_min":107,"x_max":911,"o":"m 107 0 m 274 938 l 274 311 q 310 202 274 240 q 429 164 347 164 l 596 164 q 713 202 675 164 q 750 311 750 240 l 750 938 l 911 938 l 911 299 q 835 75 911 150 q 607 0 758 0 l 410 0 q 107 299 107 0 l 107 938 l 274 938 m 838 1283 l 664 985 l 518 985 l 674 1283 l 838 1283 m 533 1283 l 360 985 l 214 985 l 369 1283 l 533 1283 z "},"ű":{"ha":975,"x_min":101,"x_max":874,"o":"m 101 0 m 250 733 l 250 294 q 297 186 250 229 q 431 143 343 143 l 550 143 q 683 186 638 143 q 729 294 729 229 l 729 733 l 874 733 l 874 289 q 853 172 874 225 q 793 81 833 119 q 694 22 753 43 q 556 0 635 0 l 419 0 q 281 22 340 0 q 182 81 222 43 q 122 172 142 119 q 101 289 101 225 l 101 733 l 250 733 m 818 1079 l 644 781 l 499 781 l 654 1079 l 818 1079 m 514 1079 l 340 781 l 194 781 l 350 1079 l 514 1079 z "},"Ų":{"ha":1017,"x_min":107,"x_max":911,"o":"m 525 0 l 410 0 q 107 299 107 0 l 107 938 l 274 938 l 274 311 q 310 202 274 240 q 429 164 347 164 l 596 164 q 713 202 675 164 q 750 311 750 240 l 750 938 l 911 938 l 911 299 q 835 76 911 151 q 611 0 760 1 l 478 -57 q 429 -91 447 -71 q 411 -144 411 -111 q 436 -205 411 -182 q 507 -228 461 -228 l 638 -228 l 638 -367 l 461 -367 q 324 -321 369 -367 q 278 -204 278 -275 q 310 -106 278 -142 q 400 -47 342 -71 l 525 0 z "},"ų":{"ha":975,"x_min":101,"x_max":874,"o":"m 496 0 l 419 0 q 281 22 340 0 q 182 81 222 43 q 122 172 142 119 q 101 289 101 225 l 101 733 l 250 733 l 250 294 q 297 186 250 229 q 431 143 343 143 l 550 143 q 683 186 638 143 q 729 294 729 229 l 729 733 l 874 733 l 874 289 q 854 174 874 226 q 798 84 835 122 q 707 24 761 46 q 582 0 653 1 l 449 -57 q 400 -91 418 -71 q 382 -144 382 -111 q 407 -205 382 -182 q 478 -228 432 -228 l 608 -228 l 608 -367 l 432 -367 q 294 -321 340 -367 q 249 -204 249 -275 q 281 -106 249 -142 q 371 -47 313 -69 l 496 0 z "},"Ŵ":{"ha":1453,"x_min":46,"x_max":1410,"o":"m 46 0 m 218 938 l 288 206 q 303 159 290 175 q 344 143 317 143 q 403 194 393 143 l 514 769 q 585 908 532 861 q 729 954 638 954 q 872 908 821 954 q 939 769 922 861 l 1043 194 q 1103 143 1051 143 q 1144 159 1131 143 q 1160 206 1157 175 l 1239 938 l 1410 938 l 1322 196 q 1303 110 1317 150 q 1263 43 1289 71 q 1197 -1 1236 15 q 1103 -17 1158 -17 q 960 28 1014 -17 q 888 174 906 74 l 785 746 q 728 796 776 796 q 671 746 681 796 l 561 174 q 488 31 542 78 q 340 -17 435 -17 q 248 -1 286 -17 q 185 42 210 14 q 146 110 160 71 q 126 196 132 149 l 46 938 l 218 938 m 575 1213 q 633 1267 594 1251 q 728 1283 672 1283 q 820 1267 782 1283 q 878 1213 858 1250 l 1004 985 l 847 985 l 754 1158 q 726 1171 747 1171 q 699 1158 706 1171 l 607 985 l 450 985 l 575 1213 z "},"ŵ":{"ha":1357,"x_min":42,"x_max":1315,"o":"m 42 0 m 201 733 l 267 161 q 281 126 269 138 q 319 114 293 114 q 356 124 344 114 q 374 154 368 135 l 478 599 q 543 710 494 672 q 679 747 592 747 q 813 710 767 747 q 875 599 858 672 l 974 154 q 1029 114 982 114 q 1065 126 1054 114 q 1079 161 1076 138 l 1156 733 l 1315 733 l 1233 153 q 1175 30 1222 76 q 1028 -17 1128 -17 q 894 21 942 -17 q 831 135 847 58 l 732 581 q 713 608 728 600 q 678 617 699 617 q 624 581 632 617 l 519 135 q 453 21 501 58 q 317 -17 404 -17 q 230 -4 265 -17 q 172 31 194 8 q 136 84 149 53 q 118 153 124 115 l 42 733 l 201 733 m 526 1008 q 585 1063 546 1047 q 679 1079 624 1079 q 772 1063 733 1079 q 829 1008 810 1046 l 956 781 l 799 781 l 706 954 q 678 967 699 967 q 650 954 657 967 l 558 781 l 401 781 l 526 1008 z "},"Ŷ":{"ha":957,"x_min":18,"x_max":939,"o":"m 18 0 m 217 938 l 479 536 l 744 938 l 939 938 l 561 404 l 561 0 l 396 0 l 396 404 l 18 938 l 217 938 m 326 1213 q 385 1267 346 1251 q 479 1283 424 1283 q 572 1267 533 1283 q 629 1213 610 1250 l 756 985 l 599 985 l 506 1158 q 478 1171 499 1171 q 450 1158 457 1171 l 358 985 l 201 985 l 326 1213 z "},"ŷ":{"ha":899,"x_min":26,"x_max":872,"o":"m 26 0 m 872 733 l 431 -294 l 272 -294 l 410 26 q 319 47 347 26 q 272 117 290 68 l 26 733 l 182 733 l 403 188 q 418 163 410 168 q 447 157 426 157 l 467 157 l 715 733 l 872 733 m 289 1008 q 347 1063 308 1047 q 442 1079 386 1079 q 534 1063 496 1079 q 592 1008 572 1046 l 718 781 l 561 781 l 468 954 q 440 967 461 967 q 413 954 419 967 l 321 781 l 164 781 l 289 1008 z "},"Ÿ":{"ha":957,"x_min":18,"x_max":939,"o":"m 18 0 m 217 938 l 479 536 l 744 938 l 939 938 l 561 404 l 561 0 l 396 0 l 396 404 l 18 938 l 217 938 m 385 1214 l 385 1043 l 236 1043 l 236 1214 l 385 1214 m 718 1214 l 718 1043 l 569 1043 l 569 1214 l 718 1214 z "},"Ź":{"ha":1032,"x_min":79,"x_max":956,"o":"m 79 0 m 728 938 q 898 884 840 938 q 956 732 956 831 q 918 598 956 651 q 806 513 881 544 l 294 294 q 260 267 272 285 q 247 225 247 249 q 265 181 247 197 q 317 164 282 164 l 935 164 l 935 0 l 306 0 q 136 53 193 0 q 79 206 79 107 q 117 340 79 286 q 231 425 154 393 l 739 643 q 788 713 788 663 q 770 757 788 740 q 717 774 753 774 l 113 774 l 113 938 l 728 938 m 699 1283 l 525 985 l 379 985 l 535 1283 l 699 1283 z "},"ź":{"ha":867,"x_min":71,"x_max":797,"o":"m 71 0 m 608 733 q 751 688 704 733 q 797 565 797 642 q 764 453 797 497 q 672 389 731 410 l 251 236 q 213 186 213 221 q 268 142 213 142 l 782 142 l 782 0 l 260 0 q 117 46 164 0 q 71 168 71 92 q 101 276 71 231 q 196 346 132 322 l 618 497 q 649 519 642 506 q 657 549 657 533 q 600 592 657 592 l 97 592 l 97 733 l 608 733 m 608 1079 l 435 781 l 289 781 l 444 1079 l 608 1079 z "},"Ż":{"ha":1032,"x_min":79,"x_max":956,"o":"m 79 0 m 728 938 q 898 884 840 938 q 956 732 956 831 q 918 598 956 651 q 806 513 881 544 l 294 294 q 260 267 272 285 q 247 225 247 249 q 265 181 247 197 q 317 164 282 164 l 935 164 l 935 0 l 306 0 q 136 53 193 0 q 79 206 79 107 q 117 340 79 286 q 231 425 154 393 l 739 643 q 788 713 788 663 q 770 757 788 740 q 717 774 753 774 l 113 774 l 113 938 l 728 938 m 594 1214 l 594 1043 l 446 1043 l 446 1214 l 594 1214 z "},"ż":{"ha":867,"x_min":71,"x_max":797,"o":"m 71 0 m 608 733 q 751 688 704 733 q 797 565 797 642 q 764 453 797 497 q 672 389 731 410 l 251 236 q 213 186 213 221 q 268 142 213 142 l 782 142 l 782 0 l 260 0 q 117 46 164 0 q 71 168 71 92 q 101 276 71 231 q 196 346 132 322 l 618 497 q 649 519 642 506 q 657 549 657 533 q 600 592 657 592 l 97 592 l 97 733 l 608 733 m 515 1010 l 515 839 l 367 839 l 367 1010 l 515 1010 z "},"Ž":{"ha":1032,"x_min":79,"x_max":956,"o":"m 79 0 m 728 938 q 898 884 840 938 q 956 732 956 831 q 918 598 956 651 q 806 513 881 544 l 294 294 q 260 267 272 285 q 247 225 247 249 q 265 181 247 197 q 317 164 282 164 l 935 164 l 935 0 l 306 0 q 136 53 193 0 q 79 206 79 107 q 117 340 79 286 q 231 425 154 393 l 739 643 q 788 713 788 663 q 770 757 788 740 q 717 774 753 774 l 113 774 l 113 938 l 728 938 m 401 1283 l 493 1111 q 522 1099 501 1099 q 538 1101 531 1099 q 549 1111 546 1104 l 642 1283 l 799 1283 l 672 1057 q 614 1001 653 1018 q 521 985 575 985 q 428 1002 467 985 q 369 1057 389 1019 l 244 1283 l 401 1283 z "},"ž":{"ha":867,"x_min":71,"x_max":797,"o":"m 71 0 m 608 733 q 751 688 704 733 q 797 565 797 642 q 764 453 797 497 q 672 389 731 410 l 251 236 q 213 186 213 221 q 268 142 213 142 l 782 142 l 782 0 l 260 0 q 117 46 164 0 q 71 168 71 92 q 101 276 71 231 q 196 346 132 322 l 618 497 q 649 519 642 506 q 657 549 657 533 q 600 592 657 592 l 97 592 l 97 733 l 608 733 m 313 1079 l 404 907 q 433 894 413 894 q 449 897 442 894 q 460 907 457 900 l 553 1079 l 710 1079 l 583 853 q 525 797 564 814 q 432 781 486 781 q 339 798 378 781 q 281 853 300 815 l 156 1079 l 313 1079 z "},"ƀ":{"ha":965,"x_min":106,"x_max":894,"o":"m 253 1051 l 253 996 l 743 996 l 743 872 l 253 872 l 253 733 l 578 733 q 809 642 724 733 q 894 367 894 551 q 809 90 894 181 q 578 0 724 0 l 375 0 q 174 77 242 0 q 106 314 106 154 l 106 1051 l 253 1051 m 253 592 l 253 321 q 290 185 253 226 q 418 143 328 143 l 563 143 q 702 195 658 143 q 746 367 746 247 q 702 539 746 486 q 563 592 658 592 l 253 592 z "},"Ɓ":{"ha":1249,"x_min":10,"x_max":1174,"o":"m 856 938 q 998 919 939 938 q 1095 866 1057 900 q 1151 785 1133 832 q 1169 681 1169 738 q 1135 549 1169 599 q 1035 472 1101 499 q 1138 392 1101 444 q 1174 258 1174 340 q 1156 154 1174 201 q 1099 73 1138 107 q 1002 19 1061 39 q 860 0 943 0 l 443 0 q 365 76 365 0 l 365 811 l 251 811 q 182 784 207 811 q 157 699 157 757 l 157 582 l 10 582 l 10 682 q 63 879 10 821 q 219 938 117 938 l 856 938 m 526 178 q 544 163 526 163 l 864 163 q 974 194 939 163 q 1008 285 1008 226 q 864 406 1008 406 l 526 406 l 526 178 m 526 542 l 860 542 q 1004 654 1004 542 q 970 743 1004 710 q 861 776 936 776 l 526 776 l 526 542 z "},"Ƈ":{"ha":1044,"x_min":79,"x_max":1044,"o":"m 696 938 q 767 1052 715 1018 q 906 1086 819 1086 l 1044 1086 l 1044 951 l 938 951 q 859 923 885 951 q 833 828 833 894 l 833 725 l 685 725 l 685 774 l 503 774 q 305 702 367 774 q 243 468 243 631 q 304 235 243 307 q 503 164 365 164 l 865 164 l 865 0 l 503 0 q 188 116 297 0 q 79 468 79 232 q 188 822 79 706 q 503 938 297 938 l 696 938 z "},"ƈ":{"ha":947,"x_min":71,"x_max":946,"o":"m 599 733 q 669 846 618 813 q 807 879 721 879 l 946 879 l 946 744 l 839 744 q 760 716 786 744 q 735 621 735 688 l 735 518 l 586 518 l 586 592 l 403 592 q 263 539 307 592 q 219 367 219 486 q 263 195 219 247 q 403 143 307 143 l 767 143 l 767 0 l 389 0 q 156 90 242 0 q 71 367 71 181 q 156 643 71 553 q 389 733 242 733 l 599 733 z "},"Ɗ":{"ha":1271,"x_min":10,"x_max":1190,"o":"m 768 938 q 1083 822 975 938 q 1190 468 1190 707 q 1083 115 1190 231 q 768 0 975 0 l 438 0 q 360 76 360 0 l 360 811 l 251 811 q 182 784 207 811 q 157 699 157 757 l 157 582 l 10 582 l 10 682 q 63 879 10 821 q 219 938 117 938 l 768 938 m 524 181 q 542 164 524 164 l 768 164 q 965 236 904 164 q 1026 469 1026 308 q 966 702 1026 631 q 768 774 906 774 l 524 774 l 524 181 z "},"Ǝ":{"ha":963,"x_min":100,"x_max":886,"o":"m 569 938 q 712 919 653 938 q 809 866 771 900 q 865 786 847 832 q 883 686 883 740 q 850 551 883 603 q 751 471 817 499 q 852 390 818 443 q 886 251 886 336 q 868 153 886 199 q 813 73 850 107 q 716 19 775 39 q 574 0 657 0 l 100 0 l 100 164 l 574 164 q 681 195 646 164 q 715 283 715 226 q 572 396 715 396 l 108 396 l 108 544 l 568 544 q 676 572 640 544 q 711 657 711 599 q 678 742 711 710 q 569 774 644 774 l 101 774 l 101 938 l 569 938 z "},"Ə":{"ha":1013,"x_min":79,"x_max":939,"o":"m 371 0 q 237 23 292 0 q 147 85 182 46 q 95 178 111 125 q 79 293 79 232 q 140 486 79 415 q 328 557 201 557 l 769 557 q 693 722 754 671 q 515 774 632 774 l 129 774 l 129 938 l 515 938 q 830 822 721 938 q 939 468 939 706 q 830 116 939 232 q 515 0 721 0 l 371 0 m 515 164 q 703 223 642 164 q 774 415 764 282 l 344 415 q 258 384 286 415 q 229 296 229 353 q 260 201 229 238 q 360 164 290 164 l 515 164 z "},"ƒ":{"ha":521,"x_min":-64,"x_max":483,"o":"m 132 733 l 132 799 q 144 919 132 871 q 183 997 157 968 q 251 1039 210 1026 q 349 1051 292 1051 l 481 1051 l 481 917 l 379 917 q 303 893 326 917 q 281 807 281 869 l 281 733 l 483 733 l 483 592 l 281 592 l 281 -42 q 268 -162 281 -114 q 229 -240 256 -211 q 162 -282 203 -269 q 65 -294 121 -294 l -64 -294 l -64 -153 l 32 -153 q 109 -129 86 -153 q 132 -43 132 -106 l 132 592 l 32 592 l 32 733 l 132 733 z "},"Ɣ":{"ha":1089,"x_min":26,"x_max":1065,"o":"m 210 938 l 544 383 l 882 938 l 1065 938 l 632 240 l 732 76 q 813 -174 813 -64 q 756 -314 813 -261 q 586 -367 700 -367 l 504 -367 q 334 -314 390 -367 q 278 -174 278 -261 q 358 76 278 -64 l 458 240 l 26 938 l 210 938 m 544 101 l 482 0 q 424 -112 446 -60 q 401 -203 401 -165 q 428 -264 401 -242 q 514 -286 454 -286 l 578 -286 q 663 -264 636 -286 q 689 -203 689 -242 q 667 -112 689 -165 q 608 0 646 -60 l 544 101 z "},"Ƙ":{"ha":1065,"x_min":114,"x_max":1067,"o":"m 685 806 q 739 893 713 860 q 792 945 765 926 q 849 970 819 964 q 914 976 879 976 l 1067 976 l 1067 842 l 946 842 q 915 838 929 842 q 888 824 901 835 q 860 794 874 814 q 829 742 846 775 l 781 646 q 713 542 749 583 q 618 475 676 500 q 676 452 651 467 q 723 416 701 438 q 764 365 744 394 q 804 294 783 335 l 956 0 l 772 0 l 629 278 q 592 338 610 315 q 546 372 574 360 q 476 388 518 385 q 368 392 435 392 l 278 392 l 278 0 l 114 0 l 114 938 l 278 938 l 278 540 l 368 540 q 466 544 428 540 q 529 560 504 547 q 572 595 554 572 q 608 657 589 618 l 685 806 z "},"ƙ":{"ha":836,"x_min":106,"x_max":810,"o":"m 106 783 q 119 908 106 857 q 160 991 133 960 q 229 1036 188 1022 q 326 1050 271 1050 l 465 1050 l 465 915 l 358 915 q 279 887 306 915 q 253 792 253 858 l 253 429 l 321 429 q 392 431 364 429 q 440 442 421 433 q 474 467 460 450 q 504 513 488 483 l 626 733 l 786 733 l 658 503 q 601 423 631 454 q 528 372 572 392 q 613 323 581 357 q 678 231 644 289 l 810 0 l 644 0 l 522 217 q 490 263 506 246 q 453 290 475 281 q 401 302 432 299 q 321 306 369 306 l 253 306 l 253 0 l 106 0 l 106 783 z "},"Ɲ":{"ha":1221,"x_min":-83,"x_max":1110,"o":"m 113 750 q 165 898 113 842 q 328 954 218 954 q 476 908 425 954 q 556 781 526 861 l 829 182 q 851 154 838 165 q 889 143 865 143 q 930 158 915 143 q 944 196 944 172 l 944 938 l 1110 938 l 1110 189 q 1056 40 1110 96 q 894 -17 1003 -17 q 809 -5 846 -17 q 745 30 772 7 q 699 85 718 53 q 665 157 679 117 l 392 756 q 333 796 374 796 q 291 781 306 796 q 276 742 276 767 l 276 -42 q 261 -162 276 -114 q 217 -240 246 -211 q 144 -282 188 -269 q 46 -294 101 -294 l -83 -294 l -83 -153 l 13 -153 q 90 -129 67 -153 q 113 -43 113 -106 l 113 750 z "},"Ơ":{"ha":1133,"x_min":79,"x_max":1133,"o":"m 903 938 q 966 958 947 938 q 985 1033 985 979 l 985 1181 l 1133 1181 l 1133 1035 q 1124 928 1133 972 q 1093 856 1114 883 q 1040 813 1072 828 q 964 796 1008 799 q 1054 467 1054 678 q 945 115 1054 231 q 631 0 836 0 l 503 0 q 188 115 297 0 q 79 467 79 231 q 188 821 79 704 q 503 938 297 938 l 903 938 m 503 774 q 305 701 367 774 q 243 468 243 629 q 305 235 243 307 q 503 164 367 164 l 631 164 q 827 235 765 164 q 889 468 889 307 q 828 701 889 629 q 631 774 767 774 l 503 774 z "},"ơ":{"ha":1004,"x_min":71,"x_max":989,"o":"m 758 733 q 822 754 803 733 q 840 829 840 775 l 840 976 l 989 976 l 989 831 q 946 649 989 701 q 811 592 903 596 q 848 492 835 549 q 861 365 861 436 q 775 90 861 181 q 543 0 689 0 l 389 0 q 156 90 242 0 q 71 365 71 181 q 156 643 71 553 q 389 733 242 733 l 758 733 m 403 592 q 263 539 307 592 q 219 365 219 486 q 263 195 219 247 q 403 143 307 143 l 529 143 q 669 195 625 143 q 713 365 713 247 q 669 539 713 486 q 529 592 625 592 l 403 592 z "},"Ư":{"ha":1201,"x_min":107,"x_max":1201,"o":"m 274 938 l 274 311 q 310 202 274 240 q 429 164 347 164 l 596 164 q 713 202 675 164 q 750 311 750 240 l 750 938 l 971 938 q 1034 958 1015 938 q 1053 1033 1053 979 l 1053 1181 l 1201 1181 l 1201 1035 q 1190 921 1201 967 q 1153 847 1178 875 q 1092 808 1129 819 q 1003 796 1054 796 l 911 796 l 911 299 q 835 75 911 150 q 607 0 758 0 l 410 0 q 107 299 107 0 l 107 938 l 274 938 z "},"ư":{"ha":1164,"x_min":101,"x_max":1164,"o":"m 250 733 l 250 294 q 297 186 250 229 q 431 143 343 143 l 550 143 q 683 186 638 143 q 729 294 729 229 l 729 733 l 933 733 q 997 754 978 733 q 1015 829 1015 775 l 1015 976 l 1164 976 l 1164 831 q 1152 717 1164 763 q 1116 643 1140 671 q 1054 603 1092 615 q 965 592 1017 592 l 874 592 l 874 289 q 853 172 874 225 q 793 81 833 119 q 694 22 753 43 q 556 0 635 0 l 419 0 q 281 22 340 0 q 182 81 222 43 q 122 172 142 119 q 101 289 101 225 l 101 733 l 250 733 z "},"Ƴ":{"ha":1044,"x_min":18,"x_max":1044,"o":"m 561 404 l 561 0 l 396 0 l 396 404 l 18 938 l 217 938 l 479 536 l 674 829 q 731 903 704 875 q 783 949 757 932 q 838 971 810 965 q 899 976 865 976 l 1044 976 l 1044 842 l 931 842 q 906 840 918 842 q 881 830 894 838 q 851 807 867 822 q 818 765 836 792 l 561 404 z "},"ƴ":{"ha":1063,"x_min":26,"x_max":1064,"o":"m 431 -294 l 272 -294 l 410 26 q 319 47 347 26 q 272 117 290 68 l 26 733 l 182 733 l 403 188 q 418 163 410 168 q 447 157 426 157 l 467 157 l 696 697 q 745 790 721 754 q 797 847 769 826 q 856 874 825 867 q 925 882 888 882 l 1064 882 l 1064 747 l 957 747 q 898 734 926 747 q 846 667 869 721 l 431 -294 z "},"Ǆ":{"ha":2056,"x_min":114,"x_max":1979,"o":"m 114 0 m 522 938 q 837 822 729 938 q 944 468 944 707 q 837 115 944 231 q 522 0 729 0 l 192 0 q 114 76 114 0 l 114 861 q 192 938 114 938 l 522 938 m 278 181 q 296 164 278 164 l 522 164 q 719 236 658 164 q 781 469 781 308 q 720 702 781 631 q 522 774 660 774 l 296 774 q 278 757 278 774 l 278 181 m 1751 938 q 1922 884 1864 938 q 1979 732 1979 831 q 1942 598 1979 651 q 1829 513 1904 544 l 1318 294 q 1283 267 1296 285 q 1271 225 1271 249 q 1288 181 1271 197 q 1340 164 1306 164 l 1958 164 l 1958 0 l 1329 0 q 1160 53 1217 0 q 1103 206 1103 107 q 1140 340 1103 286 q 1254 425 1178 393 l 1763 643 q 1811 713 1811 663 q 1794 757 1811 740 q 1740 774 1776 774 l 1136 774 l 1136 938 l 1751 938 m 1425 1283 l 1517 1111 q 1546 1099 1525 1099 q 1562 1101 1554 1099 q 1572 1111 1569 1104 l 1665 1283 l 1822 1283 l 1696 1057 q 1638 1001 1676 1018 q 1544 985 1599 985 q 1451 1002 1490 985 q 1393 1057 1413 1019 l 1268 1283 l 1425 1283 z "},"ǅ":{"ha":1889,"x_min":114,"x_max":1821,"o":"m 114 0 m 522 938 q 837 822 729 938 q 944 468 944 707 q 837 115 944 231 q 522 0 729 0 l 192 0 q 114 76 114 0 l 114 861 q 192 938 114 938 l 522 938 m 278 181 q 296 164 278 164 l 522 164 q 719 236 658 164 q 781 469 781 308 q 720 702 781 631 q 522 774 660 774 l 296 774 q 278 757 278 774 l 278 181 m 1632 733 q 1774 688 1728 733 q 1821 565 1821 642 q 1788 453 1821 497 q 1696 389 1754 410 l 1275 236 q 1236 186 1236 221 q 1292 142 1236 142 l 1806 142 l 1806 0 l 1283 0 q 1141 46 1188 0 q 1094 168 1094 92 q 1125 276 1094 231 q 1219 346 1156 322 l 1642 497 q 1673 519 1665 506 q 1681 549 1681 533 q 1624 592 1681 592 l 1121 592 l 1121 733 l 1632 733 m 1336 1079 l 1428 907 q 1457 894 1436 894 q 1473 897 1465 894 q 1483 907 1481 900 l 1576 1079 l 1733 1079 l 1607 853 q 1549 797 1588 814 q 1456 781 1510 781 q 1363 798 1401 781 q 1304 853 1324 815 l 1179 1079 l 1336 1079 z "},"ǆ":{"ha":1831,"x_min":71,"x_max":1763,"o":"m 71 0 m 861 1051 l 861 314 q 792 77 861 154 q 592 0 724 0 l 389 0 q 156 90 242 0 q 71 367 71 181 q 156 643 71 553 q 389 733 242 733 l 713 733 l 713 1051 l 861 1051 m 549 143 q 675 185 638 143 q 713 321 713 226 l 713 592 l 403 592 q 263 539 307 592 q 219 367 219 486 q 263 195 219 247 q 403 143 307 143 l 549 143 m 1574 733 q 1716 688 1669 733 q 1763 565 1763 642 q 1729 453 1763 497 q 1638 389 1696 410 l 1217 236 q 1178 186 1178 221 q 1233 142 1178 142 l 1747 142 l 1747 0 l 1225 0 q 1083 46 1129 0 q 1036 168 1036 92 q 1067 276 1036 231 q 1161 346 1097 322 l 1583 497 q 1615 519 1607 506 q 1622 549 1622 533 q 1565 592 1622 592 l 1063 592 l 1063 733 l 1574 733 m 1278 1079 l 1369 907 q 1399 894 1378 894 q 1415 897 1407 894 q 1425 907 1422 900 l 1518 1079 l 1675 1079 l 1549 853 q 1490 797 1529 814 q 1397 781 1451 781 q 1304 798 1343 781 q 1246 853 1265 815 l 1121 1079 l 1278 1079 z "},"ǝ":{"ha":906,"x_min":90,"x_max":831,"o":"m 338 0 q 149 59 207 0 q 90 225 90 118 q 103 315 90 275 q 147 381 117 354 q 224 422 176 408 q 339 436 271 436 l 688 436 l 688 489 q 662 562 688 533 q 575 590 636 590 l 126 590 l 126 733 l 575 733 q 692 715 643 733 q 772 665 740 697 q 817 588 803 632 q 831 492 831 543 l 831 242 q 817 145 831 189 q 772 69 803 101 q 692 18 740 36 q 575 0 643 0 l 338 0 m 688 321 l 343 321 q 259 297 283 321 q 235 233 235 274 q 260 167 235 192 q 339 142 285 142 l 575 142 q 662 171 636 142 q 688 243 688 200 l 688 321 z "},"Ǧ":{"ha":1013,"x_min":79,"x_max":939,"o":"m 79 0 m 889 938 l 889 774 l 503 774 q 305 702 367 774 q 243 468 243 631 q 304 235 243 307 q 503 164 365 164 l 658 164 q 758 201 728 164 q 789 296 789 238 q 760 384 789 353 q 674 415 732 415 l 465 415 l 465 558 l 690 558 q 878 487 817 558 q 939 293 939 415 q 923 178 939 232 q 872 85 907 125 q 781 23 836 46 q 647 0 726 0 l 503 0 q 188 116 297 0 q 79 468 79 232 q 188 822 79 706 q 503 938 297 938 l 889 938 m 439 1283 l 531 1111 q 560 1099 539 1099 q 576 1101 568 1099 q 586 1111 583 1104 l 679 1283 l 836 1283 l 710 1057 q 651 1001 690 1018 q 558 985 613 985 q 465 1002 504 985 q 407 1057 426 1019 l 282 1283 l 439 1283 z "},"ǧ":{"ha":961,"x_min":71,"x_max":861,"o":"m 71 0 m 592 733 q 792 656 724 733 q 861 419 861 579 l 861 -3 q 847 -136 861 -81 q 799 -226 832 -192 q 713 -277 767 -261 q 583 -293 660 -293 l 147 -293 l 147 -151 l 567 -151 q 681 -117 649 -151 q 713 -3 713 -82 l 713 31 l 389 31 q 156 117 242 31 q 71 383 71 204 q 156 647 71 561 q 389 733 242 733 l 592 733 m 219 378 q 263 215 219 265 q 403 164 307 164 l 713 164 l 713 421 q 675 551 713 511 q 549 592 638 592 l 403 592 q 263 541 307 592 q 219 378 219 490 m 361 1079 l 453 907 q 482 894 461 894 q 498 897 490 894 q 508 907 506 900 l 601 1079 l 758 1079 l 632 853 q 574 797 613 814 q 481 781 535 781 q 388 798 426 781 q 329 853 349 815 l 204 1079 l 361 1079 z "},"ǰ":{"ha":478,"x_min":-32,"x_max":522,"o":"m 0 0 m 125 1079 l 217 907 q 246 894 225 894 q 262 897 254 894 q 272 907 269 900 l 365 1079 l 522 1079 l 396 853 q 338 797 376 814 q 244 781 299 781 q 151 798 190 781 q 93 853 113 815 l -32 1079 l 125 1079 m 324 733 l 324 -42 q 311 -162 324 -114 q 272 -240 299 -211 q 205 -282 246 -269 q 108 -294 164 -294 l -21 -294 l -21 -153 l 75 -153 q 152 -129 129 -153 q 175 -43 175 -106 l 175 733 l 324 733 z "},"Ǳ":{"ha":2056,"x_min":114,"x_max":1979,"o":"m 114 0 m 522 938 q 837 822 729 938 q 944 468 944 707 q 837 115 944 231 q 522 0 729 0 l 192 0 q 114 76 114 0 l 114 861 q 192 938 114 938 l 522 938 m 278 181 q 296 164 278 164 l 522 164 q 719 236 658 164 q 781 469 781 308 q 720 702 781 631 q 522 774 660 774 l 296 774 q 278 757 278 774 l 278 181 m 1751 938 q 1922 884 1864 938 q 1979 732 1979 831 q 1942 598 1979 651 q 1829 513 1904 544 l 1318 294 q 1283 267 1296 285 q 1271 225 1271 249 q 1288 181 1271 197 q 1340 164 1306 164 l 1958 164 l 1958 0 l 1329 0 q 1160 53 1217 0 q 1103 206 1103 107 q 1140 340 1103 286 q 1254 425 1178 393 l 1763 643 q 1811 713 1811 663 q 1794 757 1811 740 q 1740 774 1776 774 l 1136 774 l 1136 938 l 1751 938 z "},"ǲ":{"ha":1889,"x_min":114,"x_max":1821,"o":"m 114 0 m 522 938 q 837 822 729 938 q 944 468 944 707 q 837 115 944 231 q 522 0 729 0 l 192 0 q 114 76 114 0 l 114 861 q 192 938 114 938 l 522 938 m 278 181 q 296 164 278 164 l 522 164 q 719 236 658 164 q 781 469 781 308 q 720 702 781 631 q 522 774 660 774 l 296 774 q 278 757 278 774 l 278 181 m 1632 733 q 1774 688 1728 733 q 1821 565 1821 642 q 1788 453 1821 497 q 1696 389 1754 410 l 1275 236 q 1236 186 1236 221 q 1292 142 1236 142 l 1806 142 l 1806 0 l 1283 0 q 1141 46 1188 0 q 1094 168 1094 92 q 1125 276 1094 231 q 1219 346 1156 322 l 1642 497 q 1673 519 1665 506 q 1681 549 1681 533 q 1624 592 1681 592 l 1121 592 l 1121 733 l 1632 733 z "},"ǳ":{"ha":1831,"x_min":71,"x_max":1763,"o":"m 71 0 m 861 1051 l 861 314 q 792 77 861 154 q 592 0 724 0 l 389 0 q 156 90 242 0 q 71 367 71 181 q 156 643 71 553 q 389 733 242 733 l 713 733 l 713 1051 l 861 1051 m 549 143 q 675 185 638 143 q 713 321 713 226 l 713 592 l 403 592 q 263 539 307 592 q 219 367 219 486 q 263 195 219 247 q 403 143 307 143 l 549 143 m 1574 733 q 1716 688 1669 733 q 1763 565 1763 642 q 1729 453 1763 497 q 1638 389 1696 410 l 1217 236 q 1178 186 1178 221 q 1233 142 1178 142 l 1747 142 l 1747 0 l 1225 0 q 1083 46 1129 0 q 1036 168 1036 92 q 1067 276 1036 231 q 1161 346 1097 322 l 1583 497 q 1615 519 1607 506 q 1622 549 1622 533 q 1565 592 1622 592 l 1063 592 l 1063 733 l 1574 733 z "},"Ǵ":{"ha":1013,"x_min":79,"x_max":939,"o":"m 79 0 m 889 938 l 889 774 l 503 774 q 305 702 367 774 q 243 468 243 631 q 304 235 243 307 q 503 164 365 164 l 658 164 q 758 201 728 164 q 789 296 789 238 q 760 384 789 353 q 674 415 732 415 l 465 415 l 465 558 l 690 558 q 878 487 817 558 q 939 293 939 415 q 923 178 939 232 q 872 85 907 125 q 781 23 836 46 q 647 0 726 0 l 503 0 q 188 116 297 0 q 79 468 79 232 q 188 822 79 706 q 503 938 297 938 l 889 938 m 735 1283 l 561 985 l 415 985 l 571 1283 l 735 1283 z "},"ǵ":{"ha":961,"x_min":71,"x_max":861,"o":"m 71 0 m 592 733 q 792 656 724 733 q 861 419 861 579 l 861 -3 q 847 -136 861 -81 q 799 -226 832 -192 q 713 -277 767 -261 q 583 -293 660 -293 l 147 -293 l 147 -151 l 567 -151 q 681 -117 649 -151 q 713 -3 713 -82 l 713 31 l 389 31 q 156 117 242 31 q 71 383 71 204 q 156 647 71 561 q 389 733 242 733 l 592 733 m 219 378 q 263 215 219 265 q 403 164 307 164 l 713 164 l 713 421 q 675 551 713 511 q 549 592 638 592 l 403 592 q 263 541 307 592 q 219 378 219 490 m 656 1079 l 482 781 l 336 781 l 492 1079 l 656 1079 z "},"Ǹ":{"ha":1221,"x_min":113,"x_max":1110,"o":"m 113 0 m 276 0 l 113 0 l 113 750 q 165 898 113 842 q 328 954 218 954 q 476 908 425 954 q 556 781 526 861 l 829 182 q 851 154 838 165 q 889 143 865 143 q 930 158 915 143 q 944 196 944 172 l 944 938 l 1110 938 l 1110 189 q 1056 40 1110 96 q 894 -17 1003 -17 q 809 -5 846 -17 q 745 30 772 7 q 699 85 718 53 q 665 157 679 117 l 392 756 q 333 796 374 796 q 291 781 306 796 q 276 742 276 767 l 276 0 m 599 1283 l 754 985 l 607 985 l 435 1283 l 599 1283 z "},"ǹ":{"ha":982,"x_min":106,"x_max":881,"o":"m 106 0 m 511 733 q 790 649 699 733 q 881 413 881 565 l 881 0 l 732 0 l 732 413 q 680 546 732 500 q 511 592 628 592 l 271 592 q 253 571 253 592 l 253 0 l 106 0 l 106 619 q 129 709 106 685 q 208 733 153 733 l 511 733 m 476 1079 l 632 781 l 485 781 l 313 1079 l 476 1079 z "},"Ș":{"ha":976,"x_min":71,"x_max":908,"o":"m 71 0 m 838 938 l 838 774 l 357 774 q 264 742 293 774 q 235 663 235 711 q 241 622 235 642 q 263 585 247 601 q 306 560 279 569 q 374 551 332 551 l 593 551 q 750 527 689 551 q 847 464 811 503 q 895 375 882 425 q 908 275 908 325 q 892 165 908 215 q 839 78 875 115 q 747 21 803 42 q 610 0 690 0 l 88 0 l 88 164 l 615 164 q 713 197 682 164 q 744 281 744 229 q 738 324 744 303 q 714 362 731 346 q 669 388 697 378 q 597 397 640 397 l 379 397 q 225 421 285 397 q 131 483 165 444 q 84 571 97 522 q 71 668 71 619 q 87 776 71 726 q 138 861 103 825 q 229 917 174 897 q 363 938 285 938 l 838 938 m 569 -33 l 569 -182 q 400 -367 569 -367 l 354 -367 l 354 -256 l 371 -256 q 422 -197 422 -256 l 422 -33 l 569 -33 z "},"ș":{"ha":814,"x_min":71,"x_max":746,"o":"m 71 0 m 717 733 l 717 592 l 311 592 q 238 571 260 592 q 215 508 215 550 q 237 449 215 469 q 319 429 258 429 l 492 429 q 617 413 568 429 q 695 368 667 396 q 735 303 724 340 q 746 222 746 265 q 733 133 746 174 q 690 63 719 92 q 615 17 661 33 q 506 0 569 0 l 79 0 l 79 143 l 506 143 q 579 162 557 143 q 601 224 601 181 q 577 287 601 268 q 497 306 553 306 l 324 306 q 199 323 247 306 q 122 370 150 340 q 82 439 93 400 q 71 519 71 478 q 126 676 71 618 q 310 733 182 733 l 717 733 m 493 -33 l 493 -182 q 324 -367 493 -367 l 278 -367 l 278 -256 l 294 -256 q 346 -197 346 -256 l 346 -33 l 493 -33 z "},"Ț":{"ha":793,"x_min":40,"x_max":753,"o":"m 40 0 m 753 938 l 753 774 l 479 774 l 479 0 l 314 0 l 314 774 l 40 774 l 40 938 l 753 938 m 471 -33 l 471 -182 q 301 -367 471 -367 l 256 -367 l 256 -256 l 272 -256 q 324 -197 324 -256 l 324 -33 l 471 -33 z "},"ț":{"ha":521,"x_min":32,"x_max":483,"o":"m 32 0 m 132 733 l 132 907 l 281 907 l 281 733 l 483 733 l 483 592 l 281 592 l 281 244 q 303 158 281 182 q 379 135 326 135 l 481 135 l 481 0 l 349 0 q 251 13 292 0 q 183 54 210 25 q 144 132 157 83 q 132 253 132 181 l 132 592 l 32 592 l 32 733 l 132 733 m 361 -33 l 361 -182 q 192 -367 361 -367 l 146 -367 l 146 -256 l 163 -256 q 214 -197 214 -256 l 214 -33 l 361 -33 z "},"ȷ":{"ha":375,"x_min":-75,"x_max":269,"o":"m 269 733 l 269 -42 q 257 -162 269 -114 q 218 -240 244 -211 q 151 -282 192 -269 q 54 -294 110 -294 l -75 -294 l -75 -153 l 21 -153 q 98 -129 75 -153 q 121 -43 121 -106 l 121 733 l 269 733 z "},"Ɂ":{"ha":701,"x_min":47,"x_max":646,"o":"m 382 1051 q 503 1034 453 1051 q 585 985 553 1017 q 631 910 617 954 q 646 813 646 865 q 633 720 646 764 q 592 644 619 676 q 524 592 565 611 q 424 572 482 572 l 393 572 q 331 551 347 572 q 314 493 314 529 l 314 0 l 165 0 l 165 524 q 202 654 165 608 q 333 700 239 700 l 396 700 q 474 731 449 700 q 499 807 499 763 q 471 882 499 854 q 381 910 443 910 l 47 910 l 47 1051 l 382 1051 z "},"ɂ":{"ha":701,"x_min":47,"x_max":646,"o":"m 382 733 q 503 716 453 733 q 585 667 553 699 q 631 592 617 636 q 646 496 646 549 q 633 403 646 447 q 592 327 619 360 q 524 275 565 294 q 424 256 482 256 l 393 256 q 331 233 347 256 q 314 175 314 211 l 314 0 l 165 0 l 165 207 q 202 338 165 292 q 333 383 239 383 l 396 383 q 474 414 449 383 q 499 490 499 444 q 471 564 499 536 q 381 592 443 592 l 47 592 l 47 733 l 382 733 z "},"Ɍ":{"ha":1065,"x_min":11,"x_max":1014,"o":"m 693 938 q 829 915 772 938 q 923 853 886 892 q 977 764 960 815 q 994 657 994 713 q 983 569 994 613 q 949 487 972 525 q 888 419 925 449 q 796 375 850 390 l 1014 0 l 832 0 l 618 363 l 350 363 l 350 0 l 186 0 l 186 363 l 11 363 l 11 519 l 699 519 q 758 531 733 519 q 799 560 783 542 q 822 601 814 578 q 829 650 829 625 q 798 737 829 700 q 699 774 767 774 l 185 774 l 185 938 l 693 938 z "},"ɍ":{"ha":706,"x_min":31,"x_max":668,"o":"m 167 400 l 167 519 q 212 682 167 631 q 365 733 257 733 l 667 733 l 667 592 l 408 592 q 314 497 314 592 l 314 400 l 668 400 l 668 276 l 314 276 l 314 0 l 167 0 l 167 276 l 31 276 l 31 400 l 167 400 z "},"ɓ":{"ha":965,"x_min":106,"x_max":894,"o":"m 106 783 q 119 908 106 857 q 160 991 133 960 q 229 1036 188 1022 q 326 1050 271 1050 l 465 1050 l 465 915 l 358 915 q 279 887 306 915 q 253 792 253 858 l 253 733 l 578 733 q 809 642 724 733 q 894 367 894 551 q 809 90 894 181 q 578 0 724 0 l 375 0 q 174 77 242 0 q 106 314 106 154 l 106 783 m 253 592 l 253 321 q 290 185 253 226 q 418 143 328 143 l 563 143 q 702 195 658 143 q 746 367 746 247 q 702 539 746 486 q 563 592 658 592 l 253 592 z "},"ɗ":{"ha":1072,"x_min":71,"x_max":1072,"o":"m 713 785 q 726 910 713 858 q 767 992 740 961 q 836 1038 794 1024 q 933 1051 878 1051 l 1072 1051 l 1072 917 l 965 917 q 887 888 913 917 q 861 793 861 860 l 861 314 q 792 77 861 154 q 592 0 724 0 l 389 0 q 156 90 242 0 q 71 367 71 181 q 156 643 71 553 q 389 733 242 733 l 713 733 l 713 785 m 549 143 q 675 185 638 143 q 713 321 713 226 l 713 592 l 403 592 q 263 539 307 592 q 219 367 219 486 q 263 195 219 247 q 403 143 307 143 l 549 143 z "},"ɣ":{"ha":940,"x_min":25,"x_max":914,"o":"m 199 733 l 469 286 l 740 733 l 914 733 l 542 165 q 624 18 593 78 q 671 -83 654 -42 q 692 -151 688 -125 q 697 -196 697 -178 q 649 -323 697 -279 q 504 -367 601 -367 l 433 -367 q 289 -324 338 -367 q 240 -197 240 -281 q 245 -152 240 -178 q 266 -85 250 -126 q 313 16 282 -44 q 396 164 343 76 l 25 733 l 199 733 m 468 51 q 409 -44 432 -4 q 372 -112 386 -83 q 353 -160 358 -140 q 347 -196 347 -179 q 369 -245 347 -228 q 442 -262 390 -262 l 496 -262 q 568 -245 547 -262 q 589 -196 589 -228 q 583 -160 589 -181 q 565 -112 578 -140 q 528 -44 551 -83 q 468 51 504 -4 z "},"ɲ":{"ha":982,"x_min":-92,"x_max":881,"o":"m 106 619 q 129 709 106 685 q 208 733 153 733 l 511 733 q 790 649 699 733 q 881 413 881 565 l 881 0 l 732 0 l 732 413 q 680 546 732 500 q 511 592 628 592 l 271 592 q 253 571 253 592 l 253 -42 q 240 -162 253 -114 q 201 -240 228 -211 q 134 -282 175 -269 q 38 -294 93 -294 l -92 -294 l -92 -153 l 4 -153 q 82 -129 58 -153 q 106 -43 106 -106 l 106 619 z "},"ˆ":{"ha":708,"x_min":75,"x_max":629,"o":"m 200 1008 q 258 1063 219 1047 q 353 1079 297 1079 q 445 1063 407 1079 q 503 1008 483 1046 l 629 781 l 472 781 l 379 954 q 351 967 372 967 q 324 954 331 967 l 232 781 l 75 781 l 200 1008 z "},"ˇ":{"ha":708,"x_min":75,"x_max":629,"o":"m 232 1079 l 324 907 q 353 894 332 894 q 369 897 361 894 q 379 907 376 900 l 472 1079 l 629 1079 l 503 853 q 444 797 483 814 q 351 781 406 781 q 258 798 297 781 q 200 853 219 815 l 75 1079 l 232 1079 z "},"˘":{"ha":719,"x_min":75,"x_max":640,"o":"m 199 1079 l 199 1001 q 206 946 199 968 q 231 909 213 924 q 279 888 249 894 q 358 882 310 882 q 436 888 406 882 q 484 909 467 894 q 508 946 501 924 q 515 1001 515 968 l 515 1079 l 640 1079 l 640 1000 q 627 897 640 939 q 581 830 614 856 q 494 792 549 804 q 358 781 440 781 q 220 792 275 781 q 133 830 165 804 q 88 897 101 856 q 75 1000 75 939 l 75 1079 l 199 1079 z "},"˙":{"ha":303,"x_min":75,"x_max":224,"o":"m 224 1010 l 224 839 l 75 839 l 75 1010 l 224 1010 z "},"˚":{"ha":532,"x_min":75,"x_max":449,"o":"m 310 1079 q 411 1040 374 1079 q 449 919 449 1001 q 411 799 449 839 q 310 760 374 760 l 214 760 q 112 799 149 760 q 75 919 75 839 q 112 1040 75 1001 q 214 1079 149 1079 l 310 1079 m 222 1008 q 168 988 185 1008 q 151 919 151 967 q 168 853 151 874 q 222 832 185 832 l 300 832 q 353 853 336 832 q 371 919 371 874 q 353 988 371 967 q 300 1008 336 1008 l 222 1008 z "},"˛":{"ha":518,"x_min":75,"x_max":435,"o":"m 322 0 l 408 0 l 275 -57 q 226 -91 244 -71 q 208 -144 208 -111 q 233 -205 208 -182 q 304 -228 258 -228 l 435 -228 l 435 -367 l 258 -367 q 121 -321 167 -367 q 75 -204 75 -275 q 107 -106 75 -142 q 197 -47 139 -71 l 322 0 z "},"˜":{"ha":796,"x_min":75,"x_max":713,"o":"m 75 872 m 713 996 l 713 872 l 75 872 l 75 996 l 713 996 z "},"˝":{"ha":782,"x_min":35,"x_max":658,"o":"m 658 1079 l 485 781 l 339 781 l 494 1079 l 658 1079 m 354 1079 l 181 781 l 35 781 l 190 1079 l 354 1079 z "},"̀":{"ha":31,"x_min":-675,"x_max":-356,"o":"m -356 781 m -511 1079 l -356 781 l -503 781 l -675 1079 l -511 1079 z "},"́":{"ha":31,"x_min":-646,"x_max":-326,"o":"m -326 781 m -326 1079 l -500 781 l -646 781 l -490 1079 l -326 1079 z "},"̂":{"ha":31,"x_min":-769,"x_max":-215,"o":"m -215 781 m -644 1008 q -586 1063 -625 1047 q -492 1079 -547 1079 q -399 1063 -437 1079 q -342 1008 -361 1046 l -215 781 l -372 781 l -465 954 q -493 967 -472 967 q -521 954 -514 967 l -612 781 l -769 781 l -644 1008 z "},"̃":{"ha":31,"x_min":-815,"x_max":-178,"o":"m -178 872 m -178 996 l -178 872 l -815 872 l -815 996 l -178 996 z "},"̄":{"ha":31,"x_min":-808,"x_max":-171,"o":"m -171 872 m -171 996 l -171 872 l -808 872 l -808 996 l -171 996 z "},"̆":{"ha":31,"x_min":-774,"x_max":-208,"o":"m -208 781 m -650 1079 l -650 1001 q -643 946 -650 968 q -618 909 -636 924 q -569 888 -600 894 q -490 882 -539 882 q -412 888 -443 882 q -365 909 -382 894 q -340 946 -347 924 q -333 1001 -333 968 l -333 1079 l -208 1079 l -208 1000 q -222 897 -208 939 q -267 830 -235 856 q -354 792 -300 804 q -490 781 -408 781 q -628 792 -574 781 q -715 830 -683 804 q -760 897 -747 856 q -774 1000 -774 939 l -774 1079 l -650 1079 z "},"̇":{"ha":31,"x_min":-575,"x_max":-426,"o":"m -426 839 m -426 1010 l -426 839 l -575 839 l -575 1010 l -426 1010 z "},"̈":{"ha":31,"x_min":-736,"x_max":-254,"o":"m -254 839 m -587 1010 l -587 839 l -736 839 l -736 1010 l -587 1010 m -254 1010 l -254 839 l -403 839 l -403 1010 l -254 1010 z "},"̉":{"ha":31,"x_min":-656,"x_max":-215,"o":"m -422 1258 q -263 1208 -311 1258 q -215 1074 -215 1157 q -226 1001 -215 1035 q -257 941 -236 967 q -310 901 -278 915 q -389 886 -343 886 l -418 886 q -472 869 -458 886 q -486 818 -486 853 l -486 781 l -589 781 l -589 842 q -559 954 -589 918 q -447 990 -529 990 l -411 990 q -353 1013 -371 990 q -335 1069 -335 1036 q -356 1124 -335 1104 q -424 1144 -376 1144 l -656 1144 l -656 1258 l -422 1258 z "},"̊":{"ha":31,"x_min":-682,"x_max":-308,"o":"m -308 760 m -447 1079 q -346 1040 -383 1079 q -308 919 -308 1001 q -346 799 -308 839 q -447 760 -383 760 l -543 760 q -645 799 -608 760 q -682 919 -682 839 q -645 1040 -682 1001 q -543 1079 -608 1079 l -447 1079 m -535 1008 q -589 988 -572 1008 q -606 919 -606 967 q -589 853 -606 874 q -535 832 -572 832 l -457 832 q -403 853 -421 832 q -386 919 -386 874 q -403 988 -386 967 q -457 1008 -421 1008 l -535 1008 z "},"̋":{"ha":31,"x_min":-781,"x_max":-157,"o":"m -157 781 m -157 1079 l -331 781 l -476 781 l -321 1079 l -157 1079 m -461 1079 l -635 781 l -781 781 l -625 1079 l -461 1079 z "},"̌":{"ha":31,"x_min":-769,"x_max":-215,"o":"m -215 781 m -612 1079 l -521 907 q -492 894 -512 894 q -476 897 -483 894 q -465 907 -468 900 l -372 1079 l -215 1079 l -342 853 q -400 797 -361 814 q -493 781 -439 781 q -586 798 -547 781 q -644 853 -625 815 l -769 1079 l -612 1079 z "},"̓":{"ha":31,"x_min":-581,"x_max":-340,"o":"m -340 1167 l -340 1047 l -368 1047 q -422 988 -422 1047 l -422 781 l -581 781 l -581 971 q -537 1119 -581 1071 q -400 1167 -493 1167 l -340 1167 z "},"̛":{"ha":213,"x_min":-222,"x_max":213,"o":"m 213 976 l 213 831 q 201 717 213 763 q 165 643 189 671 q 103 603 140 615 q 14 592 65 592 l -222 592 l -222 733 l -18 733 q 45 754 26 733 q 64 829 64 775 l 64 976 l 213 976 z "},"̣":{"ha":31,"x_min":-571,"x_max":-422,"o":"m -422 -106 m -422 -106 l -422 -276 l -571 -276 l -571 -106 l -422 -106 z "},"̦":{"ha":31,"x_min":-624,"x_max":-408,"o":"m -408 -33 m -408 -33 l -408 -182 q -578 -367 -408 -367 l -624 -367 l -624 -256 l -607 -256 q -556 -197 -556 -256 l -556 -33 l -408 -33 z "},"̨":{"ha":31,"x_min":-736,"x_max":-376,"o":"m -376 0 m -489 0 l -403 0 l -536 -57 q -585 -91 -567 -71 q -603 -144 -603 -111 q -578 -205 -603 -182 q -507 -228 -553 -228 l -376 -228 l -376 -367 l -553 -367 q -690 -321 -644 -367 q -736 -204 -736 -275 q -704 -106 -736 -142 q -614 -47 -672 -71 l -489 0 z "},"̭":{"ha":31,"x_min":-776,"x_max":-222,"o":"m -222 -68 m -651 -139 q -593 -84 -632 -100 q -499 -68 -554 -68 q -406 -85 -444 -68 q -349 -139 -368 -101 l -222 -367 l -379 -367 l -472 -193 q -500 -181 -479 -181 q -528 -193 -521 -181 l -619 -367 l -776 -367 l -651 -139 z "},"΄":{"ha":333,"x_min":35,"x_max":250,"o":"m 250 1079 l 167 781 l 35 781 l 103 1079 l 250 1079 z "},"΅":{"ha":740,"x_min":61,"x_max":679,"o":"m 61 781 m 478 1079 l 394 781 l 263 781 l 331 1079 l 478 1079 m 679 1010 l 679 839 l 531 839 l 531 1010 l 679 1010 m 210 1010 l 210 839 l 61 839 l 61 1010 l 210 1010 z "},"Ά":{"ha":1149,"x_min":83,"x_max":1124,"o":"m 83 0 m 868 193 l 343 193 l 267 0 l 86 0 l 415 833 q 488 927 439 900 q 613 954 538 954 q 735 927 686 954 q 807 833 783 900 l 1124 0 l 942 0 l 868 193 m 404 349 l 810 349 l 657 754 q 611 786 644 786 q 564 754 578 786 l 404 349 m 299 1079 l 215 781 l 83 781 l 151 1079 l 299 1079 z "},"·":{"ha":336,"x_min":89,"x_max":247,"o":"m 89 350 m 247 539 l 247 350 l 89 350 l 89 539 l 247 539 z "},"Έ":{"ha":1107,"x_min":35,"x_max":1007,"o":"m 35 0 m 1006 938 l 1006 774 l 536 774 q 428 742 461 774 q 394 656 394 710 q 538 544 394 544 l 999 544 l 999 396 l 533 396 q 390 282 390 396 q 425 195 390 226 q 532 164 460 164 l 1007 164 l 1007 0 l 532 0 q 390 19 449 0 q 292 73 331 39 q 237 154 254 107 q 219 256 219 201 q 254 390 219 336 q 354 471 289 443 q 222 682 222 525 q 240 785 222 738 q 297 866 258 832 q 394 919 335 900 q 536 938 453 938 l 1006 938 m 250 1079 l 167 781 l 35 781 l 103 1079 l 250 1079 z "},"Ή":{"ha":1211,"x_min":35,"x_max":1099,"o":"m 35 0 m 454 938 l 454 556 l 933 556 l 933 938 l 1099 938 l 1099 0 l 933 0 l 933 392 l 454 392 l 454 0 l 290 0 l 290 938 l 454 938 m 250 1079 l 167 781 l 35 781 l 103 1079 l 250 1079 z "},"Ί":{"ha":565,"x_min":35,"x_max":453,"o":"m 35 0 m 453 938 l 453 0 l 289 0 l 289 938 l 453 938 m 250 1079 l 167 781 l 35 781 l 103 1079 l 250 1079 z "},"Ό":{"ha":1226,"x_min":35,"x_max":1147,"o":"m 35 0 m 724 938 q 1038 821 929 938 q 1147 467 1147 704 q 1038 115 1147 231 q 724 0 929 0 l 596 0 q 281 115 390 0 q 172 467 172 231 q 281 821 172 704 q 596 938 390 938 l 724 938 m 596 774 q 398 701 460 774 q 336 467 336 629 q 397 235 336 306 q 596 164 458 164 l 724 164 q 920 235 858 164 q 982 468 982 307 q 921 701 982 629 q 724 774 860 774 l 596 774 m 250 1079 l 167 781 l 35 781 l 103 1079 l 250 1079 z "},"Ύ":{"ha":1217,"x_min":35,"x_max":1199,"o":"m 35 0 m 476 938 l 739 536 l 1004 938 l 1199 938 l 821 404 l 821 0 l 656 0 l 656 404 l 278 938 l 476 938 m 250 1079 l 167 781 l 35 781 l 103 1079 l 250 1079 z "},"Ώ":{"ha":1228,"x_min":35,"x_max":1189,"o":"m 35 0 m 797 938 q 1060 855 964 938 q 1157 608 1157 772 q 1120 440 1157 508 q 1013 325 1083 372 l 890 232 q 863 192 863 211 q 871 172 863 179 q 900 164 879 164 l 1189 164 l 1189 0 l 924 0 q 835 12 871 0 q 778 45 800 24 q 747 97 756 67 q 738 165 738 128 q 755 259 738 218 q 813 326 772 300 l 913 408 q 972 478 953 440 q 992 578 992 517 q 942 724 992 674 q 785 774 893 774 l 567 774 q 409 724 458 774 q 360 578 360 674 q 380 478 360 517 q 440 408 400 440 l 539 326 q 597 259 579 300 q 614 165 614 218 q 605 97 614 128 q 574 45 596 67 q 516 12 551 24 q 428 0 481 0 l 164 0 l 164 164 l 453 164 q 489 192 489 164 q 461 232 489 211 l 339 325 q 231 440 268 372 q 194 608 194 508 q 291 855 194 772 q 554 938 388 938 l 797 938 m 250 1079 l 167 781 l 35 781 l 103 1079 l 250 1079 z "},"ΐ":{"ha":626,"x_min":-17,"x_max":601,"o":"m 0 0 m 328 733 l 328 244 q 351 159 328 183 q 426 135 374 135 l 529 135 l 529 0 l 394 0 q 299 13 339 0 q 232 54 258 25 q 193 132 206 83 q 181 253 181 181 l 181 733 l 328 733 m 400 1079 l 317 781 l 185 781 l 253 1079 l 400 1079 m 601 1010 l 601 839 l 453 839 l 453 1010 l 601 1010 m 132 1010 l 132 839 l -17 839 l -17 1010 l 132 1010 z "},"Α":{"ha":1089,"x_min":26,"x_max":1064,"o":"m 808 193 l 283 193 l 207 0 l 26 0 l 356 833 q 428 927 379 900 q 553 954 478 954 q 675 927 626 954 q 747 833 724 900 l 1064 0 l 882 0 l 808 193 m 344 349 l 750 349 l 597 754 q 551 786 585 786 q 504 754 518 786 l 344 349 z "},"Β":{"ha":999,"x_min":114,"x_max":922,"o":"m 114 0 m 604 938 q 747 919 688 938 q 844 866 806 900 q 900 785 882 832 q 918 681 918 738 q 884 549 918 599 q 783 472 850 499 q 886 392 850 444 q 922 258 922 340 q 904 154 922 201 q 848 73 886 107 q 751 19 810 39 q 608 0 692 0 l 192 0 q 114 76 114 0 l 114 861 q 192 938 114 938 l 604 938 m 275 178 q 293 163 275 163 l 613 163 q 722 194 688 163 q 757 285 757 226 q 613 406 757 406 l 275 406 l 275 178 m 275 542 l 608 542 q 753 654 753 542 q 719 743 753 710 q 610 776 685 776 l 293 776 q 275 760 275 776 l 275 542 z "},"Γ":{"ha":864,"x_min":104,"x_max":824,"o":"m 104 0 m 824 938 l 824 774 l 460 774 q 367 761 404 774 q 308 727 331 749 q 277 676 286 706 q 268 613 268 646 l 268 0 l 104 0 l 104 614 q 123 744 104 685 q 183 846 142 803 q 291 913 225 889 q 450 938 357 938 l 824 938 z "},"Δ":{"ha":1089,"x_min":39,"x_max":1057,"o":"m 265 186 q 281 164 261 164 l 814 164 q 829 186 838 164 l 596 754 q 547 786 582 786 q 500 754 514 786 l 265 186 m 350 833 q 424 927 375 900 q 547 954 474 954 q 672 927 622 954 q 744 833 721 900 l 1044 76 q 1044 22 1057 44 q 990 0 1031 0 l 106 0 q 52 22 65 0 q 50 76 39 44 l 350 833 z "},"Ε":{"ha":963,"x_min":76,"x_max":864,"o":"m 76 0 m 863 938 l 863 774 l 393 774 q 285 742 318 774 q 251 656 251 710 q 394 544 251 544 l 856 544 l 856 396 l 390 396 q 247 282 247 396 q 282 195 247 226 q 389 164 317 164 l 864 164 l 864 0 l 389 0 q 247 19 306 0 q 149 73 188 39 q 94 154 111 107 q 76 256 76 201 q 111 390 76 336 q 211 471 146 443 q 79 682 79 525 q 97 785 79 738 q 153 866 115 832 q 251 919 192 900 q 393 938 310 938 l 863 938 z "},"Ζ":{"ha":1032,"x_min":79,"x_max":956,"o":"m 79 0 m 728 938 q 898 884 840 938 q 956 732 956 831 q 918 598 956 651 q 806 513 881 544 l 294 294 q 260 267 272 285 q 247 225 247 249 q 265 181 247 197 q 317 164 282 164 l 935 164 l 935 0 l 306 0 q 136 53 193 0 q 79 206 79 107 q 117 340 79 286 q 231 425 154 393 l 739 643 q 788 713 788 663 q 770 757 788 740 q 717 774 753 774 l 113 774 l 113 938 l 728 938 z "},"Η":{"ha":1035,"x_min":114,"x_max":922,"o":"m 114 0 m 278 938 l 278 556 l 757 556 l 757 938 l 922 938 l 922 0 l 757 0 l 757 392 l 278 392 l 278 0 l 114 0 l 114 938 l 278 938 z "},"Θ":{"ha":1133,"x_min":79,"x_max":1054,"o":"m 764 544 l 764 396 l 368 396 l 368 544 l 764 544 m 631 938 q 945 821 836 938 q 1054 467 1054 704 q 945 115 1054 231 q 631 0 836 0 l 503 0 q 188 115 297 0 q 79 467 79 231 q 188 821 79 704 q 503 938 297 938 l 631 938 m 503 774 q 305 701 367 774 q 243 468 243 629 q 305 235 243 307 q 503 164 367 164 l 631 164 q 827 235 765 164 q 889 468 889 307 q 828 701 889 629 q 631 774 767 774 l 503 774 z "},"Ι":{"ha":390,"x_min":114,"x_max":278,"o":"m 114 0 m 278 938 l 278 0 l 114 0 l 114 938 l 278 938 z "},"Κ":{"ha":983,"x_min":114,"x_max":956,"o":"m 114 0 m 278 938 l 278 540 l 368 540 q 466 544 428 540 q 529 560 504 547 q 572 595 554 572 q 608 657 589 618 l 751 938 l 928 938 l 781 646 q 713 542 749 583 q 618 475 676 500 q 676 452 651 467 q 723 416 701 438 q 764 365 744 394 q 804 294 783 335 l 956 0 l 772 0 l 629 278 q 592 338 610 315 q 546 372 574 360 q 476 388 518 385 q 368 392 435 392 l 278 392 l 278 0 l 114 0 l 114 938 l 278 938 z "},"Λ":{"ha":1089,"x_min":26,"x_max":1064,"o":"m 26 0 m 207 0 l 26 0 l 356 833 q 430 927 382 900 q 553 954 478 954 q 674 927 626 954 q 747 833 722 900 l 1064 0 l 882 0 l 597 754 q 551 786 585 786 q 504 754 518 786 l 207 0 z "},"Μ":{"ha":1531,"x_min":113,"x_max":1418,"o":"m 113 0 m 275 0 l 113 0 l 113 744 q 168 897 113 839 q 338 954 224 954 q 496 906 438 954 q 574 769 554 858 l 706 196 q 768 143 718 143 q 831 196 817 143 l 963 769 q 1037 906 982 858 q 1193 954 1092 954 q 1363 897 1307 954 q 1418 744 1418 839 l 1418 0 l 1256 0 l 1256 736 q 1238 780 1256 764 q 1189 796 1221 796 q 1144 783 1160 796 q 1124 746 1129 769 l 989 172 q 915 31 967 79 q 767 -17 864 -17 q 615 32 668 -17 q 540 172 561 81 l 407 746 q 385 783 401 769 q 342 796 369 796 q 292 780 310 796 q 275 736 275 764 l 275 0 z "},"Ν":{"ha":1221,"x_min":113,"x_max":1110,"o":"m 113 0 m 276 0 l 113 0 l 113 750 q 165 898 113 842 q 328 954 218 954 q 476 908 425 954 q 556 781 526 861 l 829 182 q 851 154 838 165 q 889 143 865 143 q 930 158 915 143 q 944 196 944 172 l 944 938 l 1110 938 l 1110 189 q 1056 40 1110 96 q 894 -17 1003 -17 q 809 -5 846 -17 q 745 30 772 7 q 699 85 718 53 q 665 157 679 117 l 392 756 q 333 796 374 796 q 291 781 306 796 q 276 742 276 767 l 276 0 z "},"Ξ":{"ha":940,"x_min":100,"x_max":840,"o":"m 840 164 l 840 0 l 100 0 l 100 164 l 840 164 m 839 938 l 839 774 l 101 774 l 101 938 l 839 938 m 832 544 l 832 396 l 108 396 l 108 544 l 832 544 z "},"Ο":{"ha":1133,"x_min":79,"x_max":1054,"o":"m 79 0 m 631 938 q 945 821 836 938 q 1054 467 1054 704 q 945 115 1054 231 q 631 0 836 0 l 503 0 q 188 115 297 0 q 79 467 79 231 q 188 821 79 704 q 503 938 297 938 l 631 938 m 503 774 q 305 701 367 774 q 243 467 243 629 q 304 235 243 306 q 503 164 365 164 l 631 164 q 827 235 765 164 q 889 468 889 307 q 828 701 889 629 q 631 774 767 774 l 503 774 z "},"Π":{"ha":1035,"x_min":114,"x_max":922,"o":"m 114 0 m 843 938 q 922 861 922 938 l 922 0 l 757 0 l 757 757 q 740 774 757 774 l 296 774 q 278 757 278 774 l 278 0 l 114 0 l 114 861 q 192 938 114 938 l 843 938 z "},"Ρ":{"ha":943,"x_min":111,"x_max":893,"o":"m 111 0 m 592 938 q 728 915 671 938 q 822 853 785 892 q 876 764 858 815 q 893 657 893 713 q 877 551 893 604 q 825 457 861 499 q 731 389 789 415 q 592 363 674 363 l 300 363 q 276 339 276 363 l 276 0 l 113 0 l 113 371 q 147 485 113 450 q 260 519 182 519 l 597 519 q 657 531 632 519 q 697 560 682 542 q 720 601 713 578 q 728 649 728 624 q 697 737 728 700 q 599 774 665 774 l 111 774 l 111 938 l 592 938 z "},"Σ":{"ha":942,"x_min":76,"x_max":858,"o":"m 858 938 l 858 774 l 303 774 q 261 760 274 774 q 249 724 249 747 q 293 672 249 690 l 626 551 q 686 518 671 539 q 701 469 701 497 q 686 419 701 440 q 626 386 671 399 l 293 265 q 249 214 249 247 q 261 177 249 190 q 303 164 274 164 l 858 164 l 858 0 l 278 0 q 122 50 168 0 q 76 192 76 100 q 83 250 76 222 q 106 301 89 278 q 153 344 124 325 q 231 379 183 364 l 469 468 l 231 558 q 153 593 183 574 q 106 636 124 613 q 83 687 89 660 q 76 746 76 714 q 122 888 76 838 q 278 938 168 938 l 858 938 z "},"Τ":{"ha":793,"x_min":40,"x_max":753,"o":"m 40 0 m 753 938 l 753 774 l 479 774 l 479 0 l 314 0 l 314 774 l 40 774 l 40 938 l 753 938 z "},"Υ":{"ha":957,"x_min":18,"x_max":939,"o":"m 18 0 m 217 938 l 479 536 l 744 938 l 939 938 l 561 404 l 561 0 l 396 0 l 396 404 l 18 938 l 217 938 z "},"Φ":{"ha":1181,"x_min":79,"x_max":1101,"o":"m 79 0 m 508 832 l 508 938 l 672 938 l 672 832 l 725 832 q 1003 744 906 832 q 1101 467 1101 656 q 1004 193 1101 279 q 725 107 907 107 l 672 107 l 672 0 l 508 0 l 508 107 l 457 107 q 176 193 274 107 q 79 467 79 279 q 177 744 79 656 q 457 832 275 832 l 508 832 m 672 657 l 672 282 l 725 282 q 887 324 836 282 q 938 468 938 367 q 886 613 938 569 q 725 657 835 657 l 672 657 m 508 282 l 508 657 l 457 657 q 294 613 346 657 q 243 468 243 569 q 294 324 243 367 q 457 282 344 282 l 508 282 z "},"Χ":{"ha":1085,"x_min":26,"x_max":1060,"o":"m 26 0 m 265 938 l 553 592 l 854 938 l 1057 938 l 656 476 l 1060 0 l 860 0 l 549 372 l 229 0 l 26 0 l 446 489 l 65 938 l 265 938 z "},"Ψ":{"ha":1190,"x_min":103,"x_max":1088,"o":"m 676 938 l 676 374 l 757 374 q 885 415 844 374 q 926 536 926 457 l 926 938 l 1088 938 l 1088 531 q 1007 297 1088 375 q 769 218 926 218 l 676 218 l 676 0 l 513 0 l 513 218 l 421 218 q 183 297 263 218 q 103 531 103 375 l 103 938 l 269 938 l 269 536 q 310 415 269 457 q 439 374 351 374 l 513 374 l 513 938 l 676 938 z "},"Ω":{"ha":1104,"x_min":40,"x_max":1065,"o":"m 674 938 q 937 855 840 938 q 1033 608 1033 772 q 997 440 1033 508 q 889 325 960 372 l 767 232 q 739 192 739 211 q 747 172 739 179 q 776 164 756 164 l 1065 164 l 1065 0 l 800 0 q 712 12 747 0 q 654 45 676 24 q 623 97 632 67 q 614 165 614 128 q 631 259 614 218 q 689 326 649 300 l 789 408 q 849 478 829 440 q 868 578 868 517 q 819 724 868 674 q 661 774 769 774 l 443 774 q 285 724 335 774 q 236 578 236 674 q 256 478 236 517 q 317 408 276 440 l 415 326 q 473 259 456 300 q 490 165 490 218 q 481 97 490 128 q 450 45 472 67 q 392 12 428 24 q 304 0 357 0 l 40 0 l 40 164 l 329 164 q 365 192 365 164 q 338 232 365 211 l 215 325 q 108 440 144 372 q 71 608 71 508 q 167 855 71 772 q 431 938 264 938 l 674 938 z "},"Ϊ":{"ha":408,"x_min":-36,"x_max":446,"o":"m 0 0 m 292 938 l 292 0 l 128 0 l 128 938 l 292 938 m 113 1214 l 113 1043 l -36 1043 l -36 1214 l 113 1214 m 446 1214 l 446 1043 l 297 1043 l 297 1214 l 446 1214 z "},"Ϋ":{"ha":957,"x_min":18,"x_max":939,"o":"m 18 0 m 217 938 l 479 536 l 744 938 l 939 938 l 561 404 l 561 0 l 396 0 l 396 404 l 18 938 l 217 938 m 385 1214 l 385 1043 l 236 1043 l 236 1214 l 385 1214 m 718 1214 l 718 1043 l 569 1043 l 569 1214 l 718 1214 z "},"ά":{"ha":1024,"x_min":71,"x_max":976,"o":"m 71 0 m 475 733 q 655 694 588 733 q 765 575 722 654 l 822 733 l 976 733 l 847 367 l 976 0 l 822 0 l 765 158 q 655 40 722 79 q 475 0 588 0 l 389 0 q 156 90 242 0 q 71 367 71 181 q 156 643 71 553 q 389 733 242 733 l 475 733 m 461 143 q 541 151 508 143 q 597 179 574 160 q 637 232 619 199 q 671 314 654 265 l 689 367 l 671 419 q 637 501 654 468 q 597 555 619 535 q 541 583 574 575 q 461 592 508 592 l 403 592 q 263 539 307 592 q 219 367 219 486 q 263 195 219 247 q 403 143 307 143 l 461 143 m 585 1079 l 501 781 l 369 781 l 438 1079 l 585 1079 z "},"έ":{"ha":878,"x_min":81,"x_max":788,"o":"m 81 0 m 588 1079 l 504 781 l 372 781 l 440 1079 l 588 1079 m 788 733 l 788 593 l 347 593 q 258 570 282 593 q 235 507 235 547 q 259 443 235 464 q 347 422 283 422 l 618 422 l 618 313 l 344 313 q 256 292 281 313 q 232 228 232 271 q 256 164 232 186 q 343 142 279 142 l 788 142 l 788 0 l 333 0 q 215 15 264 0 q 137 57 167 31 q 94 119 107 83 q 81 196 81 156 q 106 303 81 263 q 183 367 132 344 q 83 539 83 411 q 97 616 83 581 q 140 677 110 651 q 219 718 171 703 q 338 733 268 733 l 788 733 z "},"ή":{"ha":982,"x_min":106,"x_max":881,"o":"m 106 0 m 511 733 q 790 649 699 733 q 881 413 881 565 l 881 -294 l 732 -294 l 732 413 q 680 546 732 500 q 511 592 628 592 l 271 592 q 253 571 253 592 l 253 0 l 106 0 l 106 619 q 129 709 106 685 q 208 733 153 733 l 511 733 m 590 1079 l 507 781 l 375 781 l 443 1079 l 590 1079 z "},"ί":{"ha":490,"x_min":101,"x_max":450,"o":"m 101 0 m 249 733 l 249 244 q 272 159 249 183 q 347 135 294 135 l 450 135 l 450 0 l 315 0 q 219 13 260 0 q 153 54 179 25 q 114 132 126 83 q 101 253 101 181 l 101 733 l 249 733 m 332 1079 l 249 781 l 117 781 l 185 1079 l 332 1079 z "},"ΰ":{"ha":975,"x_min":101,"x_max":874,"o":"m 101 0 m 250 733 l 250 294 q 297 186 250 229 q 431 143 343 143 l 550 143 q 683 186 638 143 q 729 294 729 229 l 729 733 l 874 733 l 874 289 q 853 172 874 225 q 793 81 833 119 q 694 22 753 43 q 556 0 635 0 l 419 0 q 281 22 340 0 q 182 81 222 43 q 122 172 142 119 q 101 289 101 225 l 101 733 l 250 733 m 594 1079 l 511 781 l 379 781 l 447 1079 l 594 1079 m 796 1010 l 796 839 l 647 839 l 647 1010 l 796 1010 m 326 1010 l 326 839 l 178 839 l 178 1010 l 326 1010 z "},"α":{"ha":1024,"x_min":71,"x_max":976,"o":"m 475 733 q 655 694 588 733 q 765 575 722 654 l 822 733 l 976 733 l 847 367 l 976 0 l 822 0 l 765 158 q 655 40 722 79 q 475 0 588 0 l 389 0 q 156 90 242 0 q 71 367 71 181 q 156 643 71 553 q 389 733 242 733 l 475 733 m 461 143 q 541 151 508 143 q 597 179 574 160 q 637 232 619 199 q 671 314 654 265 l 689 367 l 671 419 q 637 501 654 468 q 597 555 619 535 q 541 583 574 575 q 461 592 508 592 l 403 592 q 263 539 307 592 q 219 367 219 486 q 263 195 219 247 q 403 143 307 143 l 461 143 z "},"β":{"ha":922,"x_min":106,"x_max":829,"o":"m 554 1051 q 669 1033 621 1051 q 747 981 717 1015 q 790 899 776 947 q 804 792 804 851 q 777 655 804 713 q 689 565 750 597 q 794 483 760 540 q 829 321 829 425 q 744 77 829 154 q 513 0 658 0 l 253 0 l 253 -294 l 106 -294 l 106 775 q 119 907 106 854 q 163 992 133 960 q 236 1038 192 1024 q 342 1051 281 1051 l 554 1051 m 253 143 l 488 143 q 634 190 588 143 q 681 343 681 238 q 647 461 681 426 q 531 496 613 496 l 403 496 l 403 626 l 533 626 q 628 658 600 626 q 656 761 656 690 q 628 879 656 842 q 539 917 601 917 l 374 917 q 281 888 308 917 q 253 783 253 858 l 253 143 z "},"γ":{"ha":940,"x_min":26,"x_max":914,"o":"m 26 0 m 183 733 l 469 121 l 756 733 l 914 733 l 544 -25 l 544 -294 l 396 -294 l 396 -25 l 26 733 l 183 733 z "},"δ":{"ha":888,"x_min":71,"x_max":817,"o":"m 760 1051 l 760 910 l 376 910 q 312 883 332 910 q 292 821 292 856 q 312 760 292 786 q 385 733 332 733 l 546 733 q 753 646 690 733 q 817 386 817 558 q 738 92 817 185 q 500 0 658 0 l 389 0 q 256 24 315 0 q 156 92 197 47 q 93 201 115 138 q 71 347 71 265 q 117 540 71 468 q 236 651 163 613 q 167 729 186 681 q 147 833 147 778 q 160 920 147 881 q 200 989 172 960 q 271 1035 228 1018 q 375 1051 314 1051 l 760 1051 m 390 618 q 368 618 379 618 q 346 619 357 618 q 252 520 285 579 q 219 367 219 461 q 264 206 219 269 q 403 143 308 143 l 485 143 q 569 156 535 143 q 626 199 604 169 q 658 277 649 229 q 668 394 668 325 q 636 565 668 513 q 521 618 604 618 l 390 618 z "},"ε":{"ha":878,"x_min":81,"x_max":788,"o":"m 788 733 l 788 593 l 347 593 q 258 570 282 593 q 235 507 235 547 q 259 443 235 464 q 347 422 283 422 l 618 422 l 618 313 l 344 313 q 256 292 281 313 q 232 228 232 271 q 256 164 232 186 q 343 142 279 142 l 788 142 l 788 0 l 333 0 q 215 15 264 0 q 137 57 167 31 q 94 119 107 83 q 81 196 81 156 q 106 303 81 263 q 183 367 132 344 q 83 539 83 411 q 97 616 83 581 q 140 677 110 651 q 219 718 171 703 q 338 733 268 733 l 788 733 z "},"ζ":{"ha":835,"x_min":71,"x_max":782,"o":"m 608 1051 q 739 1008 696 1051 q 782 889 782 964 q 760 798 782 836 q 690 726 738 760 l 331 472 q 276 428 297 449 q 242 388 254 408 q 224 346 229 368 q 219 297 219 324 q 263 181 219 218 q 397 143 306 143 l 590 143 q 718 104 675 143 q 761 -19 761 65 l 761 -294 l 613 -294 l 613 -61 q 600 -15 613 -29 q 551 0 588 0 l 389 0 q 156 72 242 0 q 71 303 71 144 q 78 378 71 343 q 105 445 85 413 q 160 510 125 478 q 250 581 194 543 l 614 829 q 642 874 642 849 q 600 910 642 910 l 81 910 l 81 1051 l 608 1051 z "},"η":{"ha":982,"x_min":106,"x_max":881,"o":"m 511 733 q 790 649 699 733 q 881 413 881 565 l 881 -294 l 732 -294 l 732 413 q 680 546 732 500 q 511 592 628 592 l 271 592 q 253 571 253 592 l 253 0 l 106 0 l 106 619 q 129 709 106 685 q 208 733 153 733 l 511 733 z "},"θ":{"ha":992,"x_min":101,"x_max":890,"o":"m 574 1051 q 805 960 719 1051 q 890 685 890 869 l 890 365 q 805 90 890 181 q 574 0 719 0 l 418 0 q 187 90 272 0 q 101 365 101 181 l 101 685 q 187 960 101 869 q 418 1051 272 1051 l 574 1051 m 249 365 q 293 195 249 247 q 433 143 338 143 l 558 143 q 698 195 654 143 q 742 365 742 247 l 742 464 l 249 464 l 249 365 m 249 597 l 742 597 l 742 685 q 698 856 742 803 q 558 908 654 908 l 433 908 q 293 856 338 908 q 249 685 249 803 l 249 597 z "},"ι":{"ha":490,"x_min":101,"x_max":450,"o":"m 249 733 l 249 244 q 272 159 249 183 q 347 135 294 135 l 450 135 l 450 0 l 315 0 q 219 13 260 0 q 153 54 179 25 q 114 132 126 83 q 101 253 101 181 l 101 733 l 249 733 z "},"κ":{"ha":836,"x_min":106,"x_max":810,"o":"m 106 0 m 253 733 l 253 429 l 321 429 q 391 432 364 429 q 437 443 418 435 q 470 468 456 451 q 504 513 485 485 l 626 733 l 786 733 l 658 503 q 601 424 631 456 q 528 372 572 392 q 610 324 579 357 q 678 231 642 290 l 810 0 l 644 0 l 522 217 q 488 262 504 244 q 451 289 472 279 q 400 302 431 299 q 321 306 369 306 l 253 306 l 253 0 l 106 0 l 106 733 l 253 733 z "},"λ":{"ha":899,"x_min":26,"x_max":872,"o":"m 419 1051 l 872 0 l 715 0 l 465 578 l 447 578 q 419 571 428 578 q 403 547 410 564 l 182 0 l 26 0 l 272 619 q 318 688 290 668 q 404 708 346 708 l 408 708 l 261 1051 l 419 1051 z "},"μ":{"ha":1063,"x_min":106,"x_max":1025,"o":"m 253 733 l 253 143 l 492 143 q 621 159 579 143 q 678 217 663 175 q 676 234 676 225 q 676 253 676 243 l 676 733 l 825 733 l 825 244 q 847 159 825 183 q 922 135 869 135 l 1025 135 l 1025 0 l 890 0 q 786 15 828 0 q 718 65 744 29 q 628 17 683 33 q 490 0 574 0 l 253 0 l 253 -294 l 106 -294 l 106 733 l 253 733 z "},"ν":{"ha":940,"x_min":26,"x_max":914,"o":"m 26 0 m 182 733 l 426 144 q 463 122 435 122 q 501 144 492 122 l 756 733 l 914 733 l 631 79 q 566 5 607 26 q 463 -17 525 -17 q 358 6 399 -17 q 296 79 317 28 l 26 733 l 182 733 z "},"ξ":{"ha":814,"x_min":71,"x_max":761,"o":"m 699 1051 l 699 910 l 393 910 q 283 877 313 910 q 253 778 253 844 q 281 678 253 711 q 385 644 310 644 l 694 644 l 694 524 l 397 524 q 263 483 306 524 q 219 340 219 443 q 403 143 219 143 l 590 143 q 718 104 675 143 q 761 -19 761 65 l 761 -294 l 613 -294 l 613 -61 q 600 -15 613 -29 q 551 0 588 0 l 389 0 q 150 85 229 0 q 71 322 71 171 q 110 498 71 435 q 221 589 150 561 q 132 668 161 615 q 103 807 103 721 q 165 988 103 925 q 371 1051 226 1051 l 699 1051 z "},"ο":{"ha":932,"x_min":71,"x_max":861,"o":"m 71 0 m 543 733 q 775 642 689 733 q 861 367 861 551 q 775 90 861 181 q 543 0 689 0 l 389 0 q 156 90 242 0 q 71 367 71 181 q 156 643 71 553 q 389 733 242 733 l 543 733 m 403 592 q 263 539 307 592 q 219 367 219 486 q 263 195 219 247 q 403 143 307 143 l 529 143 q 669 195 625 143 q 713 367 713 247 q 669 539 713 486 q 529 592 625 592 l 403 592 z "},"π":{"ha":1051,"x_min":32,"x_max":1017,"o":"m 1014 733 l 1014 592 l 817 592 l 817 244 q 840 159 817 183 q 914 135 863 135 l 1017 135 l 1017 0 l 882 0 q 786 13 826 0 q 719 54 746 25 q 681 132 693 83 q 668 253 668 181 l 668 592 l 336 592 l 336 0 l 188 0 l 188 592 l 32 592 l 32 733 l 1014 733 z "},"ρ":{"ha":963,"x_min":103,"x_max":892,"o":"m 103 0 m 575 733 q 806 642 721 733 q 892 367 892 551 q 806 90 892 181 q 575 0 721 0 l 250 0 l 250 -294 l 103 -294 l 103 419 q 171 656 103 579 q 372 733 239 733 l 575 733 m 250 143 l 560 143 q 699 195 656 143 q 743 367 743 247 q 699 539 743 486 q 560 592 656 592 l 415 592 q 288 550 325 592 q 250 413 250 508 l 250 143 z "},"ς":{"ha":819,"x_min":71,"x_max":761,"o":"m 735 733 l 735 592 l 403 592 q 263 539 307 592 q 219 369 219 486 q 265 197 219 251 q 403 143 310 143 l 590 143 q 718 104 675 143 q 761 -19 761 65 l 761 -294 l 613 -294 l 613 -61 q 600 -15 613 -29 q 551 0 588 0 l 389 0 q 156 91 242 0 q 71 367 71 182 q 156 642 71 551 q 389 733 242 733 l 735 733 z "},"σ":{"ha":1000,"x_min":71,"x_max":947,"o":"m 947 733 l 947 592 l 783 592 q 827 501 810 556 q 844 364 844 447 q 759 90 844 181 q 526 0 674 0 l 389 0 q 156 90 242 0 q 71 367 71 181 q 156 643 71 553 q 389 733 242 733 l 947 733 m 696 363 q 678 501 696 447 q 635 592 661 556 l 403 592 q 263 539 307 592 q 219 367 219 486 q 263 195 219 247 q 403 143 307 143 l 513 143 q 652 195 608 143 q 696 363 696 247 z "},"τ":{"ha":826,"x_min":40,"x_max":775,"o":"m 775 733 l 775 592 l 478 592 l 478 244 q 500 159 478 183 q 575 135 522 135 l 678 135 l 678 0 l 543 0 q 447 13 488 0 q 381 54 407 25 q 342 132 354 83 q 329 253 329 181 l 329 592 l 40 592 l 40 733 l 775 733 z "},"υ":{"ha":975,"x_min":101,"x_max":874,"o":"m 101 0 m 250 733 l 250 294 q 297 186 250 229 q 431 143 343 143 l 550 143 q 683 186 638 143 q 729 294 729 229 l 729 733 l 874 733 l 874 289 q 853 172 874 225 q 793 81 833 119 q 694 22 753 43 q 556 0 635 0 l 419 0 q 281 22 340 0 q 182 81 222 43 q 122 172 142 119 q 101 289 101 225 l 101 733 l 250 733 z "},"φ":{"ha":1115,"x_min":71,"x_max":1044,"o":"m 71 0 m 632 1018 l 632 733 l 728 733 q 959 642 874 733 q 1044 365 1044 551 q 959 90 1044 181 q 728 0 874 0 l 632 0 l 632 -285 l 483 -285 l 483 0 l 389 0 q 156 90 242 0 q 71 365 71 181 q 156 643 71 553 q 389 733 242 733 l 483 733 l 483 1018 l 632 1018 m 632 592 l 632 143 l 713 143 q 852 195 808 143 q 896 365 896 247 q 852 539 896 486 q 713 592 808 592 l 632 592 m 483 143 l 483 592 l 403 592 q 263 539 307 592 q 219 365 219 486 q 263 195 219 247 q 403 143 307 143 l 483 143 z "},"χ":{"ha":925,"x_min":26,"x_max":899,"o":"m 224 733 l 469 358 l 724 733 l 894 733 l 558 222 l 899 -294 l 725 -294 l 463 104 l 196 -294 l 26 -294 l 374 240 l 50 733 l 224 733 z "},"ψ":{"ha":1106,"x_min":101,"x_max":1004,"o":"m 619 879 l 619 143 l 681 143 q 813 186 768 143 q 858 294 858 229 l 858 733 l 1004 733 l 1004 289 q 984 172 1004 225 q 924 81 964 119 q 824 22 883 43 q 686 0 765 0 l 619 0 l 619 -294 l 472 -294 l 472 0 l 419 0 q 281 22 340 0 q 182 81 222 43 q 122 172 142 119 q 101 289 101 225 l 101 733 l 250 733 l 250 294 q 297 186 250 229 q 431 143 343 143 l 472 143 l 472 879 l 619 879 z "},"ω":{"ha":1307,"x_min":101,"x_max":1206,"o":"m 250 733 l 250 282 q 281 183 250 222 q 383 143 313 143 l 450 143 q 549 183 521 143 q 578 282 578 222 l 578 560 l 728 560 l 728 282 q 757 183 728 222 q 856 143 786 143 l 924 143 q 1024 183 993 143 q 1056 282 1056 222 l 1056 733 l 1206 733 l 1206 289 q 1187 172 1206 225 q 1134 81 1168 119 q 1050 22 1100 43 q 938 0 1000 0 l 861 0 q 731 30 782 0 q 653 114 681 60 q 574 30 625 60 q 446 0 524 0 l 368 0 q 256 22 306 0 q 172 81 207 43 q 119 172 138 119 q 101 289 101 225 l 101 733 l 250 733 z "},"ϊ":{"ha":533,"x_min":-17,"x_max":494,"o":"m 0 0 m 293 733 l 293 244 q 316 159 293 183 q 392 135 339 135 l 494 135 l 494 0 l 360 0 q 264 13 304 0 q 197 54 224 25 q 158 132 171 83 q 146 253 146 181 l 146 733 l 293 733 m 132 1010 l 132 839 l -17 839 l -17 1010 l 132 1010 m 465 1010 l 465 839 l 317 839 l 317 1010 l 465 1010 z "},"ϋ":{"ha":975,"x_min":101,"x_max":874,"o":"m 101 0 m 250 733 l 250 294 q 297 186 250 229 q 431 143 343 143 l 550 143 q 683 186 638 143 q 729 294 729 229 l 729 733 l 874 733 l 874 289 q 853 172 874 225 q 793 81 833 119 q 694 22 753 43 q 556 0 635 0 l 419 0 q 281 22 340 0 q 182 81 222 43 q 122 172 142 119 q 101 289 101 225 l 101 733 l 250 733 m 394 1010 l 394 839 l 246 839 l 246 1010 l 394 1010 m 728 1010 l 728 839 l 579 839 l 579 1010 l 728 1010 z "},"ό":{"ha":932,"x_min":71,"x_max":861,"o":"m 71 0 m 543 733 q 775 642 689 733 q 861 367 861 551 q 775 90 861 181 q 543 0 689 0 l 389 0 q 156 90 242 0 q 71 367 71 181 q 156 643 71 553 q 389 733 242 733 l 543 733 m 403 592 q 263 539 307 592 q 219 367 219 486 q 263 195 219 247 q 403 143 307 143 l 529 143 q 669 195 625 143 q 713 367 713 247 q 669 539 713 486 q 529 592 625 592 l 403 592 m 589 1079 l 506 781 l 374 781 l 442 1079 l 589 1079 z "},"ύ":{"ha":975,"x_min":101,"x_max":874,"o":"m 101 0 m 250 733 l 250 294 q 297 186 250 229 q 431 143 343 143 l 550 143 q 683 186 638 143 q 729 294 729 229 l 729 733 l 874 733 l 874 289 q 853 172 874 225 q 793 81 833 119 q 694 22 753 43 q 556 0 635 0 l 419 0 q 281 22 340 0 q 182 81 222 43 q 122 172 142 119 q 101 289 101 225 l 101 733 l 250 733 m 624 1079 l 540 781 l 408 781 l 476 1079 l 624 1079 z "},"ώ":{"ha":1307,"x_min":101,"x_max":1206,"o":"m 101 0 m 250 733 l 250 282 q 281 183 250 222 q 383 143 313 143 l 450 143 q 549 183 521 143 q 578 282 578 222 l 578 560 l 728 560 l 728 282 q 757 183 728 222 q 856 143 786 143 l 924 143 q 1024 183 993 143 q 1056 282 1056 222 l 1056 733 l 1206 733 l 1206 289 q 1187 172 1206 225 q 1134 81 1168 119 q 1050 22 1100 43 q 938 0 1000 0 l 861 0 q 731 30 782 0 q 653 114 681 60 q 574 30 625 60 q 446 0 524 0 l 368 0 q 256 22 306 0 q 172 81 207 43 q 119 172 138 119 q 101 289 101 225 l 101 733 l 250 733 m 782 1079 l 699 781 l 567 781 l 635 1079 l 782 1079 z "},"Ѐ":{"ha":963,"x_min":76,"x_max":864,"o":"m 76 0 m 863 938 l 863 774 l 393 774 q 285 742 318 774 q 251 656 251 710 q 394 544 251 544 l 856 544 l 856 396 l 390 396 q 247 282 247 396 q 282 195 247 226 q 389 164 317 164 l 864 164 l 864 0 l 389 0 q 247 19 306 0 q 149 73 188 39 q 94 154 111 107 q 76 256 76 201 q 111 390 76 336 q 211 471 146 443 q 79 682 79 525 q 97 785 79 738 q 153 866 115 832 q 251 919 192 900 q 393 938 310 938 l 863 938 m 518 1283 l 674 985 l 526 985 l 354 1283 l 518 1283 z "},"Ё":{"ha":963,"x_min":76,"x_max":864,"o":"m 76 0 m 863 938 l 863 774 l 393 774 q 285 742 318 774 q 251 656 251 710 q 394 544 251 544 l 856 544 l 856 396 l 390 396 q 247 282 247 396 q 282 195 247 226 q 389 164 317 164 l 864 164 l 864 0 l 389 0 q 247 19 306 0 q 149 73 188 39 q 94 154 111 107 q 76 256 76 201 q 111 390 76 336 q 211 471 146 443 q 79 682 79 525 q 97 785 79 738 q 153 866 115 832 q 251 919 192 900 q 393 938 310 938 l 863 938 m 436 1214 l 436 1043 l 288 1043 l 288 1214 l 436 1214 m 769 1214 l 769 1043 l 621 1043 l 621 1214 l 769 1214 z "},"Ђ":{"ha":1133,"x_min":40,"x_max":1028,"o":"m 835 938 l 835 774 l 456 774 l 456 588 l 710 588 q 948 508 868 588 q 1028 274 1028 429 l 1028 86 q 942 -201 1028 -107 q 711 -294 857 -294 l 558 -294 l 558 -151 l 678 -151 q 817 -96 774 -151 q 861 86 861 -40 l 861 261 q 820 381 861 339 q 692 424 779 424 l 456 424 l 456 0 l 292 0 l 292 774 l 40 774 l 40 938 l 835 938 z "},"Ѓ":{"ha":864,"x_min":104,"x_max":824,"o":"m 104 0 m 699 1283 l 525 985 l 379 985 l 535 1283 l 699 1283 m 824 938 l 824 774 l 460 774 q 367 761 404 774 q 308 727 331 749 q 277 676 286 706 q 268 613 268 646 l 268 0 l 104 0 l 104 614 q 123 744 104 685 q 183 846 142 803 q 291 913 225 889 q 450 938 357 938 l 824 938 z "},"Є":{"ha":947,"x_min":79,"x_max":864,"o":"m 864 938 l 864 774 l 501 774 q 321 719 382 774 q 246 544 260 665 l 729 544 l 729 396 l 246 396 q 321 219 260 274 q 501 164 382 164 l 864 164 l 864 0 l 501 0 q 188 116 296 0 q 79 468 79 232 q 188 822 79 706 q 501 938 296 938 l 864 938 z "},"Ѕ":{"ha":976,"x_min":71,"x_max":908,"o":"m 71 0 m 838 938 l 838 774 l 357 774 q 264 742 293 774 q 235 663 235 711 q 241 622 235 642 q 263 585 247 601 q 306 560 279 569 q 374 551 332 551 l 593 551 q 750 527 689 551 q 847 464 811 503 q 895 375 882 425 q 908 275 908 325 q 892 165 908 215 q 839 78 875 115 q 747 21 803 42 q 610 0 690 0 l 88 0 l 88 164 l 615 164 q 713 197 682 164 q 744 281 744 229 q 738 324 744 303 q 714 362 731 346 q 669 388 697 378 q 597 397 640 397 l 379 397 q 225 421 285 397 q 131 483 165 444 q 84 571 97 522 q 71 668 71 619 q 87 776 71 726 q 138 861 103 825 q 229 917 174 897 q 363 938 285 938 l 838 938 z "},"І":{"ha":390,"x_min":114,"x_max":278,"o":"m 114 0 m 278 938 l 278 0 l 114 0 l 114 938 l 278 938 z "},"Ї":{"ha":442,"x_min":-21,"x_max":461,"o":"m 0 0 m 308 938 l 308 0 l 144 0 l 144 938 l 308 938 m 128 1214 l 128 1043 l -21 1043 l -21 1214 l 128 1214 m 461 1214 l 461 1043 l 313 1043 l 313 1214 l 461 1214 z "},"Ј":{"ha":810,"x_min":40,"x_max":706,"o":"m 40 0 m 706 938 l 706 324 q 686 194 706 253 q 625 92 667 135 q 517 24 583 49 q 358 0 451 0 l 40 0 l 40 164 l 349 164 q 441 176 404 164 q 500 210 478 189 q 531 262 522 232 q 540 325 540 292 l 540 938 l 706 938 z "},"Љ":{"ha":1531,"x_min":40,"x_max":1465,"o":"m 685 746 q 672 783 685 769 q 635 796 658 796 q 606 788 618 796 q 585 760 594 779 l 372 279 q 311 149 339 203 q 251 63 283 96 q 176 15 218 29 q 71 0 133 0 l 40 0 l 40 164 l 74 164 q 115 169 97 164 q 149 192 132 175 q 183 243 165 210 q 226 331 201 276 l 432 785 q 467 856 450 824 q 506 909 483 888 q 560 942 529 931 q 639 954 592 954 q 797 899 746 954 q 849 754 849 844 l 849 599 q 872 575 849 575 l 1164 575 q 1303 549 1246 575 q 1397 482 1361 524 q 1449 388 1433 440 q 1465 281 1465 335 q 1448 173 1465 224 q 1394 84 1431 122 q 1300 23 1357 46 q 1164 0 1243 0 l 683 0 l 683 164 l 1171 164 q 1269 201 1238 164 q 1300 289 1300 238 q 1292 337 1300 314 q 1269 378 1285 360 q 1229 407 1254 396 q 1169 418 1204 418 l 832 418 q 719 453 754 418 q 685 567 685 488 l 685 746 z "},"Њ":{"ha":1540,"x_min":114,"x_max":1490,"o":"m 278 938 l 278 576 l 726 576 l 726 938 l 892 938 l 892 576 l 1190 576 q 1330 550 1272 576 q 1423 482 1388 524 q 1474 388 1458 440 q 1490 281 1490 335 q 1473 173 1490 224 q 1419 84 1456 122 q 1326 23 1383 46 q 1190 0 1269 0 l 725 0 l 725 164 l 1196 164 q 1295 201 1264 164 q 1326 289 1326 238 q 1319 337 1326 314 q 1295 378 1311 360 q 1254 407 1279 396 q 1194 418 1229 418 l 278 418 l 278 0 l 114 0 l 114 938 l 278 938 z "},"Ћ":{"ha":1133,"x_min":40,"x_max":1028,"o":"m 835 938 l 835 774 l 456 774 l 456 588 l 710 588 q 948 508 868 588 q 1028 274 1028 429 l 1028 0 l 861 0 l 861 261 q 820 382 861 340 q 692 424 779 424 l 456 424 l 456 0 l 292 0 l 292 774 l 40 774 l 40 938 l 835 938 z "},"Ќ":{"ha":983,"x_min":114,"x_max":956,"o":"m 114 0 m 278 938 l 278 540 l 368 540 q 466 544 428 540 q 529 560 504 547 q 572 595 554 572 q 608 657 589 618 l 751 938 l 928 938 l 781 646 q 713 542 749 583 q 618 475 676 500 q 676 452 651 467 q 723 416 701 438 q 764 365 744 394 q 804 294 783 335 l 956 0 l 772 0 l 629 278 q 592 338 610 315 q 546 372 574 360 q 476 388 518 385 q 368 392 435 392 l 278 392 l 278 0 l 114 0 l 114 938 l 278 938 m 628 1283 l 454 985 l 308 985 l 464 1283 l 628 1283 z "},"Ѝ":{"ha":1221,"x_min":113,"x_max":1110,"o":"m 113 0 m 575 1283 l 731 985 l 583 985 l 411 1283 l 575 1283 m 276 938 l 276 196 q 291 158 276 172 q 332 143 306 143 q 369 154 356 143 q 392 182 383 165 l 665 781 q 699 853 679 821 q 745 908 718 885 q 808 942 772 931 q 893 954 844 954 q 1056 898 1003 954 q 1110 750 1110 842 l 1110 0 l 944 0 l 944 742 q 930 781 944 767 q 890 796 915 796 q 852 785 867 796 q 829 756 838 774 l 556 157 q 522 85 540 117 q 476 30 503 53 q 413 -5 449 7 q 328 -17 376 -17 q 165 40 218 -17 q 113 189 113 96 l 113 938 l 276 938 z "},"Ў":{"ha":1014,"x_min":18,"x_max":996,"o":"m 18 0 m 319 1283 l 319 1206 q 326 1150 319 1172 q 351 1113 333 1128 q 400 1092 369 1099 q 479 1086 431 1086 q 557 1092 526 1086 q 605 1113 588 1099 q 629 1150 622 1128 q 636 1206 636 1172 l 636 1283 l 761 1283 l 761 1204 q 748 1101 761 1143 q 702 1034 735 1060 q 615 997 669 1008 q 479 985 561 985 q 341 997 396 985 q 254 1034 286 1008 q 209 1101 222 1060 q 196 1204 196 1143 l 196 1283 l 319 1283 m 203 938 l 499 415 l 810 938 l 996 938 l 554 186 q 494 97 524 132 q 429 40 465 61 q 347 9 393 18 q 235 0 300 0 l 103 0 l 103 164 l 263 164 q 306 167 288 164 q 338 178 324 169 q 366 201 353 186 q 393 238 379 215 l 408 263 l 18 938 l 203 938 z "},"Џ":{"ha":1035,"x_min":113,"x_max":921,"o":"m 590 0 l 590 -294 l 443 -294 l 443 0 l 192 0 q 113 76 113 0 l 113 938 l 278 938 l 278 181 q 294 164 278 164 l 739 164 q 757 181 757 164 l 757 938 l 921 938 l 921 76 q 843 0 921 0 l 590 0 z "},"А":{"ha":1089,"x_min":26,"x_max":1064,"o":"m 26 0 m 808 193 l 283 193 l 207 0 l 26 0 l 356 833 q 428 927 379 900 q 553 954 478 954 q 675 927 626 954 q 747 833 724 900 l 1064 0 l 882 0 l 808 193 m 344 349 l 750 349 l 597 754 q 551 786 585 786 q 504 754 518 786 l 344 349 z "},"Б":{"ha":943,"x_min":111,"x_max":893,"o":"m 703 938 l 703 774 l 319 774 q 285 760 293 774 q 276 732 276 747 l 276 599 q 300 575 276 575 l 592 575 q 731 549 674 575 q 825 482 789 524 q 877 388 861 440 q 893 281 893 335 q 876 173 893 224 q 822 84 858 122 q 728 23 785 46 q 592 0 671 0 l 111 0 l 111 164 l 599 164 q 697 201 665 164 q 728 289 728 238 q 720 337 728 314 q 697 378 713 360 q 657 407 682 396 q 597 418 632 418 l 260 418 q 147 453 182 418 q 113 567 113 488 l 113 853 q 136 914 113 890 q 208 938 160 938 l 703 938 z "},"В":{"ha":999,"x_min":114,"x_max":922,"o":"m 114 0 m 604 938 q 747 919 688 938 q 844 866 806 900 q 900 785 882 832 q 918 681 918 738 q 884 549 918 599 q 783 472 850 499 q 886 392 850 444 q 922 258 922 340 q 904 154 922 201 q 848 73 886 107 q 751 19 810 39 q 608 0 692 0 l 192 0 q 114 76 114 0 l 114 861 q 192 938 114 938 l 604 938 m 275 178 q 293 163 275 163 l 613 163 q 722 194 688 163 q 757 285 757 226 q 613 406 757 406 l 275 406 l 275 178 m 275 542 l 608 542 q 753 654 753 542 q 719 743 753 710 q 610 776 685 776 l 293 776 q 275 760 275 776 l 275 542 z "},"Г":{"ha":864,"x_min":104,"x_max":824,"o":"m 824 938 l 824 774 l 460 774 q 367 761 404 774 q 308 727 331 749 q 277 676 286 706 q 268 613 268 646 l 268 0 l 104 0 l 104 614 q 123 744 104 685 q 183 846 142 803 q 291 913 225 889 q 450 938 357 938 l 824 938 z "},"Д":{"ha":1149,"x_min":40,"x_max":1108,"o":"m 500 785 q 535 856 518 824 q 574 909 551 888 q 628 942 597 931 q 707 954 660 954 q 865 899 814 954 q 917 754 917 844 l 917 164 l 1108 164 l 1108 -294 l 961 -294 l 961 0 l 188 0 l 188 -294 l 40 -294 l 40 164 l 142 164 q 183 169 165 164 q 217 192 200 175 q 251 243 233 210 q 294 331 269 276 l 500 785 m 751 164 l 751 746 q 739 783 751 769 q 703 796 726 796 q 674 788 686 796 q 653 760 663 779 l 440 279 q 412 217 425 246 q 386 164 399 188 l 751 164 z "},"Е":{"ha":963,"x_min":76,"x_max":864,"o":"m 76 0 m 863 938 l 863 774 l 393 774 q 285 742 318 774 q 251 656 251 710 q 394 544 251 544 l 856 544 l 856 396 l 390 396 q 247 282 247 396 q 282 195 247 226 q 389 164 317 164 l 864 164 l 864 0 l 389 0 q 247 19 306 0 q 149 73 188 39 q 94 154 111 107 q 76 256 76 201 q 111 390 76 336 q 211 471 146 443 q 79 682 79 525 q 97 785 79 738 q 153 866 115 832 q 251 919 192 900 q 393 938 310 938 l 863 938 z "},"Ж":{"ha":1575,"x_min":28,"x_max":1547,"o":"m 869 938 l 869 540 l 960 540 q 1058 544 1019 540 q 1121 560 1096 547 q 1163 595 1146 572 q 1200 657 1181 618 l 1343 938 l 1519 938 l 1372 646 q 1304 542 1340 583 q 1210 475 1268 500 q 1268 452 1243 467 q 1315 416 1293 438 q 1356 365 1336 394 q 1396 294 1375 335 l 1547 0 l 1364 0 l 1221 278 q 1183 338 1201 315 q 1138 372 1165 360 q 1068 388 1110 385 q 960 392 1026 392 l 869 392 l 869 0 l 706 0 l 706 392 l 614 392 q 507 388 547 392 q 440 371 467 383 q 394 336 413 358 q 354 278 375 314 l 211 0 l 28 0 l 179 294 q 219 365 200 335 q 260 416 239 394 q 307 452 282 438 q 365 475 332 467 q 272 542 307 500 q 203 646 236 583 l 54 938 l 232 938 l 375 657 q 415 597 397 619 q 456 561 432 574 q 517 544 481 549 q 614 540 553 540 l 706 540 l 706 938 l 869 938 z "},"З":{"ha":946,"x_min":82,"x_max":868,"o":"m 82 0 m 551 938 q 694 919 635 938 q 791 866 753 900 q 847 786 829 832 q 865 686 865 740 q 831 551 865 603 q 732 471 797 499 q 833 390 799 443 q 868 251 868 336 q 850 153 868 199 q 794 73 832 107 q 698 19 757 39 q 556 0 639 0 l 82 0 l 82 164 l 556 164 q 663 195 628 164 q 697 283 697 226 q 554 396 697 396 l 265 396 l 265 544 l 550 544 q 658 572 622 544 q 693 657 693 599 q 660 742 693 710 q 551 774 626 774 l 83 774 l 83 938 l 551 938 z "},"И":{"ha":1221,"x_min":113,"x_max":1110,"o":"m 276 938 l 276 196 q 291 158 276 172 q 332 143 306 143 q 369 154 356 143 q 392 182 383 165 l 665 781 q 699 853 679 821 q 745 908 718 885 q 808 942 772 931 q 893 954 844 954 q 1056 898 1003 954 q 1110 750 1110 842 l 1110 0 l 944 0 l 944 742 q 930 781 944 767 q 890 796 915 796 q 852 785 867 796 q 829 756 838 774 l 556 157 q 522 85 540 117 q 476 30 503 53 q 413 -5 449 7 q 328 -17 376 -17 q 165 40 218 -17 q 113 189 113 96 l 113 938 l 276 938 z "},"Й":{"ha":1221,"x_min":113,"x_max":1110,"o":"m 113 0 m 446 1283 l 446 1206 q 453 1150 446 1172 q 478 1113 460 1128 q 526 1092 496 1099 q 606 1086 557 1086 q 683 1092 653 1086 q 731 1113 714 1099 q 756 1150 749 1128 q 763 1206 763 1172 l 763 1283 l 888 1283 l 888 1204 q 874 1101 888 1143 q 828 1034 861 1060 q 742 997 796 1008 q 606 985 688 985 q 467 997 522 985 q 381 1034 413 1008 q 335 1101 349 1060 q 322 1204 322 1143 l 322 1283 l 446 1283 m 276 938 l 276 196 q 291 158 276 172 q 332 143 306 143 q 369 154 356 143 q 392 182 383 165 l 665 781 q 699 853 679 821 q 745 908 718 885 q 808 942 772 931 q 893 954 844 954 q 1056 898 1003 954 q 1110 750 1110 842 l 1110 0 l 944 0 l 944 742 q 930 781 944 767 q 890 796 915 796 q 852 785 867 796 q 829 756 838 774 l 556 157 q 522 85 540 117 q 476 30 503 53 q 413 -5 449 7 q 328 -17 376 -17 q 165 40 218 -17 q 113 189 113 96 l 113 938 l 276 938 z "},"К":{"ha":983,"x_min":114,"x_max":956,"o":"m 114 0 m 278 938 l 278 540 l 368 540 q 466 544 428 540 q 529 560 504 547 q 572 595 554 572 q 608 657 589 618 l 751 938 l 928 938 l 781 646 q 713 542 749 583 q 618 475 676 500 q 676 452 651 467 q 723 416 701 438 q 764 365 744 394 q 804 294 783 335 l 956 0 l 772 0 l 629 278 q 592 338 610 315 q 546 372 574 360 q 476 388 518 385 q 368 392 435 392 l 278 392 l 278 0 l 114 0 l 114 938 l 278 938 z "},"Л":{"ha":961,"x_min":40,"x_max":849,"o":"m 432 785 q 467 856 450 824 q 506 909 483 888 q 560 942 529 931 q 639 954 592 954 q 797 899 746 954 q 849 754 849 844 l 849 0 l 683 0 l 683 746 q 671 783 683 769 q 635 796 658 796 q 606 788 618 796 q 585 760 594 779 l 372 279 q 311 149 339 203 q 251 63 283 96 q 176 15 218 29 q 71 0 133 0 l 40 0 l 40 164 l 74 164 q 115 169 97 164 q 149 192 132 175 q 183 243 165 210 q 226 331 201 276 l 432 785 z "},"М":{"ha":1531,"x_min":113,"x_max":1418,"o":"m 113 0 m 275 0 l 113 0 l 113 744 q 168 897 113 839 q 338 954 224 954 q 496 906 438 954 q 574 769 554 858 l 706 196 q 768 143 718 143 q 831 196 817 143 l 963 769 q 1037 906 982 858 q 1193 954 1092 954 q 1363 897 1307 954 q 1418 744 1418 839 l 1418 0 l 1256 0 l 1256 736 q 1238 780 1256 764 q 1189 796 1221 796 q 1144 783 1160 796 q 1124 746 1129 769 l 989 172 q 915 31 967 79 q 767 -17 864 -17 q 615 32 668 -17 q 540 172 561 81 l 407 746 q 385 783 401 769 q 342 796 369 796 q 292 780 310 796 q 275 736 275 764 l 275 0 z "},"Н":{"ha":1035,"x_min":114,"x_max":922,"o":"m 114 0 m 278 938 l 278 556 l 757 556 l 757 938 l 922 938 l 922 0 l 757 0 l 757 392 l 278 392 l 278 0 l 114 0 l 114 938 l 278 938 z "},"О":{"ha":1133,"x_min":79,"x_max":1054,"o":"m 79 0 m 631 938 q 945 821 836 938 q 1054 467 1054 704 q 945 115 1054 231 q 631 0 836 0 l 503 0 q 188 115 297 0 q 79 467 79 231 q 188 821 79 704 q 503 938 297 938 l 631 938 m 503 774 q 305 701 367 774 q 243 467 243 629 q 304 235 243 306 q 503 164 365 164 l 631 164 q 827 235 765 164 q 889 468 889 307 q 828 701 889 629 q 631 774 767 774 l 503 774 z "},"П":{"ha":1035,"x_min":114,"x_max":922,"o":"m 843 938 q 922 861 922 938 l 922 0 l 757 0 l 757 757 q 740 774 757 774 l 296 774 q 278 757 278 774 l 278 0 l 114 0 l 114 861 q 192 938 114 938 l 843 938 z "},"Р":{"ha":943,"x_min":111,"x_max":893,"o":"m 111 0 m 592 938 q 728 915 671 938 q 822 853 785 892 q 876 764 858 815 q 893 657 893 713 q 877 551 893 604 q 825 457 861 499 q 731 389 789 415 q 592 363 674 363 l 300 363 q 276 339 276 363 l 276 0 l 113 0 l 113 371 q 147 485 113 450 q 260 519 182 519 l 597 519 q 657 531 632 519 q 697 560 682 542 q 720 601 713 578 q 728 649 728 624 q 697 737 728 700 q 599 774 665 774 l 111 774 l 111 938 l 592 938 z "},"С":{"ha":947,"x_min":79,"x_max":865,"o":"m 79 0 m 865 938 l 865 774 l 503 774 q 305 702 367 774 q 243 468 243 631 q 304 235 243 307 q 503 164 365 164 l 865 164 l 865 0 l 503 0 q 188 116 297 0 q 79 468 79 232 q 188 822 79 706 q 503 938 297 938 l 865 938 z "},"Т":{"ha":793,"x_min":40,"x_max":753,"o":"m 40 0 m 753 938 l 753 774 l 479 774 l 479 0 l 314 0 l 314 774 l 40 774 l 40 938 l 753 938 z "},"У":{"ha":1014,"x_min":18,"x_max":996,"o":"m 203 938 l 499 415 l 810 938 l 996 938 l 554 186 q 494 97 524 132 q 429 40 465 61 q 347 9 393 18 q 235 0 300 0 l 103 0 l 103 164 l 263 164 q 306 167 288 164 q 338 178 324 169 q 366 201 353 186 q 393 238 379 215 l 408 263 l 18 938 l 203 938 z "},"Ф":{"ha":1181,"x_min":79,"x_max":1101,"o":"m 508 832 l 508 938 l 672 938 l 672 832 l 725 832 q 1003 744 906 832 q 1101 467 1101 656 q 1004 193 1101 279 q 725 107 907 107 l 672 107 l 672 0 l 508 0 l 508 107 l 457 107 q 176 193 274 107 q 79 467 79 279 q 177 744 79 656 q 457 832 275 832 l 508 832 m 672 657 l 672 282 l 725 282 q 887 324 836 282 q 938 468 938 367 q 886 613 938 569 q 725 657 835 657 l 672 657 m 508 282 l 508 657 l 457 657 q 294 613 346 657 q 243 468 243 569 q 294 324 243 367 q 457 282 344 282 l 508 282 z "},"Х":{"ha":1085,"x_min":26,"x_max":1060,"o":"m 26 0 m 265 938 l 553 592 l 854 938 l 1057 938 l 656 476 l 1060 0 l 860 0 l 549 372 l 229 0 l 26 0 l 446 489 l 65 938 l 265 938 z "},"Ц":{"ha":1154,"x_min":113,"x_max":1114,"o":"m 192 0 q 113 76 113 0 l 113 938 l 278 938 l 278 181 q 294 164 278 164 l 757 164 l 757 938 l 921 938 l 921 164 l 1114 164 l 1114 -294 l 967 -294 l 967 0 l 192 0 l 192 0 z "},"Ч":{"ha":1003,"x_min":106,"x_max":889,"o":"m 272 938 l 272 608 q 313 489 272 531 q 442 447 354 447 l 724 447 l 724 938 l 889 938 l 889 0 l 724 0 l 724 282 l 424 282 q 185 361 265 282 q 106 596 106 440 l 106 938 l 272 938 z "},"Ш":{"ha":1386,"x_min":114,"x_max":1274,"o":"m 278 938 l 278 181 q 296 164 278 164 l 611 164 l 611 938 l 775 938 l 775 164 l 1092 164 q 1108 181 1108 164 l 1108 938 l 1274 938 l 1274 76 q 1194 0 1274 0 l 192 0 q 114 76 114 0 l 114 938 l 278 938 z "},"Щ":{"ha":1506,"x_min":114,"x_max":1465,"o":"m 278 938 l 278 181 q 296 164 278 164 l 611 164 l 611 938 l 775 938 l 775 164 l 1108 164 l 1108 938 l 1274 938 l 1274 164 l 1465 164 l 1465 -294 l 1318 -294 l 1318 0 l 192 0 q 114 76 114 0 l 114 938 l 278 938 z "},"Ъ":{"ha":1099,"x_min":40,"x_max":1050,"o":"m 317 938 q 408 905 382 938 q 433 817 433 872 l 433 599 q 457 575 433 575 l 749 575 q 888 549 831 575 q 982 482 946 524 q 1034 388 1018 440 q 1050 281 1050 335 q 1033 173 1050 224 q 978 84 1015 122 q 885 23 942 46 q 749 0 828 0 l 268 0 l 268 164 l 756 164 q 853 201 822 164 q 885 289 885 238 q 877 337 885 314 q 854 378 869 360 q 814 407 839 396 q 754 418 789 418 l 417 418 q 304 453 339 418 q 269 567 269 488 l 269 724 q 261 763 269 753 q 229 774 253 774 l 40 774 l 40 938 l 317 938 z "},"Ы":{"ha":1282,"x_min":111,"x_max":1168,"o":"m 111 0 m 1168 938 l 1168 0 l 1004 0 l 1004 938 l 1168 938 m 276 938 l 276 599 q 300 575 276 575 l 592 575 q 731 549 674 575 q 825 482 789 524 q 877 388 861 440 q 893 281 893 335 q 876 173 893 224 q 822 84 858 122 q 728 23 785 46 q 592 0 671 0 l 111 0 l 111 164 l 599 164 q 697 201 665 164 q 728 289 728 238 q 720 337 728 314 q 697 378 713 360 q 657 407 682 396 q 597 418 632 418 l 260 418 q 147 453 182 418 q 113 567 113 488 l 113 938 l 276 938 z "},"Ь":{"ha":943,"x_min":111,"x_max":893,"o":"m 276 938 l 276 599 q 300 575 276 575 l 592 575 q 731 549 674 575 q 825 482 789 524 q 877 388 861 440 q 893 281 893 335 q 876 173 893 224 q 822 84 858 122 q 728 23 785 46 q 592 0 671 0 l 111 0 l 111 164 l 599 164 q 697 201 665 164 q 728 289 728 238 q 720 337 728 314 q 697 378 713 360 q 657 407 682 396 q 597 418 632 418 l 260 418 q 147 453 182 418 q 113 567 113 488 l 113 938 l 276 938 z "},"Э":{"ha":947,"x_min":82,"x_max":867,"o":"m 699 544 q 624 719 686 665 q 444 774 563 774 l 82 774 l 82 938 l 444 938 q 758 822 650 938 q 867 468 867 706 q 758 116 867 232 q 444 0 650 0 l 82 0 l 82 164 l 444 164 q 625 219 564 164 q 699 396 686 274 l 217 396 l 217 544 l 699 544 z "},"Ю":{"ha":1483,"x_min":114,"x_max":1404,"o":"m 981 938 q 1295 821 1186 938 q 1404 467 1404 704 q 1295 115 1404 231 q 981 0 1186 0 l 853 0 q 555 97 663 0 q 432 396 447 194 l 278 396 l 278 0 l 114 0 l 114 938 l 278 938 l 278 544 l 432 544 q 558 840 450 743 q 853 938 665 938 l 981 938 m 853 774 q 655 701 717 774 q 593 468 593 629 q 655 235 593 307 q 853 164 717 164 l 981 164 q 1177 235 1115 164 q 1239 468 1239 307 q 1178 701 1239 629 q 981 774 1117 774 l 853 774 z "},"Я":{"ha":992,"x_min":50,"x_max":881,"o":"m 881 938 l 881 774 l 365 774 q 266 737 297 774 q 235 650 235 700 q 242 601 235 625 q 266 560 250 578 q 307 531 282 542 q 367 519 332 519 l 732 519 q 844 485 810 519 q 879 371 879 450 l 879 0 l 714 0 l 714 339 q 690 363 714 363 l 444 363 l 233 0 l 50 0 l 269 375 q 178 419 215 390 q 116 487 140 449 q 81 569 92 525 q 71 657 71 613 q 88 764 71 713 q 142 853 106 815 q 235 915 178 892 q 372 938 293 938 l 881 938 z "},"а":{"ha":933,"x_min":90,"x_max":831,"o":"m 90 0 m 575 733 q 692 715 643 733 q 772 665 740 697 q 817 588 803 632 q 831 492 831 543 l 831 147 q 824 79 831 107 q 801 34 818 51 q 755 8 785 17 q 679 0 725 0 l 336 0 q 148 60 206 0 q 90 224 90 119 q 103 313 90 274 q 146 378 117 351 q 222 420 175 406 q 338 435 269 435 l 686 435 l 686 490 q 660 563 686 533 q 574 592 635 592 l 135 592 l 135 733 l 575 733 m 646 143 q 686 181 686 143 l 686 318 l 340 318 q 258 295 282 318 q 235 232 235 272 q 258 167 235 192 q 338 143 282 143 l 646 143 z "}}}
